<svg width="470" height="360" viewBox="0 0 470 360" fill="none" xmlns="http://www.w3.org/2000/svg">
<g clip-path="url(#clip0_1_2)">
<g clip-path="url(#clip1_1_2)">
<path opacity="0.4" d="M430.174 302.647C417.725 326.134 393.345 341.542 367.779 348.988C342.212 356.434 315.225 356.903 288.602 357.35C239.873 358.133 191.159 358.915 142.461 359.698C125.738 359.957 108.756 360.18 92.5147 356.093C59.1504 347.661 31.4466 319.781 23.3081 286.335C15.1697 252.888 26.8313 215.402 52.5151 192.536C75.9441 171.691 107.711 163.764 137.341 153.453C162.203 144.833 185.549 133.159 202.825 112.831C212.502 101.381 220.206 95.215 229.836 92.5374C230.247 92.831 230.611 93.1599 231.01 93.4182C230.305 94.1933 229.683 95.4147 228.837 95.5909C227.181 95.9667 225.373 95.4499 223.752 95.8492C222.177 96.1844 220.748 97.0061 219.665 98.198C216.753 101.956 214.287 106.078 211.445 109.871C210.082 111.715 209.718 113.042 211.081 115.18C213.805 119.56 215.649 124.234 213.958 129.648C213.324 131.644 214.428 132.455 216.459 131.644C217.117 131.386 217.822 131.269 219.031 130.905C218.926 132.771 218.954 134.643 219.113 136.506C219.254 137.563 219.924 139.184 220.687 139.372C221.308 139.471 221.943 139.437 222.55 139.273C223.158 139.109 223.723 138.819 224.21 138.421C225.887 136.845 227.457 135.157 228.908 133.371C231.257 137.058 231.257 137.352 229.084 140.147C227.769 141.873 226.183 143.283 227.686 146.019C228.532 147.487 227.581 149.436 225.185 149.296C224.227 149.259 223.277 149.109 222.355 148.849C220.182 148.262 219.066 149.072 218.444 151.198C217.822 153.324 219.066 154.369 220.617 155.473C224.527 158.268 224.48 159.853 220.687 162.648C219.325 163.682 217.892 164.61 216.565 165.713C216.083 166.113 215.496 166.888 215.579 167.44C215.872 170.387 216.166 173.253 219.29 174.991C221.89 176.618 224.388 178.403 226.77 180.335C226.066 181.251 225.702 181.767 225.302 182.249C222.824 185.149 222.754 185.149 220.511 182.167C219.254 180.593 218.162 178.855 216.788 177.469C216.271 176.882 215.132 176.882 214.287 176.623C214.134 177.504 213.582 178.608 213.911 179.313C215.649 183.141 215.532 183.729 211.562 186.124C211.045 184.832 210.493 183.623 210.012 182.366C208.239 177.669 204.668 176.694 200.734 179.9C198.08 182.037 195.72 181.779 193.547 179.195L190.271 175.332C187.687 179.712 184.117 179.865 179.807 178.855C180.287 177.76 180.68 176.629 180.981 175.473C181.116 175.049 181.166 174.602 181.128 174.158C181.09 173.715 180.964 173.283 180.758 172.889C178.292 170.059 175.638 167.322 172.984 164.492C172.068 165.197 171.551 165.666 170.928 166.077C167.793 167.992 167.276 170.305 169.413 173.37C170.596 175.018 171.504 176.846 172.103 178.784C172.309 179.374 172.386 180.001 172.329 180.623C172.273 181.245 172.083 181.847 171.774 182.39C168.38 186.594 165.362 191.162 160.136 193.476C159.431 193.769 158.961 195.508 159.138 196.459C159.557 197.845 160.153 199.171 160.911 200.405C164.035 198.15 166.783 196.236 169.531 194.216C170.928 193.182 171.88 193.253 173.054 194.58C176.342 198.444 179.243 202.354 178.292 207.956C177.963 209.87 178.691 212.008 178.397 213.957C178.248 215.669 177.567 217.292 176.448 218.596C171.809 222.976 167.053 227.181 162.05 231.15C160.723 232.219 158.362 233.1 156.894 232.665C152.326 231.268 149.637 233.147 147.429 236.752C146.102 238.925 144.364 239.547 141.757 238.925C138.46 238.168 135.112 237.662 131.739 237.41C130.929 237.339 129.39 238.302 129.238 238.925C128.791 242.282 128.533 245.662 128.463 249.048C128.6 249.934 129.011 250.755 129.637 251.397C130.894 252.912 132.549 254.156 133.583 255.812C134.194 256.921 135.068 257.862 136.127 258.555C137.187 259.248 138.4 259.671 139.66 259.787C140.921 259.903 142.19 259.708 143.358 259.22C144.526 258.732 145.557 257.965 146.36 256.987C148.345 254.732 154.91 253.464 157.411 254.955C157.662 255.129 157.873 255.354 158.031 255.615C158.188 255.876 158.289 256.167 158.327 256.47C158.621 258.572 158.703 260.698 159.067 262.765C159.361 264.35 159.913 267.11 160.5 267.145C162.624 267.425 164.782 267.013 166.654 265.971C170.177 263.469 173.536 264.197 174.945 268.472C175.602 270.504 176.119 272.524 176.859 274.555C178.585 279.453 185.585 283.645 190.083 282.025C191.997 281.332 193.606 279.453 195.085 277.867C199.137 273.78 203.553 273.745 207.828 278.09C207.548 278.524 207.212 278.919 206.829 279.265C202.484 282.577 198.292 285.97 196.964 291.713C196.859 292.265 195.79 292.888 195.05 293.076C189.672 294.837 184.363 295.765 179.654 291.232C178.914 290.539 177.81 290.198 177 289.505C173.759 286.851 170.153 286.851 166.066 286.699C159.619 286.44 156.119 288.918 153.794 294.626C152.514 297.785 147.922 297.644 146.208 294.731C145.738 293.956 145.221 293.216 144.704 292.453C140.171 295.976 140.007 296.058 141.721 300.991C142.637 303.645 141.898 305.113 139.772 306.522C137.047 308.354 134.534 310.492 131.774 312.3C131.288 312.663 130.735 312.925 130.146 313.071C129.556 313.216 128.944 313.241 128.345 313.146C126.067 312.3 125.151 313.404 124.481 315.13C124.088 316.34 123.416 317.44 122.521 318.344C121.626 319.247 120.532 319.928 119.326 320.333C118.29 320.601 117.352 321.158 116.622 321.941C115.892 322.723 115.4 323.697 115.204 324.749C114.722 326.921 113.29 327.368 111.223 327.403C106.525 327.403 101.828 327.767 97.13 327.955C95.4037 328.025 94.0414 328.389 93.8887 330.562C93.7478 332.523 94.6638 333.075 96.3549 333.474C101.921 334.731 107.335 336.316 109.696 342.94C112.108 340.412 114.209 337.605 115.955 334.578C117.94 330.867 119.161 329.881 122.873 331.678C125.82 333.11 127.218 332.3 128.028 329.54C128.991 326.299 130.835 326.181 133.559 327.509C142.802 332.042 152.115 336.387 161.369 340.99C163.612 342.094 164.822 341.766 165.937 339.628C169.061 333.592 172.373 327.661 175.332 321.507C176.507 318.971 177.763 318.454 180.453 319.229C193.97 323.234 207.522 327.027 221.075 330.973C223.658 331.713 224.903 331.161 224.903 328.248C224.903 324.302 225.314 324.126 229.072 324.455C234.369 324.89 239.642 325.23 244.938 325.559C245.689 325.49 246.428 325.32 247.134 325.054C246.512 322.106 245.96 319.464 245.185 315.847C246.993 317.021 247.98 317.585 248.908 318.196C252.771 320.991 256.893 323.539 260.475 326.663C264.527 330.315 269.013 330.351 273.84 329.728L276.048 329.388C284.045 328.213 291.549 328.695 297.962 334.59C298.842 335.436 301.203 335.471 302.53 334.954C307.909 332.922 313.099 330.609 318.361 328.213C320.709 327.144 322.859 326.146 324.667 329.388C325.72 328.373 326.705 327.291 327.615 326.146C328.408 324.813 329.563 323.732 330.945 323.028C332.327 322.323 333.88 322.024 335.425 322.165C337.014 322.222 338.602 322.012 340.122 321.543C340.78 321.355 341.778 320.685 341.884 320.098C342.847 315.565 343.622 311.044 344.573 305.853C339.758 306.581 335.483 307.215 331.244 307.943C326.758 308.683 326.675 308.683 325.642 304.42C324.244 298.642 324.244 298.677 318.243 298.548C316.374 298.394 314.519 298.111 312.688 297.703C312.688 297.186 312.688 296.669 312.759 296.117C316.435 295.941 320.122 295.683 323.81 295.6C329.189 295.495 332.207 292.582 332.571 286.91L327.345 284.702C332.536 282.353 338.948 285.877 342.952 280.204C341.778 278.478 340.744 276.822 339.535 274.908C340.416 274.755 340.932 274.532 341.226 274.685C346.863 277.562 350.104 274.285 353.052 270.152C353.862 269.048 354.814 268.014 355.659 266.945C360.623 260.833 364.183 253.705 366.088 246.065V243.493C360.709 227.169 347.556 220.992 332.277 217.786C329.962 217.433 327.601 217.508 325.313 218.009C322.001 218.631 319.793 220.651 319.793 224.339C319.793 226.253 318.913 226.84 317.139 226.183C314.192 225.079 310.727 223.528 310.727 220.311C310.727 218.173 313.534 216.036 315.119 213.898C315.26 213.652 315.589 213.534 315.883 213.346C322.553 209.26 323.105 208.344 320.58 200.898C318.877 195.895 316.564 191.104 314.427 186.277C312.735 182.484 312.876 181.967 316.893 180.722C318.842 180.135 319.876 179.137 318.772 176.999C316.341 172.396 314.074 167.757 311.514 163.224C308.425 157.669 308.602 155.966 313.863 152.466C316.212 150.928 316.552 149.413 314.556 147.463C313.469 146.302 312.291 145.23 311.033 144.257C306.69 141.337 303.265 137.245 301.156 132.455C298.807 127.299 295.378 123.06 289.412 121.627C289.032 121.478 288.639 121.364 288.238 121.286C282.718 121.545 279.7 118.163 278.925 113.477C277.848 107.619 277.232 101.686 277.081 95.7318C332.136 108.063 382.153 141.991 413.721 188.802C436.14 222.213 449.035 267.039 430.174 302.647Z" fill="white"/>
<g opacity="0.74">
<path opacity="0.74" d="M366.053 243.469V246.041C364.148 253.681 360.588 260.81 355.624 266.922C354.778 267.991 353.827 269.024 353.017 270.128C350.069 274.262 346.828 277.538 341.191 274.661C340.897 274.508 340.381 274.732 339.5 274.884C340.674 276.799 341.778 278.407 342.917 280.181C338.913 285.9 332.5 282.318 327.31 284.679L332.536 286.887C332.172 292.559 329.153 295.471 323.775 295.577C320.087 295.659 316.4 295.918 312.724 296.094C312.724 296.646 312.724 297.162 312.653 297.679C314.483 298.088 316.339 298.37 318.208 298.525C324.209 298.713 324.209 298.677 325.607 304.397C326.64 308.707 326.722 308.707 331.209 307.92C335.448 307.192 339.723 306.557 344.538 305.829C343.587 311.02 342.811 315.542 341.848 320.075C341.743 320.662 340.745 321.331 340.087 321.519C338.567 321.988 336.979 322.199 335.389 322.142C333.845 322.001 332.292 322.3 330.91 323.004C329.528 323.709 328.373 324.79 327.58 326.123C326.67 327.267 325.685 328.35 324.632 329.364C322.823 326.076 320.686 327.074 318.326 328.19C313.1 330.538 307.874 332.887 302.495 334.931C301.168 335.447 298.807 335.412 297.926 334.567C291.514 328.695 284.01 328.154 276.012 329.364L273.805 329.705C268.978 330.327 264.492 330.292 260.44 326.639C256.858 323.516 252.736 320.967 248.872 318.172C247.945 317.55 246.958 316.998 245.15 315.823C245.889 319.44 246.477 322.083 247.099 325.031C246.396 325.262 245.666 325.4 244.926 325.442C239.63 325.113 234.357 324.772 229.06 324.338C225.302 324.009 224.891 324.185 224.891 328.131C224.891 331.043 223.647 331.595 221.063 330.856C207.511 326.945 193.958 323.152 180.441 319.112C177.752 318.337 176.542 318.853 175.321 321.39C172.408 327.544 169.096 333.474 165.926 339.511C164.81 341.648 163.577 341.977 161.357 340.873C152.103 336.269 142.79 331.924 133.548 327.391C130.823 326.064 128.979 326.217 128.016 329.423C127.206 332.183 125.809 332.946 122.861 331.56C119.15 329.752 117.928 330.75 115.944 334.461C114.218 337.514 112.132 340.349 109.731 342.905C107.382 336.281 101.957 334.684 96.3902 333.439C94.699 333.04 93.783 332.488 93.9239 330.527C94.0766 328.354 95.4389 327.99 97.1653 327.92C101.863 327.732 106.56 327.403 111.258 327.368C113.325 327.368 114.781 326.886 115.239 324.713C115.435 323.662 115.927 322.687 116.657 321.905C117.387 321.123 118.325 320.566 119.361 320.298C120.567 319.893 121.661 319.212 122.556 318.308C123.451 317.405 124.123 316.305 124.517 315.095C125.186 313.369 126.102 312.265 128.38 313.111C128.98 313.206 129.592 313.181 130.181 313.035C130.77 312.89 131.324 312.628 131.81 312.265C134.569 310.456 137.083 308.319 139.807 306.487C141.933 305.078 142.673 303.61 141.757 300.956C140.019 296.023 140.206 295.953 144.74 292.418C145.256 293.181 145.773 293.921 146.243 294.696C148.016 297.609 152.549 297.75 153.829 294.59C156.178 288.883 159.701 286.37 166.102 286.663C170.189 286.816 173.794 286.816 177.035 289.47C177.846 290.163 178.949 290.504 179.689 291.197C184.387 295.73 189.707 294.802 195.086 293.04C195.825 292.817 196.894 292.23 197 291.678C198.327 285.935 202.519 282.541 206.865 279.23C207.248 278.884 207.583 278.489 207.863 278.055C203.588 273.71 199.172 273.745 195.121 277.832C193.606 279.417 192.032 281.296 190.118 281.989C185.62 283.61 178.621 279.417 176.894 274.52C176.19 272.489 175.638 270.469 174.98 268.437C173.571 264.162 170.283 263.434 166.689 265.935C164.817 266.978 162.659 267.39 160.535 267.11C159.948 267.11 159.361 264.315 159.102 262.729C158.738 260.662 158.656 258.537 158.362 256.435C158.325 256.132 158.224 255.841 158.066 255.58C157.908 255.319 157.697 255.094 157.446 254.92C154.945 253.452 148.38 254.697 146.395 256.951C145.592 257.93 144.562 258.696 143.394 259.185C142.226 259.673 140.956 259.867 139.696 259.751C138.435 259.636 137.222 259.213 136.163 258.52C135.103 257.827 134.23 256.885 133.618 255.777C132.585 254.121 130.929 252.876 129.672 251.361C129.046 250.72 128.635 249.899 128.498 249.013C128.568 245.626 128.827 242.247 129.273 238.889C129.379 238.267 130.964 237.304 131.774 237.374C135.147 237.627 138.496 238.133 141.792 238.889C144.399 239.512 146.137 238.889 147.464 236.717C149.672 233.111 152.361 231.232 156.93 232.63C158.398 233.064 160.758 232.184 162.085 231.115C167.053 227.146 171.844 222.894 176.483 218.561C177.602 217.256 178.284 215.634 178.433 213.922C178.726 211.972 177.998 209.835 178.327 207.921C179.278 202.319 176.378 198.408 173.089 194.545C171.915 193.218 170.999 193.147 169.566 194.181C166.877 196.2 164.07 198.115 160.946 200.37C160.188 199.136 159.592 197.81 159.173 196.424C159.032 195.472 159.466 193.734 160.171 193.441C165.397 191.092 168.392 186.559 171.809 182.354C172.119 181.812 172.308 181.209 172.365 180.587C172.421 179.966 172.344 179.339 172.138 178.749C171.54 176.811 170.631 174.983 169.449 173.335C167.311 170.27 167.828 167.956 170.964 166.042C171.586 165.666 172.138 165.161 173.019 164.457C175.673 167.287 178.327 170.023 180.793 172.854C180.999 173.248 181.125 173.68 181.163 174.123C181.202 174.567 181.152 175.013 181.016 175.437C180.715 176.594 180.323 177.725 179.842 178.82C184.152 179.818 187.722 179.665 190.306 175.296L193.582 179.16C195.755 181.744 198.115 182.002 200.77 179.865C204.704 176.659 208.274 177.622 210.047 182.331C210.529 183.588 211.081 184.797 211.597 186.089C215.567 183.74 215.684 183.106 213.946 179.278C213.617 178.573 214.169 177.469 214.322 176.588C215.168 176.847 216.307 176.847 216.823 177.434C218.186 178.867 219.29 180.605 220.546 182.131C222.789 185.114 222.895 185.114 225.338 182.214C225.737 181.732 226.101 181.215 226.806 180.299C224.423 178.368 221.925 176.583 219.325 174.956C216.201 173.218 215.907 170.352 215.614 167.405C215.532 166.853 216.119 166.077 216.6 165.678C217.927 164.574 219.36 163.646 220.722 162.613C224.516 159.818 224.563 158.233 220.652 155.438C219.102 154.334 217.786 153.441 218.479 151.163C219.172 148.884 220.217 148.18 222.39 148.814C223.313 149.074 224.263 149.224 225.22 149.26C227.569 149.401 228.567 147.452 227.722 145.984C226.218 143.259 227.804 141.85 229.119 140.112C231.304 137.317 231.304 137.023 228.943 133.336C227.492 135.122 225.923 136.809 224.246 138.385C223.758 138.783 223.193 139.074 222.586 139.238C221.978 139.402 221.343 139.435 220.722 139.337C219.959 139.149 219.29 137.528 219.149 136.471C218.989 134.608 218.962 132.736 219.066 130.869C217.892 131.233 217.152 131.351 216.495 131.609C214.463 132.42 213.359 131.609 213.993 129.613C215.684 124.199 213.84 119.525 211.116 115.144C209.754 113.007 210.118 111.621 211.48 109.836C214.357 106.043 216.823 101.921 219.701 98.1628C220.783 96.9708 222.213 96.1492 223.788 95.814C225.408 95.4147 227.217 95.9314 228.873 95.5556C229.718 95.3795 230.341 94.1581 231.045 93.383C230.634 93.1246 230.27 92.7958 229.871 92.5022C229.592 92.3049 229.282 92.1542 228.955 92.056C226.703 91.5051 224.415 91.1127 222.108 90.8816C220.97 90.8149 219.848 91.1845 218.973 91.915C217.317 93.6766 216.177 94.6044 213.335 93.4182C211.609 92.6901 208.732 94.3108 206.454 95.1211C204.422 95.8492 202.543 97.2115 200.488 97.6578C199.813 97.7088 199.136 97.61 198.505 97.3684C197.873 97.1268 197.303 96.7483 196.835 96.2602C194.487 93.6414 192.349 90.7759 189.789 87.605C188.098 91.8446 191.046 96.4834 186.595 99.6072C183.788 95.5556 181.028 91.6214 178.116 87.4171L174.757 90.1769L167.1 83.9527C167.905 83.5776 168.753 83.3016 169.625 83.1306C171.727 83.0602 171.974 81.7683 172.432 80.0067C173.019 77.4231 173.606 74.5459 175.156 72.4555C179.09 67.0768 183.436 61.9917 187.863 57.024C189.519 55.1802 189.953 53.7005 188.485 51.751C188.192 51.3165 188.039 50.7528 187.746 50.3535C183.365 44.8691 184.763 39.2673 187.382 33.7007C187.662 33.2557 188.039 32.8792 188.484 32.5987C188.929 32.3183 189.431 32.1411 189.953 32.0801C192.126 32.0801 194.299 32.4206 196.659 32.3384C193.864 30.1306 189.883 29.0971 189.519 24.7989C189.225 21.2757 188.885 17.6821 188.556 13.6657C187.382 14.1824 186.419 14.523 185.573 14.9928C181.451 17.4237 177.435 20.0074 173.242 22.3209C171.105 23.4953 170.729 24.7989 171.504 27.0185C171.842 28.4272 172.027 29.8683 172.056 31.3167C172.349 34.4171 170.881 36.4018 168.192 37.9168C167.116 38.7213 166.339 39.862 165.984 41.1581C164.399 45.6442 163.037 50.2478 161.557 54.7809C160.676 57.4703 155.849 60.1596 153.16 59.5724C152.692 59.5227 152.25 59.3337 151.891 59.0299C151.532 58.7262 151.273 58.3217 151.146 57.8687C151.02 57.4158 151.032 56.9353 151.182 56.4895C151.331 56.0437 151.611 55.653 151.986 55.3681C156.108 51.3165 157.728 46.1962 159.431 40.8645C160.382 37.7641 163.365 35.2979 165.691 32.2092C165.103 31.5046 164.176 30.3655 163.142 29.1441C164.845 27.1946 166.501 25.3508 168.815 22.7085C166.313 22.9668 164.728 23.1077 163.142 23.2604C163.074 23.102 162.987 22.9522 162.884 22.8142C163.998 21.9963 165.176 21.2698 166.407 20.6415C169.543 19.3497 170.353 16.813 170.459 13.7949V11.2112C170.318 7.57063 171.163 4.36456 174.405 2.15672C175.319 1.60919 176.039 0.787368 176.46 -0.192055C177.904 -5.12447 181.768 -7.70812 185.749 -10.1743C187.887 -11.5014 188.356 -13.0868 186.477 -15.3299C181.063 -12.711 175.696 -9.9512 172.561 -4.64298C168.286 2.53252 161.921 4.63467 154.182 4.1884C153.544 4.25729 152.898 4.16857 152.303 3.93003C150.94 2.94355 149.696 1.79266 148.368 0.688735C149.736 0.146127 151.17 -0.213224 152.631 -0.379961C155.955 -0.297754 158.715 -1.10808 160.629 -3.98532C163.166 -7.84905 162.027 -10.3153 157.458 -11.1726C156.007 -11.5769 154.593 -12.1034 153.23 -12.7462C153.301 -13.1573 153.336 -13.5566 153.407 -13.9206C154.992 -14.2142 156.542 -14.543 158.339 -14.9189V-17.8666C158.339 -21.6598 159.196 -22.3175 162.943 -21.1431C165.08 -20.4854 167.147 -19.6281 169.284 -19.1232C169.73 -19.0523 170.185 -19.0742 170.621 -19.1873C171.058 -19.3005 171.466 -19.5025 171.821 -19.7808C172.115 -20.0744 171.75 -21.4015 171.386 -22.0591C170.787 -23.2335 169.871 -24.126 169.214 -25.1947C167.887 -27.3321 167.852 -29.54 169.731 -31.3133C171.61 -33.0866 173.524 -33.5564 175.908 -31.6421C178.891 -29.2933 181.662 -29.3521 184.716 -31.3837C187.182 -33.0396 187.252 -34.5546 184.857 -36.3162C182.872 -37.7959 180.817 -39.1934 178.75 -40.5909L179.079 -41.9532C181.053 -42.0826 183.035 -42.0826 185.009 -41.9532C187.358 -41.5774 188.215 -42.7635 188.251 -44.713C188.321 -50.902 189.167 -57.1263 185.009 -62.7633C183.095 -65.4174 182.426 -69.0228 181.486 -72.2641C181.087 -73.6264 181.416 -75.247 181.416 -77.0908C185.503 -75.799 185.35 -70.4556 189.742 -70.4203C191.104 -73.4737 186.971 -76.7503 190.435 -79.9563C191.609 -78.8876 192.784 -77.9012 193.958 -76.8677C195.544 -75.388 197.305 -74.8008 199.008 -76.5741C200.887 -78.5588 199.008 -79.8506 197.751 -81.025C195.802 -82.8688 193.441 -84.4542 196.025 -87.8834L201.897 -84.4542V-94.2016C203.893 -92.6867 205.173 -91.3244 206.759 -90.6785C208.209 -89.9937 209.859 -89.8642 211.398 -90.3144C213.747 -91.3009 213.5 -93.1095 211.292 -94.4365C210 -95.1598 208.767 -95.9844 207.604 -96.9027C205.585 -98.7465 205.655 -100.426 208.239 -101.213C212.29 -102.387 213.136 -105.441 214.111 -108.764C214.604 -110.878 215.426 -112.933 216.154 -115H217.446C223.083 -111.312 227.17 -106.603 227.792 -99.5333C227.792 -99.3807 228.086 -99.275 228.638 -98.8992C229.569 -99.7947 230.407 -100.782 231.139 -101.847C231.586 -102.806 232.327 -103.598 233.253 -104.109C234.18 -104.62 235.245 -104.823 236.295 -104.689C241.791 -104.536 247.346 -104.83 252.842 -104.466C257.481 -104.137 262.084 -103.291 266.653 -102.481C269.189 -102.035 270.035 -100.602 268.778 -98.1241C266.429 -93.5675 263.963 -89.2575 259.501 -86.2393C250.622 -80.2264 241.885 -73.967 233.136 -67.778C232.474 -67.1525 231.926 -66.4175 231.515 -65.6053C232.251 -64.9185 233.097 -64.3589 234.016 -63.9495C235.636 -63.671 237.272 -63.4984 238.914 -63.4327C239.207 -63.0334 239.501 -62.5872 239.794 -62.1526C238.153 -60.7202 236.406 -59.4129 234.568 -58.2419C233.398 -57.6658 232.048 -57.573 230.81 -57.9836C227.205 -59.3459 224.809 -58.8644 222.86 -55.5174C222.02 -54.2224 221.716 -52.6515 222.014 -51.1369C222.343 -50.2914 224.516 -49.8099 225.878 -49.7746C228.602 -49.6572 231.327 -49.9978 234.099 -50.1387C235.719 -50.2561 237.493 -50.033 238.961 -50.6202C241.217 -51.5395 243.358 -52.722 245.337 -54.1433C247.217 -55.4352 249.131 -55.8344 250.892 -54.4722C255.79 -50.7141 261.614 -51.0195 267.252 -50.2444C275.472 -49.1757 283.599 -47.6607 290.892 -43.4329C296.083 -40.403 296.012 -36.4688 290.786 -33.5916C287.686 -31.9357 285.701 -29.4695 285.595 -26.1225C285.37 -21.4061 283.49 -16.9199 280.287 -13.4509C272.971 -4.94832 265.208 3.19017 257.622 11.4931C255.93 13.3251 254.239 15.1689 252.243 17.365C257.622 19.1383 258.913 22.8142 258.761 27.3121C258.655 30.1893 257.586 30.9174 254.862 29.7783C253.312 29.1206 251.808 28.3455 250.329 27.5352C247.98 26.2434 246.136 26.537 245.431 29.2968C244.879 31.3637 243.517 31.5516 241.791 31.5046C239.053 31.2764 236.298 31.3276 233.57 31.6573C232.29 31.8804 231.221 33.5715 230.047 34.605C231.221 35.7794 232.173 37.7289 233.57 38.1281C235.768 38.5054 238.017 38.4775 240.205 38.0459C245.326 37.3883 250.446 36.578 255.566 35.8381C257.478 35.4766 259.455 35.8045 261.147 36.7635C262.84 37.7225 264.137 39.2505 264.809 41.0759C266.126 44.1839 267.256 47.3683 268.191 50.6119C270 56.0963 272.501 60.9582 277.739 64.0586C278.339 64.5602 278.818 65.1922 279.137 65.9065C279.457 66.6208 279.609 67.3986 279.583 68.1807C278.843 76.284 277.234 84.352 276.964 92.4552C276.964 93.5592 276.964 94.6983 276.964 95.8022C277.129 101.738 277.757 107.651 278.843 113.488C279.618 118.186 282.636 121.557 288.156 121.298C288.557 121.376 288.95 121.49 289.33 121.639C295.296 123.036 298.725 127.311 301.074 132.467C303.179 137.229 306.586 141.3 310.903 144.21C312.162 145.183 313.34 146.255 314.427 147.416C316.423 149.366 316.082 150.881 313.734 152.419C308.496 155.943 308.32 157.622 311.385 163.177C313.933 167.71 316.212 172.349 318.643 176.952C319.747 179.09 318.713 180.088 316.764 180.675C312.747 181.92 312.606 182.437 314.297 186.23C316.435 191.057 318.748 195.848 320.451 200.851C322.988 208.297 322.436 209.213 315.754 213.299C315.46 213.487 315.131 213.605 314.99 213.851C313.405 215.989 310.598 218.126 310.598 220.264C310.598 223.47 314.063 225.02 317.01 226.136C318.784 226.793 319.629 226.206 319.664 224.292C319.664 220.604 321.872 218.584 325.184 217.962C327.472 217.461 329.833 217.386 332.148 217.739C347.521 220.968 360.674 227.146 366.053 243.469Z" fill="white"/>
<path opacity="0.74" d="M366.064 246.03C364.138 253.664 360.575 260.788 355.624 266.91C354.767 267.991 353.815 269.012 353.017 270.128C350.057 274.25 346.816 277.527 341.179 274.649C340.885 274.497 340.392 274.743 339.5 274.896L342.917 280.192C338.912 285.9 332.5 282.306 327.321 284.679L332.524 286.898C332.16 292.571 329.13 295.471 323.786 295.565C320.099 295.636 316.411 295.918 312.724 296.105L312.641 297.691C314.482 298.091 316.345 298.377 318.22 298.548C324.209 298.724 324.209 298.654 325.618 304.479C326.652 308.754 326.711 308.765 331.209 308.002C335.448 307.297 339.699 306.675 344.55 305.912C343.587 311.102 342.811 315.647 341.848 320.169C341.731 320.768 340.768 321.437 340.075 321.613C338.553 322.071 336.967 322.285 335.378 322.247C333.835 322.109 332.284 322.409 330.905 323.113C329.525 323.818 328.372 324.898 327.58 326.228C326.663 327.363 325.67 328.434 324.608 329.434C322.8 326.181 320.674 327.18 318.314 328.26C313.099 330.609 307.85 332.958 302.495 334.978C301.156 335.483 298.819 335.471 297.915 334.637C291.514 328.765 283.998 328.213 276.001 329.411C275.261 329.528 274.533 329.646 273.793 329.74C268.966 330.386 264.468 330.327 260.405 326.722C256.71 323.69 252.853 320.864 248.849 318.254C247.933 317.585 246.946 317.08 245.126 315.906L247.134 325.054C246.432 325.271 245.707 325.405 244.973 325.453C239.689 325.124 234.404 324.796 229.107 324.349C225.326 324.032 224.927 324.208 224.927 328.143C224.927 331.067 223.67 331.607 221.11 330.867C207.569 326.957 193.993 323.175 180.488 319.123C177.81 318.325 176.589 318.865 175.379 321.402C172.455 327.532 169.132 333.474 165.984 339.511C164.892 341.636 163.635 341.989 161.416 340.873C152.197 336.269 142.861 331.912 133.606 327.379C130.905 326.052 129.038 326.205 128.099 329.411C127.288 332.194 125.891 332.934 122.943 331.548C119.232 329.752 117.987 330.75 116.026 334.461C114.273 337.496 112.164 340.311 109.743 342.846C107.394 336.187 101.968 334.625 96.4254 333.357C94.7108 332.958 93.7948 332.382 93.9357 330.444C94.1001 328.272 95.4507 327.92 97.2005 327.849C101.898 327.661 106.537 327.321 111.211 327.274C113.29 327.274 114.734 326.816 115.204 324.631C115.404 323.583 115.896 322.613 116.623 321.832C117.35 321.051 118.283 320.49 119.314 320.216C120.521 319.806 121.615 319.122 122.512 318.217C123.409 317.312 124.083 316.211 124.481 315.001C125.151 313.298 126.079 312.171 128.357 313.04C128.954 313.134 129.564 313.108 130.151 312.963C130.738 312.817 131.29 312.556 131.774 312.194C134.522 310.386 137.047 308.249 139.784 306.417C141.909 304.996 142.626 303.528 141.71 300.885C139.983 295.929 140.171 295.871 144.704 292.336C145.209 293.111 145.726 293.851 146.196 294.614C147.993 297.526 152.514 297.656 153.806 294.497C156.155 288.812 159.607 286.335 166.066 286.581C170.142 286.746 173.759 286.722 177 289.4C177.81 290.069 178.914 290.41 179.666 291.138C184.363 295.636 189.672 294.731 195.062 292.958C195.802 292.723 196.835 292.159 196.976 291.572C198.292 285.83 202.496 282.459 206.829 279.147C207.198 278.787 207.532 278.394 207.828 277.973C203.565 273.628 199.137 273.639 195.109 277.75C193.582 279.3 191.997 281.191 190.071 281.884C185.573 283.504 178.574 279.323 176.847 274.415C176.154 272.418 175.591 270.363 174.933 268.355C173.536 264.08 170.236 263.317 166.642 265.841C164.785 266.891 162.636 267.303 160.523 267.016C159.901 267.016 159.349 264.197 159.067 262.624C158.691 260.545 158.633 258.408 158.315 256.317C158.225 255.716 157.905 255.173 157.423 254.802C154.898 253.334 148.357 254.579 146.36 256.822C145.556 257.803 144.524 258.572 143.354 259.061C142.184 259.551 140.911 259.746 139.648 259.63C138.385 259.514 137.17 259.091 136.108 258.397C135.047 257.702 134.172 256.759 133.559 255.648C132.549 254.004 130.894 252.759 129.637 251.244C129.004 250.607 128.592 249.784 128.463 248.895C128.527 245.505 128.786 242.121 129.238 238.76C129.32 238.126 130.905 237.198 131.727 237.269C135.104 237.505 138.457 238.003 141.757 238.76C144.364 239.418 146.114 238.76 147.429 236.611C149.625 232.994 152.314 231.103 156.894 232.501C158.351 232.947 160.711 232.066 162.038 231.009C167.01 227.016 171.817 222.832 176.46 218.455C177.594 217.136 178.281 215.491 178.421 213.758C178.691 211.796 177.951 209.682 178.292 207.733C179.243 202.155 176.331 198.267 173.066 194.404C171.891 193.041 170.964 192.983 169.543 194.028C166.842 196.06 164.058 197.962 160.911 200.205C160.133 199.042 159.51 197.782 159.055 196.459C158.926 195.496 159.372 193.793 160.03 193.499C165.268 191.151 168.251 186.606 171.692 182.413C171.997 181.867 172.185 181.263 172.243 180.641C172.302 180.018 172.23 179.39 172.032 178.796C171.413 176.869 170.511 175.044 169.355 173.382C167.182 170.305 167.711 168.003 170.834 166.089C171.546 165.6 172.232 165.075 172.89 164.516C175.544 167.334 178.21 170.047 180.688 172.912C181.084 173.715 181.159 174.639 180.899 175.496C180.596 176.652 180.203 177.783 179.725 178.878C184.023 179.865 187.616 179.724 190.177 175.355L193.465 179.219C195.649 181.814 197.998 182.037 200.652 179.912C204.598 176.729 208.145 177.68 209.93 182.401C210.4 183.646 210.951 184.856 211.48 186.136C215.449 183.787 215.567 183.165 213.829 179.336C213.512 178.632 214.052 177.539 214.193 176.635C215.05 176.894 216.177 176.905 216.706 177.469C218.08 178.937 219.184 180.652 220.417 182.26C222.684 185.22 222.766 185.22 225.22 182.26C225.631 181.779 225.995 181.262 226.688 180.37C224.308 178.44 221.814 176.655 219.219 175.026C216.072 173.288 215.778 170.411 215.473 167.463C215.519 167.119 215.635 166.788 215.812 166.489C215.99 166.19 216.226 165.93 216.506 165.725C217.81 164.645 219.231 163.705 220.593 162.695C224.422 159.865 224.445 158.291 220.593 155.496C219.031 154.392 217.728 153.488 218.409 151.21C219.09 148.931 220.147 148.239 222.331 148.861C223.253 149.105 224.198 149.25 225.15 149.295C227.499 149.425 228.509 147.487 227.686 146.019C226.148 143.306 227.757 141.885 229.072 140.147C231.221 137.352 231.245 137.058 228.873 133.371C227.419 135.151 225.85 136.834 224.175 138.409C223.685 138.802 223.119 139.09 222.513 139.256C221.907 139.421 221.274 139.461 220.652 139.372C219.912 139.172 219.243 137.563 219.09 136.495C218.935 134.635 218.911 132.767 219.019 130.905C217.845 131.245 217.093 131.374 216.436 131.633C214.392 132.431 213.312 131.633 213.934 129.636C215.637 124.222 213.782 119.537 211.045 115.156C209.707 113.019 210.047 111.715 211.445 109.871C214.31 106.066 216.765 101.944 219.665 98.1275C220.758 96.9421 222.189 96.122 223.764 95.7787C225.361 95.3794 227.193 95.9197 228.814 95.5556C229.671 95.356 230.294 94.1229 231.01 93.3595C230.379 92.8131 229.665 92.3692 228.896 92.0442C226.654 91.4849 224.373 91.0924 222.073 90.8698C220.933 90.7934 219.808 91.1641 218.937 91.9033C217.281 93.6531 216.13 94.5691 213.312 93.383C211.55 92.6431 208.697 94.299 206.418 95.1093C204.375 95.8374 202.508 97.188 200.429 97.646C199.755 97.6828 199.081 97.5739 198.452 97.3267C197.824 97.0794 197.257 96.6997 196.788 96.2133C194.44 93.6179 192.302 90.7289 189.742 87.5933C188.039 91.8093 190.999 96.4599 186.548 99.572L178.057 87.4054L174.757 90.1769L167.088 83.9527C167.914 83.5786 168.781 83.3027 169.672 83.1306C171.786 83.0484 172.021 81.7448 172.467 80.0067C173.078 77.3996 173.641 74.5223 175.203 72.4437C179.161 67.0767 183.494 61.9799 187.922 56.9888C189.542 55.1567 189.989 53.6887 188.532 51.7275C188.227 51.3047 188.11 50.7293 187.781 50.33C183.4 44.8691 184.81 39.2438 187.44 33.6772C187.718 33.234 188.092 32.8598 188.536 32.583C188.98 32.3063 189.48 32.1343 190 32.0801C192.173 32.0801 194.369 32.4089 196.706 32.3384C193.888 30.1306 189.953 29.1089 189.566 24.7754C189.261 21.2522 188.943 17.6586 188.591 13.6539C187.417 14.1707 186.489 14.4995 185.62 15.0045C181.51 17.4237 177.47 20.0074 173.289 22.2974C171.163 23.4718 170.799 24.7871 171.551 26.995C171.896 28.4024 172.081 29.8443 172.103 31.2932C172.396 34.4053 170.928 36.3901 168.239 37.8698C167.167 38.6908 166.395 39.8424 166.043 41.1463C164.458 45.6442 163.095 50.2126 161.604 54.7457C160.723 57.435 155.885 60.1479 153.195 59.5372C152.743 59.4627 152.321 59.2605 151.98 58.9544C151.638 58.6483 151.391 58.2511 151.268 57.8094C151.144 57.3678 151.15 56.9001 151.283 56.4613C151.417 56.0226 151.672 55.6311 152.021 55.3329C156.166 51.293 157.787 46.1962 159.466 40.841C160.441 37.7523 163.412 35.2744 165.726 32.1975L163.201 29.1089L168.85 22.6967L163.201 23.2487L162.943 22.7907C164.051 21.9683 165.23 21.2452 166.466 20.6298C169.613 19.338 170.423 16.7896 170.506 13.7596C170.506 12.9023 170.506 12.0568 170.506 11.2112C170.388 7.55889 171.222 4.35281 174.452 2.12148C175.37 1.57461 176.093 0.752965 176.518 -0.227291C177.951 -5.15971 181.827 -7.71987 185.808 -10.1978C187.945 -11.5249 188.403 -13.1103 186.536 -15.3651C181.122 -12.7345 175.767 -9.96295 172.62 -4.66647C168.357 2.49729 161.991 4.59944 154.24 4.15317C153.606 4.15317 152.831 4.23538 152.373 3.9183C150.987 2.93181 149.731 1.76917 148.427 0.665245C149.79 0.118678 151.22 -0.240816 152.678 -0.403441C156.014 -0.309491 158.762 -1.14331 160.676 -4.02055C163.236 -7.86079 162.097 -10.3505 157.529 -11.196C156.035 -11.6201 154.581 -12.1742 153.183 -12.8519L153.407 -14.0263L158.315 -15.0245V-17.8666C158.315 -21.6481 159.185 -22.3175 162.931 -21.1548C165.045 -20.4972 167.112 -19.6399 169.273 -19.1231C169.715 -19.0515 170.168 -19.0741 170.601 -19.1894C171.034 -19.3048 171.438 -19.5103 171.786 -19.7925C172.091 -20.0744 171.786 -21.3897 171.363 -22.0709C170.764 -23.2452 169.86 -24.126 169.19 -25.2065C167.875 -27.3438 167.816 -29.5517 169.695 -31.3133C171.574 -33.0748 173.5 -33.5563 175.873 -31.6538C178.879 -29.3051 181.627 -29.3051 184.692 -31.3955C187.158 -33.0396 187.229 -34.5546 184.833 -36.3279C182.837 -37.7959 180.77 -39.1817 178.738 -40.6027L179.055 -41.9532C181.035 -42.0748 183.021 -42.0552 184.998 -41.8945C187.346 -41.5539 188.204 -42.7166 188.227 -44.6778C188.298 -50.8785 189.143 -57.091 184.998 -62.7398C183.072 -65.3587 182.414 -68.9758 181.474 -72.2171C181.075 -73.6029 181.474 -75.2001 181.474 -77.0556C185.561 -75.752 185.409 -70.4086 189.801 -70.3733C191.163 -73.4385 187.029 -76.7268 190.494 -79.9093L193.946 -76.8207C195.555 -75.3645 197.317 -74.7538 198.996 -76.5271C200.875 -78.5118 198.996 -79.8154 197.763 -80.9898C195.79 -82.8218 193.453 -84.4307 196.013 -87.8599L201.885 -84.4072V-94.1429C203.882 -92.6632 205.162 -91.2891 206.747 -90.6197C208.219 -89.9381 209.888 -89.8129 211.445 -90.2674C213.793 -91.2657 213.547 -93.0625 211.339 -94.3895C210.036 -95.0933 208.804 -95.9232 207.663 -96.8675C205.631 -98.6995 205.702 -100.391 208.286 -101.154C212.302 -102.328 213.171 -105.382 214.075 -108.717C214.651 -110.843 215.473 -112.898 216.189 -114.977H217.469C223.106 -111.277 227.217 -106.568 227.827 -99.4981C227.827 -99.3689 228.133 -99.2632 228.661 -98.8874C229.608 -99.7718 230.451 -100.761 231.174 -101.835C231.625 -102.789 232.364 -103.576 233.288 -104.086C234.211 -104.596 235.271 -104.803 236.318 -104.677C241.838 -104.513 247.381 -104.795 252.889 -104.431C257.508 -103.994 262.101 -103.324 266.653 -102.422C269.177 -101.988 270.023 -100.555 268.766 -98.0888C266.418 -93.5087 263.951 -89.187 259.501 -86.1806C250.622 -80.1677 241.885 -73.9317 233.136 -67.731C232.486 -67.0971 231.935 -66.3685 231.503 -65.5701C232.239 -64.8798 233.089 -64.3234 234.016 -63.926C235.634 -63.6314 237.271 -63.4548 238.914 -63.3975L239.794 -62.1174C238.149 -60.6773 236.398 -59.3623 234.557 -58.1832C233.392 -57.6183 232.054 -57.5257 230.822 -57.9249C227.205 -59.3106 224.821 -58.8291 222.86 -55.4586C222.016 -54.1697 221.712 -52.6007 222.014 -51.0899C222.343 -50.2444 224.504 -49.7629 225.866 -49.7159C228.591 -49.6219 231.339 -49.939 234.087 -50.1034C235.725 -50.0083 237.369 -50.1627 238.961 -50.5615C241.21 -51.4877 243.346 -52.6699 245.326 -54.0846C247.216 -55.3882 249.119 -55.7992 250.904 -54.4252C255.789 -50.6554 261.614 -50.902 267.252 -50.2091C275.472 -49.117 283.611 -47.602 290.904 -43.3742C296.083 -40.3678 296.024 -36.4336 290.774 -33.5681C287.686 -31.877 285.701 -29.4343 285.595 -26.0755C285.356 -21.3565 283.474 -16.8696 280.275 -13.3922C272.971 -4.94832 265.196 3.20192 257.622 11.4931C255.942 13.3369 254.251 15.1572 252.255 17.365C257.61 19.1148 258.89 22.8024 258.761 27.3121C258.667 30.1541 257.586 30.8352 254.885 29.7783C253.325 29.1009 251.8 28.3444 250.317 27.5117C247.968 26.2316 246.148 26.5252 245.42 29.2968C244.879 31.3637 243.541 31.5281 241.803 31.4929C239.064 31.2659 236.311 31.3131 233.582 31.6338C232.267 31.8569 231.233 33.548 230.059 34.5815C231.233 35.7559 232.184 37.7289 233.582 38.1047C235.773 38.4837 238.015 38.4519 240.194 38.0107C245.337 37.3648 250.446 36.5427 255.578 35.8264C259.959 35.2039 263.071 37.1534 264.809 41.0289C266.118 44.1465 267.255 47.334 268.215 50.5766C270 56.061 272.489 60.9112 277.739 64.0233C278.339 64.5255 278.817 65.1576 279.136 65.8718C279.455 66.586 279.608 67.3635 279.583 68.1454C278.831 76.2487 277.234 84.3167 276.964 92.42C276.889 99.5095 277.506 106.589 278.807 113.559C279.594 118.256 282.601 121.639 288.12 121.392C288.524 121.452 288.919 121.562 289.295 121.721C295.249 123.095 298.69 127.358 301.039 132.537C303.149 137.299 306.56 141.37 310.88 144.281C312.139 145.249 313.317 146.317 314.403 147.475C316.376 149.436 316.047 150.928 313.687 152.502C308.461 156.025 308.249 157.692 311.338 163.235C313.875 167.769 316.2 172.419 318.607 177.023C319.711 179.137 318.678 180.123 316.717 180.734C312.724 181.908 312.571 182.495 314.25 186.277C316.411 191.115 318.725 195.919 320.428 200.91C322.953 208.367 322.412 209.295 315.73 213.37C315.442 213.503 315.179 213.686 314.955 213.91C313.381 216.048 310.575 218.197 310.586 220.346C310.586 223.54 314.051 225.043 317.01 226.218C318.76 226.875 319.629 226.288 319.641 224.374C319.641 220.675 321.849 218.678 325.184 218.056C327.458 217.539 329.809 217.459 332.113 217.821C347.38 221.015 360.58 227.216 365.959 243.54L366.064 246.03Z" fill="white"/>
<path opacity="0.74" d="M71.5519 86.8064C76.6135 85.2915 81.0174 83.8 85.5153 82.6843C88.2986 81.9914 88.7449 80.8053 87.3356 78.48C86.8317 77.4559 86.4038 76.3961 86.0555 75.3092C87.9763 75.2971 89.8955 75.4227 91.7983 75.685C94.0649 76.19 95.3215 75.4501 96.3901 73.4302C98.3161 69.6722 100.442 66.0081 102.438 62.3675C104.94 63.1661 107.136 63.7415 109.273 64.5871C111.622 65.5266 112.702 64.4696 113.724 62.4849C116.472 57.1062 115.521 58.1749 120.524 59.4902C121.696 59.678 122.894 59.6301 124.047 59.3493C126.678 58.95 129.543 57.5173 131.833 58.1749C135.192 59.1379 138.222 61.4162 141.146 63.4714C141.815 63.9294 141.627 65.8202 141.616 66.9945C141.616 69.2141 141.205 71.4337 141.31 73.6416C141.44 76.4953 142.356 78.8206 145.515 80.0067C148.345 81.0754 148.639 83.9409 146.395 86.0901C144.152 88.2392 141.557 90.4588 138.962 92.7958C142.837 96.5303 146.936 94.2403 150.799 93.9702C151.034 94.3225 151.351 94.5809 151.34 94.8275C151.034 99.2549 150.647 103.682 150.365 108.122C150.236 110.024 149.249 110.717 147.464 110.635C146.936 110.635 146.407 110.834 145.879 110.811C140.171 110.482 136.037 112.291 133.97 118.209C133.137 120.558 130.447 120.676 128.169 119.537C126.978 118.838 125.854 118.032 124.81 117.129C123.025 115.755 121.287 114.404 119.913 117.622C119.69 117.871 119.41 118.063 119.098 118.182C118.785 118.3 118.448 118.342 118.116 118.303C116.39 117.939 114.722 117.352 113.019 116.847C114.828 111.41 114.57 111.668 110.448 107.452C108.85 105.831 108.322 102.755 108.028 100.324C107.465 95.5556 107.676 95.5321 102.908 96.4834C98.14 97.4346 98.2104 97.4933 97.1065 102.661C96.7659 104.258 97.5998 107.182 94.7577 107.194C91.9157 107.206 88.4865 108.744 85.9851 105.362C81.5459 99.2432 76.6722 93.336 71.5519 86.8064Z" fill="white"/>
</g>
<path d="M236.87 172.384H223.024L121.076 172.443V189.06H126.032V188.908L223.024 188.849H236.87H334.344V188.99H339.312V172.384H236.87ZM330.727 173.864L325.02 179.559L319.312 173.875L330.727 173.864ZM316.153 173.864L310.445 179.559L304.738 173.864H316.153ZM301.579 173.864L295.883 179.571L290.164 173.875L301.579 173.864ZM287.005 173.864L281.309 179.571L275.613 173.875L287.005 173.864ZM272.442 173.864L266.735 179.559L261.027 173.864H272.442ZM257.868 173.864L252.172 179.559L246.465 173.864H257.868ZM236.87 173.864H243.306L237.598 179.571L231.867 173.911L236.87 173.864ZM236.33 180.64L230.223 186.77L224.105 180.652L230.211 174.545L236.33 180.64ZM223.024 173.875H228.544L222.836 179.583L217.141 173.887L223.024 173.875ZM213.97 173.875L208.262 179.571L202.566 173.875H213.97ZM199.396 173.875L193.7 179.583L187.992 173.887L199.396 173.875ZM184.833 173.875L179.137 179.583L173.418 173.875H184.833ZM170.259 173.875L164.563 179.583L158.856 173.887L170.259 173.875ZM122.649 187.533V173.969H156.824L163.577 180.699L156.707 187.475L122.649 187.533ZM158.903 187.533L164.598 181.826L170.306 187.533H158.903ZM165.679 180.746L171.868 174.533L178.092 180.746L171.88 186.946L165.679 180.746ZM173.465 187.522L179.137 181.779L184.845 187.463L173.465 187.522ZM180.194 180.722L186.395 174.51L192.608 180.71L186.407 186.911L180.194 180.722ZM187.992 187.487L193.7 181.779L199.407 187.475L187.992 187.487ZM194.768 180.71L200.969 174.498L207.182 180.71L200.981 186.911L194.768 180.71ZM202.566 187.487L208.262 181.779L213.981 187.487H202.566ZM209.343 180.699L215.543 174.486L221.756 180.699L215.543 186.899L209.343 180.699ZM223.024 187.475H217.152L222.86 181.767L228.556 187.475H223.024ZM236.87 187.475H231.867L237.563 181.767L243.271 187.463L236.87 187.475ZM238.667 180.687L244.868 174.486L251.08 180.687L244.879 186.899L238.667 180.687ZM246.453 187.475L252.161 181.767L257.868 187.475H246.453ZM253.241 180.687L259.442 174.474L265.654 180.687L259.454 186.899L253.241 180.687ZM261.027 187.475L266.747 181.779L272.442 187.475H261.027ZM267.804 180.675L274.004 174.463L280.217 180.675L274.016 186.888L267.804 180.675ZM275.601 187.451L281.309 181.779L287.016 187.487L275.601 187.451ZM282.378 180.675L288.59 174.463L294.791 180.663L288.59 186.864L282.378 180.675ZM290.176 187.451L295.871 181.732L301.579 187.44L290.176 187.451ZM296.952 180.663L303.153 174.451L309.377 180.605L303.164 186.794L296.952 180.663ZM304.738 187.44L310.434 181.732L316.153 187.44H304.738ZM311.514 180.652L317.727 174.439L323.939 180.64L317.727 186.852L311.514 180.652ZM319.312 187.428L325.008 181.72L330.715 187.428H319.312ZM337.832 187.428H332.864L326.1 180.605L332.841 173.864H337.867L337.832 187.428Z" fill="white"/>
<path d="M339.371 188.919V172.313L236.894 172.384H223.012H121.064V189.025H126.008V188.837H223.001H236.847L334.321 188.755V188.908L339.371 188.919ZM330.704 173.84L325.031 179.559L319.312 173.84H330.704ZM316.165 173.84L310.445 179.559L304.679 173.84H316.165ZM301.579 173.84L295.871 179.559L290.152 173.887L301.579 173.84ZM287.005 173.84L281.321 179.512L275.613 173.84H287.005ZM272.419 173.84L266.747 179.548L261.027 173.84H272.419ZM257.88 173.84L252.172 179.548L246.453 173.84H257.88ZM236.858 173.84H243.306L237.587 179.548L231.867 173.922L236.858 173.84ZM228.532 173.84L222.86 179.512L217.14 173.84H228.532ZM213.958 173.84L208.274 179.512L202.508 173.922L213.958 173.84ZM199.407 173.84L193.7 179.559L187.98 173.84H199.407ZM184.833 173.84L179.114 179.559L173.442 173.84H184.833ZM170.259 173.84L164.575 179.559L158.856 173.875L170.259 173.84ZM155.708 173.84L150.001 179.559L144.282 173.84H155.708ZM141.134 173.84L135.415 179.559L129.696 173.958L141.134 173.84ZM122.649 187.545V173.958H127.676L134.428 180.71L127.676 187.451L122.649 187.545ZM129.79 187.545L135.462 181.826L141.146 187.498L129.79 187.545ZM136.578 180.757L142.755 174.533L148.967 180.757L142.755 186.935L136.578 180.757ZM144.364 187.498L150.048 181.826L155.755 187.498H144.364ZM151.117 180.757L157.329 174.533L163.553 180.71L157.329 186.935L151.117 180.757ZM158.903 187.498L164.575 181.779L170.259 187.487L158.903 187.498ZM165.691 180.71L171.868 174.498L178.092 180.71L171.915 186.935L165.691 180.71ZM173.489 187.498L179.196 181.791L184.88 187.498H173.489ZM180.277 180.71L186.454 174.498L192.666 180.71L186.454 186.935L180.277 180.71ZM188.063 187.498L193.7 181.779L199.407 187.487L188.063 187.498ZM194.815 180.71L201.028 174.498L207.252 180.71L201.028 186.935L194.815 180.71ZM202.602 187.498L208.321 181.791L214.04 187.463L202.602 187.498ZM209.401 180.71L215.614 174.498L221.826 180.71L215.614 186.888L209.401 180.71ZM217.187 187.463L222.907 181.744L228.579 187.463H217.187ZM224.163 180.675L230.27 174.58L236.365 180.675L230.27 186.817L224.163 180.675ZM231.961 187.463L237.634 181.744L243.353 187.463H231.961ZM238.714 180.675L244.926 174.463L251.139 180.675L244.926 186.888L238.714 180.675ZM246.535 187.463L252.219 181.744L257.927 187.463H246.535ZM253.288 180.675L259.501 174.463L265.713 180.675L259.501 186.888L253.288 180.675ZM261.074 187.463L266.747 181.779L272.466 187.463H261.074ZM267.862 180.675L274.086 174.463L280.264 180.675L274.086 186.852L267.862 180.675ZM275.66 187.428L281.368 181.744L287.052 187.428H275.66ZM282.448 180.675L288.661 174.463L294.838 180.64L288.661 186.852L282.448 180.675ZM290.234 187.428L295.918 181.709L301.626 187.428H290.234ZM297.022 180.64L303.199 174.463L309.377 180.605L303.153 186.817L297.022 180.64ZM304.82 187.428L310.492 181.709L316.212 187.428H304.82ZM311.573 180.64L317.785 174.416L323.998 180.64L317.785 186.852L311.573 180.64ZM319.359 187.428L325.078 181.709L330.786 187.428H319.359ZM332.864 187.428L326.1 180.605L332.853 173.852H337.879V187.44L332.864 187.428Z" fill="url(#paint0_linear_1_2)"/>
<path d="M236.882 188.849L223.036 188.861L126.055 188.908L126.043 189.06L126.055 189.906L126.043 190.904L223.036 190.845L236.882 190.834L334.415 190.775V189.788V188.943V188.79L236.882 188.849Z" fill="white"/>
<path d="M334.415 189.788V190.775L225.749 190.845H223.036H222.954H221.18L112.115 190.916V189.906H107.923V195.073L221.192 195.003H222.954H223.036H225.749L338.607 194.932V189.788H334.415Z" fill="white"/>
<path d="M334.415 189.788V190.775L225.749 190.845H223.036H222.954H221.18L112.115 190.916V189.906H107.923V195.073L221.192 195.003H222.954H223.036H225.749L338.607 194.932V189.788H334.415Z" fill="url(#paint1_linear_1_2)"/>
<path d="M227.17 299.311L97.8816 326.452L96.4606 319.687L225.749 292.535L227.17 299.311ZM98.9503 324.807L225.549 298.231L224.692 294.191L98.093 320.744L98.9503 324.807Z" fill="white"/>
<path d="M100.759 340.121L97.5997 325.054L226.888 297.926L227.921 302.835L227.311 303.011L100.759 340.121ZM99.2321 326.228L101.804 338.43L226.289 301.954L225.796 299.664L99.2321 326.228Z" fill="white"/>
<path d="M101.933 339.452L100.618 339.053L105.668 322.752L115.427 332.335L118.551 320.732L127.734 329.564L131.199 318.196L140.277 325.641L144.411 315.518L152.761 322.142L155.38 312.864L162.473 318.642L165.268 310.844L172.185 316.692L175.685 308.742L181.698 313.404L184.399 307.145L189.355 311.008L192.197 305.547L196.236 308.765L197.963 304.08L202.343 307.051L204.023 302.788L208.074 305.818L209.636 301.613L213.5 304.326L215.849 300.451L219.431 302.799L221.028 299.265L223.999 301.437L225.091 299.112L226.348 299.687L224.551 303.563L221.591 301.39L220.041 304.855L216.295 302.377L213.911 306.311L210.306 303.774L208.72 308.049L204.633 304.996L203.001 309.176L198.644 306.217L196.871 311.044L192.655 307.673L189.801 313.122L184.962 309.329L182.249 315.588L176.237 310.926L172.713 318.947L165.89 313.181L163.107 320.955L156.131 315.271L153.536 324.526L144.998 317.749L140.852 327.896L131.927 320.58L128.392 332.124L119.291 323.351L116.132 334.978L106.325 325.336L101.933 339.452Z" fill="white"/>
<path d="M106.666 324.349L105.809 324.514L104.493 318.266L105.351 318.09L106.666 324.349Z" fill="white"/>
<path d="M113.43 322.928L112.585 323.105L111.27 316.845L112.115 316.669L113.43 322.928Z" fill="white"/>
<path d="M120.207 321.507L119.349 321.684L118.034 315.424L118.88 315.248L120.207 321.507Z" fill="white"/>
<path d="M126.959 320.086L126.126 320.263L124.81 314.003L125.656 313.827L126.959 320.086Z" fill="white"/>
<path d="M133.736 318.665L132.89 318.842L131.575 312.582L132.42 312.406L133.736 318.665Z" fill="white"/>
<path d="M139.199 310.964L138.359 311.139L139.668 317.404L140.507 317.229L139.199 310.964Z" fill="white"/>
<path d="M147.265 315.823L146.431 315.999L145.115 309.74L145.961 309.564L147.265 315.823Z" fill="white"/>
<path d="M152.748 308.14L151.907 308.308L153.165 314.572L154.006 314.403L152.748 308.14Z" fill="white"/>
<path d="M160.805 312.981L159.96 313.158L158.656 306.898L159.502 306.722L160.805 312.981Z" fill="white"/>
<path d="M167.581 311.56L166.736 311.737L165.421 305.489L166.266 305.301L167.581 311.56Z" fill="white"/>
<path d="M174.346 310.139L173.5 310.316L172.185 304.056L173.031 303.88L174.346 310.139Z" fill="white"/>
<path d="M181.11 308.73L180.265 308.895L178.949 302.647L179.807 302.459L181.11 308.73Z" fill="white"/>
<path d="M187.887 307.297L187.029 307.473L185.737 301.202L186.571 301.038L187.887 307.297Z" fill="white"/>
<path d="M194.651 305.876L193.805 306.064L192.49 299.793L193.336 299.629L194.651 305.876Z" fill="white"/>
<path d="M200.134 298.176L199.294 298.351L200.603 304.616L201.442 304.441L200.134 298.176Z" fill="white"/>
<path d="M208.203 303.034L207.346 303.21L206.031 296.951L206.876 296.775L208.203 303.034Z" fill="white"/>
<path d="M214.956 301.613L214.111 301.789L212.795 295.53L213.653 295.366L214.956 301.613Z" fill="white"/>
<path d="M220.411 293.956L219.561 294.135L220.878 300.398L221.729 300.219L220.411 293.956Z" fill="white"/>
<path d="M246.03 292.582L375.33 319.734L373.968 326.487L244.68 299.358L246.03 292.582ZM373.698 320.768L247.134 294.226L246.277 298.278L372.794 324.854L373.698 320.768Z" fill="white"/>
<path d="M244.48 303.093L243.87 302.917L244.903 298.008L374.191 325.136L371.032 340.157L244.48 303.093ZM245.983 299.652L245.49 301.942L369.975 338.419L372.559 326.228L245.983 299.652Z" fill="white"/>
<path d="M369.858 339.499L371.173 339.1L366.123 322.799L356.376 332.382L353.24 320.779L344.068 329.611L340.604 318.243L331.526 325.688L327.38 315.565L319.03 322.189L316.411 312.911L309.33 318.689L306.523 310.891L299.606 316.739L296.118 308.789L290.093 313.451L287.392 307.192L282.448 311.055L279.594 305.594L275.566 308.812L273.84 304.126L269.448 307.098L267.768 302.823L263.717 305.865L262.155 301.66L258.291 304.373L255.954 300.498L252.36 302.846L250.763 299.311L247.792 301.484L246.712 299.147L245.455 299.734L247.24 303.61L250.199 301.437L251.761 304.902L255.508 302.424L257.88 306.358L261.485 303.821L263.082 308.096L267.158 305.031L268.79 309.223L273.147 306.264L274.92 311.091L279.148 307.72L281.99 313.157L286.84 309.376L289.541 315.635L295.554 310.973L299.077 318.994L305.901 313.228L308.696 321.002L315.66 315.318L318.255 324.573L326.805 317.796L330.938 327.943L339.875 320.627L343.399 332.159L352.5 323.398L355.659 335.025L365.465 325.383L369.858 339.499Z" fill="white"/>
<path d="M365.137 324.396L365.982 324.561L367.297 318.313L366.452 318.137L365.137 324.396Z" fill="white"/>
<path d="M358.372 322.975L359.206 323.152L360.521 316.892L359.687 316.716L358.372 322.975Z" fill="white"/>
<path d="M351.596 321.554L352.441 321.73L353.757 315.471L352.911 315.283L351.596 321.554Z" fill="white"/>
<path d="M344.831 320.133L345.677 320.31L346.992 314.038L346.135 313.874L344.831 320.133Z" fill="white"/>
<path d="M338.055 318.712L338.901 318.889L340.216 312.629L339.371 312.453L338.055 318.712Z" fill="white"/>
<path d="M332.624 311.064L331.315 317.329L332.154 317.505L333.463 311.239L332.624 311.064Z" fill="white"/>
<path d="M324.526 315.87L325.36 316.047L326.675 309.787L325.842 309.611L324.526 315.87Z" fill="white"/>
<path d="M319.044 308.199L317.785 314.463L318.626 314.632L319.884 308.368L319.044 308.199Z" fill="white"/>
<path d="M310.986 313.028L311.831 313.204L313.147 306.945L312.301 306.769L310.986 313.028Z" fill="white"/>
<path d="M304.221 311.607L305.055 311.784L306.37 305.536L305.525 305.348L304.221 311.607Z" fill="white"/>
<path d="M297.445 310.186L298.291 310.363L299.606 304.103L298.76 303.927L297.445 310.186Z" fill="white"/>
<path d="M290.68 308.777L291.526 308.941L292.841 302.682L291.996 302.506L290.68 308.777Z" fill="white"/>
<path d="M283.904 307.344L284.762 307.521L286.065 301.249L285.22 301.085L283.904 307.344Z" fill="white"/>
<path d="M277.14 305.923L277.985 306.111L279.301 299.828L278.455 299.676L277.14 305.923Z" fill="white"/>
<path d="M271.7 298.271L270.391 304.536L271.23 304.712L272.539 298.447L271.7 298.271Z" fill="white"/>
<path d="M263.599 303.081L264.456 303.257L265.772 296.986L264.914 296.822L263.599 303.081Z" fill="white"/>
<path d="M256.835 301.66L257.68 301.836L258.996 295.577L258.138 295.401L256.835 301.66Z" fill="white"/>
<path d="M251.373 293.954L250.055 300.217L250.906 300.396L252.224 294.133L251.373 293.954Z" fill="white"/>
<path d="M227.17 299.311L97.8816 326.452L96.4606 319.687L225.749 292.535L227.17 299.311ZM98.9503 324.807L225.549 298.231L224.692 294.191L98.093 320.744L98.9503 324.807Z" fill="url(#paint2_linear_1_2)"/>
<path d="M100.759 340.121L97.5997 325.054L226.888 297.926L227.921 302.835L227.311 303.011L100.759 340.121ZM99.2321 326.228L101.804 338.43L226.289 301.954L225.796 299.664L99.2321 326.228Z" fill="url(#paint3_linear_1_2)"/>
<path d="M101.933 339.452L100.618 339.053L105.668 322.752L115.427 332.335L118.551 320.732L127.734 329.564L131.199 318.196L140.277 325.641L144.411 315.518L152.761 322.142L155.38 312.864L162.473 318.642L165.268 310.844L172.185 316.692L175.685 308.742L181.698 313.404L184.399 307.145L189.355 311.008L192.197 305.547L196.236 308.765L197.963 304.08L202.343 307.051L204.023 302.788L208.074 305.818L209.636 301.613L213.5 304.326L215.849 300.451L219.431 302.799L221.028 299.265L223.999 301.437L225.091 299.112L226.348 299.687L224.551 303.563L221.591 301.39L220.041 304.855L216.295 302.377L213.911 306.311L210.306 303.774L208.72 308.049L204.633 304.996L203.001 309.176L198.644 306.217L196.871 311.044L192.655 307.673L189.801 313.122L184.962 309.329L182.249 315.588L176.237 310.926L172.713 318.947L165.89 313.181L163.107 320.955L156.131 315.271L153.536 324.526L144.998 317.749L140.852 327.896L131.927 320.58L128.392 332.124L119.291 323.351L116.132 334.978L106.325 325.336L101.933 339.452Z" fill="url(#paint4_linear_1_2)"/>
<path d="M106.666 324.349L105.809 324.514L104.493 318.266L105.351 318.09L106.666 324.349Z" fill="url(#paint5_linear_1_2)"/>
<path d="M113.43 322.928L112.585 323.105L111.27 316.845L112.115 316.669L113.43 322.928Z" fill="url(#paint6_linear_1_2)"/>
<path d="M120.207 321.507L119.349 321.684L118.034 315.424L118.88 315.248L120.207 321.507Z" fill="url(#paint7_linear_1_2)"/>
<path d="M126.959 320.086L126.126 320.263L124.81 314.003L125.656 313.827L126.959 320.086Z" fill="url(#paint8_linear_1_2)"/>
<path d="M133.736 318.665L132.89 318.842L131.575 312.582L132.42 312.406L133.736 318.665Z" fill="url(#paint9_linear_1_2)"/>
<path d="M139.199 310.964L138.359 311.139L139.668 317.404L140.507 317.229L139.199 310.964Z" fill="url(#paint10_linear_1_2)"/>
<path d="M147.265 315.823L146.431 315.999L145.115 309.74L145.961 309.564L147.265 315.823Z" fill="url(#paint11_linear_1_2)"/>
<path d="M152.748 308.14L151.907 308.308L153.165 314.572L154.006 314.403L152.748 308.14Z" fill="url(#paint12_linear_1_2)"/>
<path d="M160.805 312.981L159.96 313.158L158.656 306.898L159.502 306.722L160.805 312.981Z" fill="url(#paint13_linear_1_2)"/>
<path d="M167.581 311.56L166.736 311.737L165.421 305.489L166.266 305.301L167.581 311.56Z" fill="url(#paint14_linear_1_2)"/>
<path d="M174.346 310.139L173.5 310.316L172.185 304.056L173.031 303.88L174.346 310.139Z" fill="url(#paint15_linear_1_2)"/>
<path d="M181.11 308.73L180.265 308.895L178.949 302.647L179.807 302.459L181.11 308.73Z" fill="url(#paint16_linear_1_2)"/>
<path d="M187.887 307.297L187.029 307.473L185.737 301.202L186.571 301.038L187.887 307.297Z" fill="url(#paint17_linear_1_2)"/>
<path d="M194.651 305.876L193.805 306.064L192.49 299.793L193.336 299.629L194.651 305.876Z" fill="url(#paint18_linear_1_2)"/>
<path d="M200.134 298.176L199.294 298.351L200.603 304.616L201.442 304.441L200.134 298.176Z" fill="url(#paint19_linear_1_2)"/>
<path d="M208.203 303.034L207.346 303.21L206.031 296.951L206.876 296.775L208.203 303.034Z" fill="url(#paint20_linear_1_2)"/>
<path d="M214.956 301.613L214.111 301.789L212.795 295.53L213.653 295.366L214.956 301.613Z" fill="url(#paint21_linear_1_2)"/>
<path d="M220.411 293.956L219.561 294.135L220.878 300.398L221.729 300.219L220.411 293.956Z" fill="url(#paint22_linear_1_2)"/>
<path d="M246.03 292.582L375.33 319.734L373.968 326.487L244.68 299.358L246.03 292.582ZM373.698 320.768L247.134 294.226L246.277 298.278L372.794 324.854L373.698 320.768Z" fill="url(#paint23_linear_1_2)"/>
<path d="M244.48 303.093L243.87 302.917L244.903 298.008L374.191 325.136L371.032 340.157L244.48 303.093ZM245.983 299.652L245.49 301.942L369.975 338.419L372.559 326.228L245.983 299.652Z" fill="url(#paint24_linear_1_2)"/>
<path d="M369.858 339.499L371.173 339.1L366.123 322.799L356.376 332.382L353.24 320.779L344.068 329.611L340.604 318.243L331.526 325.688L327.38 315.565L319.03 322.189L316.411 312.911L309.33 318.689L306.523 310.891L299.606 316.739L296.118 308.789L290.093 313.451L287.392 307.192L282.448 311.055L279.594 305.594L275.566 308.812L273.84 304.126L269.448 307.098L267.768 302.823L263.717 305.865L262.155 301.66L258.291 304.373L255.954 300.498L252.36 302.846L250.763 299.311L247.792 301.484L246.712 299.147L245.455 299.734L247.24 303.61L250.199 301.437L251.761 304.902L255.508 302.424L257.88 306.358L261.485 303.821L263.082 308.096L267.158 305.031L268.79 309.223L273.147 306.264L274.92 311.091L279.148 307.72L281.99 313.157L286.84 309.376L289.541 315.635L295.554 310.973L299.077 318.994L305.901 313.228L308.696 321.002L315.66 315.318L318.255 324.573L326.805 317.796L330.938 327.943L339.875 320.627L343.399 332.159L352.5 323.398L355.659 335.025L365.465 325.383L369.858 339.499Z" fill="url(#paint25_linear_1_2)"/>
<path d="M365.137 324.396L365.982 324.561L367.297 318.313L366.452 318.137L365.137 324.396Z" fill="url(#paint26_linear_1_2)"/>
<path d="M358.372 322.975L359.206 323.152L360.521 316.892L359.687 316.716L358.372 322.975Z" fill="url(#paint27_linear_1_2)"/>
<path d="M351.596 321.554L352.441 321.73L353.757 315.471L352.911 315.283L351.596 321.554Z" fill="url(#paint28_linear_1_2)"/>
<path d="M344.831 320.133L345.677 320.31L346.992 314.038L346.135 313.874L344.831 320.133Z" fill="url(#paint29_linear_1_2)"/>
<path d="M338.055 318.712L338.901 318.889L340.216 312.629L339.371 312.453L338.055 318.712Z" fill="url(#paint30_linear_1_2)"/>
<path d="M332.624 311.064L331.315 317.329L332.154 317.505L333.463 311.239L332.624 311.064Z" fill="url(#paint31_linear_1_2)"/>
<path d="M324.526 315.87L325.36 316.047L326.675 309.787L325.842 309.611L324.526 315.87Z" fill="url(#paint32_linear_1_2)"/>
<path d="M319.044 308.199L317.785 314.463L318.626 314.632L319.884 308.368L319.044 308.199Z" fill="url(#paint33_linear_1_2)"/>
<path d="M310.986 313.028L311.831 313.204L313.147 306.945L312.301 306.769L310.986 313.028Z" fill="url(#paint34_linear_1_2)"/>
<path d="M304.221 311.607L305.055 311.784L306.37 305.536L305.525 305.348L304.221 311.607Z" fill="url(#paint35_linear_1_2)"/>
<path d="M297.445 310.186L298.291 310.363L299.606 304.103L298.76 303.927L297.445 310.186Z" fill="url(#paint36_linear_1_2)"/>
<path d="M290.68 308.777L291.526 308.941L292.841 302.682L291.996 302.506L290.68 308.777Z" fill="url(#paint37_linear_1_2)"/>
<path d="M283.904 307.344L284.762 307.521L286.065 301.249L285.22 301.085L283.904 307.344Z" fill="url(#paint38_linear_1_2)"/>
<path d="M277.14 305.923L277.985 306.111L279.301 299.828L278.455 299.676L277.14 305.923Z" fill="url(#paint39_linear_1_2)"/>
<path d="M271.7 298.271L270.391 304.536L271.23 304.712L272.539 298.447L271.7 298.271Z" fill="url(#paint40_linear_1_2)"/>
<path d="M263.599 303.081L264.456 303.257L265.772 296.986L264.914 296.822L263.599 303.081Z" fill="url(#paint41_linear_1_2)"/>
<path d="M256.835 301.66L257.68 301.836L258.996 295.577L258.138 295.401L256.835 301.66Z" fill="url(#paint42_linear_1_2)"/>
<path d="M251.373 293.954L250.055 300.217L250.906 300.396L252.224 294.133L251.373 293.954Z" fill="url(#paint43_linear_1_2)"/>
<path d="M96.2257 80.2651L109.99 136.835H96.261L82.5441 136.847L96.2257 80.2651Z" fill="white"/>
<path d="M96.2257 80.2651L109.99 136.835H96.261L82.5441 136.847L96.2257 80.2651Z" fill="url(#paint44_linear_1_2)"/>
<path d="M72.8465 134.835L71.3081 134.842L71.628 202.733L73.1664 202.726L72.8465 134.835Z" fill="white"/>
<path d="M68.1227 218.361L124.493 218.326L124.481 200.781L68.1109 200.816L68.1227 218.361Z" fill="white"/>
<path d="M68.1227 218.361L124.493 218.326L124.481 200.781L68.1109 200.816L68.1227 218.361Z" fill="url(#paint45_linear_1_2)"/>
<path d="M126.807 134.815H65.7739V202.707H126.807V134.815Z" fill="white"/>
<path d="M126.807 134.815H65.7739V202.707H126.807V134.815Z" fill="url(#paint46_linear_1_2)"/>
<path d="M98.0578 146.489H94.699V158.42H98.0578V146.489Z" fill="url(#paint47_linear_1_2)"/>
<path d="M90.5652 146.489H87.2065V158.42H90.5652V146.489Z" fill="url(#paint48_linear_1_2)"/>
<path d="M105.891 146.489H102.532V158.42H105.891V146.489Z" fill="url(#paint49_linear_1_2)"/>
<path d="M97.7994 179.325H94.4407V191.256H97.7994V179.325Z" fill="url(#paint50_linear_1_2)"/>
<path d="M90.3068 179.325H86.9481V191.256H90.3068V179.325Z" fill="url(#paint51_linear_1_2)"/>
<path d="M105.633 179.325H102.274V191.256H105.633V179.325Z" fill="url(#paint52_linear_1_2)"/>
<path d="M121.898 213.382H70.7885V305.677H121.898V213.382Z" fill="white"/>
<path d="M121.898 213.382H70.7885V305.677H121.898V213.382Z" fill="url(#paint53_linear_1_2)"/>
<path d="M97.9638 256.975H94.6051V268.907H97.9638V256.975Z" fill="url(#paint54_linear_1_2)"/>
<path d="M90.4713 256.975H87.1125V268.907H90.4713V256.975Z" fill="url(#paint55_linear_1_2)"/>
<path d="M105.797 256.975H102.438V268.907H105.797V256.975Z" fill="url(#paint56_linear_1_2)"/>
<path d="M97.9638 290.821H94.6051V302.752H97.9638V290.821Z" fill="url(#paint57_linear_1_2)"/>
<path d="M90.4713 290.821H87.1125V302.752H90.4713V290.821Z" fill="url(#paint58_linear_1_2)"/>
<path d="M105.797 290.821H102.438V302.752H105.797V290.821Z" fill="url(#paint59_linear_1_2)"/>
<path d="M97.9521 223.341H94.5933V235.272H97.9521V223.341Z" fill="url(#paint60_linear_1_2)"/>
<path d="M105.656 223.341H102.297V235.272H105.656V223.341Z" fill="url(#paint61_linear_1_2)"/>
<path d="M90.3303 223.341H86.9716V235.272H90.3303V223.341Z" fill="url(#paint62_linear_1_2)"/>
<path d="M73.748 107.757L81.7691 134.827H73.7597H65.7504L73.748 107.757Z" fill="white"/>
<path d="M118.75 107.71L126.783 134.792L118.774 134.804H110.765L118.75 107.71Z" fill="white"/>
<path d="M73.748 107.757L81.7691 134.827H73.7597H65.7504L73.748 107.757Z" fill="url(#paint63_linear_1_2)"/>
<path d="M118.75 107.71L126.783 134.792L118.774 134.804H110.765L118.75 107.71Z" fill="url(#paint64_linear_1_2)"/>
<path d="M84.4466 122.825H80.6651V135.332H84.4466V122.825Z" fill="white"/>
<path d="M111.88 122.813H108.099V135.32H111.88V122.813Z" fill="white"/>
<path d="M101.334 223.164H106.678V235.413H101.346L101.334 223.164ZM105.151 224.691H102.861V233.898H105.151V224.691Z" fill="white"/>
<path d="M102.098 230.07L105.914 230.058V228.531L102.098 228.543V230.07Z" fill="white"/>
<path d="M85.9499 223.176H91.2933V235.437H85.9616L85.9499 223.176ZM89.7666 224.703H87.4766V233.898H89.7666V224.703Z" fill="white"/>
<path d="M86.7249 230.07H90.53V228.543H86.7132L86.7249 230.07Z" fill="white"/>
<path d="M93.0666 221.814H99.4788V236.799H93.0784L93.0666 221.814ZM97.9521 223.329H94.5933V235.272H97.9873L97.9521 223.329Z" fill="white"/>
<path d="M98.7154 228.543H93.83V230.07H98.7154V228.543Z" fill="white"/>
<path d="M101.299 146.277H106.631V158.526H101.287L101.299 146.277ZM105.104 147.804H102.826V156.999H105.116L105.104 147.804Z" fill="white"/>
<path d="M102.062 153.171H105.879V151.633L102.062 151.644V153.171Z" fill="white"/>
<path d="M85.9146 146.289H91.2463V158.526H85.9029L85.9146 146.289ZM89.7314 147.816H87.3826V157.011H89.7666L89.7314 147.816Z" fill="white"/>
<path d="M90.4947 151.656H86.678V153.183H90.4947V151.656Z" fill="white"/>
<path d="M93.0197 144.915H99.4318V159.888H93.0314L93.0197 144.915ZM97.9169 146.442H94.5581V158.374H97.9169V146.442Z" fill="white"/>
<path d="M98.6802 151.644H93.7948V153.171H98.6802V151.644Z" fill="white"/>
<path d="M101.311 179.195H106.654V191.444H101.323L101.311 179.195ZM105.128 180.722H102.779V189.929H105.057L105.128 180.722Z" fill="white"/>
<path d="M105.903 184.562H102.086V186.089H105.903V184.562Z" fill="white"/>
<path d="M85.9264 179.195H91.2698V191.456H85.9264V179.195ZM89.7431 180.722H87.4179V189.929H89.7666L89.7431 180.722Z" fill="white"/>
<path d="M90.5065 184.562H86.6897V186.089H90.5065V184.562Z" fill="white"/>
<path d="M93.0549 177.845H99.4553V192.818H93.0549V177.845ZM97.9286 179.36H94.5816V191.292H97.9873L97.9286 179.36Z" fill="white"/>
<path d="M98.7037 184.562H93.8182V186.089H98.7037V184.562Z" fill="white"/>
<path d="M101.358 256.799H106.69V269.048H101.358V256.799ZM105.175 258.325H102.826V267.509H105.175V258.325Z" fill="white"/>
<path d="M105.926 262.166H102.121V263.692H105.926V262.166Z" fill="white"/>
<path d="M85.9734 256.81H91.3051V269.059H85.9616L85.9734 256.81ZM89.7901 258.337H87.4413V267.509H89.7901V258.337Z" fill="white"/>
<path d="M90.5535 262.177H86.7367V263.704H90.5535V262.177Z" fill="white"/>
<path d="M93.0901 255.448H99.4906V270.433H93.0901V255.448ZM97.9873 256.94H94.6286V268.871H97.9873V256.94Z" fill="white"/>
<path d="M93.8652 263.704L98.7389 263.692V262.177H93.8652V263.704Z" fill="white"/>
<path d="M101.381 290.868H106.713V303.128H101.37L101.381 290.868ZM105.186 292.394H102.908V301.566H105.198L105.186 292.394Z" fill="white"/>
<path d="M105.961 296.246H102.145V297.773H105.961V296.246Z" fill="white"/>
<path d="M85.9851 290.879H91.3285V303.14H85.9851V290.879ZM89.8136 292.406H87.4648V301.566H89.7666L89.8136 292.406Z" fill="white"/>
<path d="M90.5769 296.258H86.7602V297.785H90.5769V296.258Z" fill="white"/>
<path d="M93.1136 289.505H99.514V304.49H93.1136V289.505ZM97.9873 290.997H94.6403V302.917H97.9873V290.997Z" fill="white"/>
<path d="M98.7507 296.246H93.877V297.773H98.7507V296.246Z" fill="white"/>
<path d="M126.795 166.324H65.7739V171.621H126.795V166.324Z" fill="white"/>
<path d="M126.795 166.324H65.7739V171.621H126.795V166.324Z" fill="url(#paint65_linear_1_2)"/>
<path d="M124.54 302.635H68.1814V323.997H124.54V302.635Z" fill="white"/>
<path d="M124.54 302.635H68.1814V323.997H124.54V302.635Z" fill="url(#paint66_linear_1_2)"/>
<path d="M129.555 319.029H63.202V355.388H129.555V319.029Z" fill="white"/>
<path d="M129.555 319.029H63.202V355.388H129.555V319.029Z" fill="url(#paint67_linear_1_2)"/>
<path d="M364.913 80.2651L378.665 136.835H364.949L351.232 136.847L364.913 80.2651Z" fill="white"/>
<path d="M364.913 80.2651L378.665 136.835H364.949L351.232 136.847L364.913 80.2651Z" fill="url(#paint68_linear_1_2)"/>
<path d="M341.531 134.849L339.993 134.856L340.313 202.747L341.851 202.739L341.531 134.849Z" fill="white"/>
<path d="M336.81 218.361L393.181 218.326L393.169 200.781L336.799 200.816L336.81 218.361Z" fill="white"/>
<path d="M336.81 218.361L393.181 218.326L393.169 200.781L336.799 200.816L336.81 218.361Z" fill="url(#paint69_linear_1_2)"/>
<path d="M395.483 134.815H334.45V202.707H395.483V134.815Z" fill="white"/>
<path d="M395.483 134.815H334.45V202.707H395.483V134.815Z" fill="url(#paint70_linear_1_2)"/>
<path d="M366.745 146.489H363.387V158.42H366.745V146.489Z" fill="url(#paint71_linear_1_2)"/>
<path d="M359.253 146.489H355.894V158.42H359.253V146.489Z" fill="url(#paint72_linear_1_2)"/>
<path d="M374.579 146.489H371.22V158.42H374.579V146.489Z" fill="url(#paint73_linear_1_2)"/>
<path d="M366.487 179.325H363.128V191.256H366.487V179.325Z" fill="url(#paint74_linear_1_2)"/>
<path d="M358.994 179.325H355.636V191.256H358.994V179.325Z" fill="url(#paint75_linear_1_2)"/>
<path d="M374.32 179.325H370.962V191.256H374.32V179.325Z" fill="url(#paint76_linear_1_2)"/>
<path d="M390.574 213.382H339.464V305.677H390.574V213.382Z" fill="white"/>
<path d="M390.574 213.382H339.464V305.677H390.574V213.382Z" fill="url(#paint77_linear_1_2)"/>
<path d="M366.64 256.975H363.281V268.907H366.64V256.975Z" fill="url(#paint78_linear_1_2)"/>
<path d="M359.147 256.975H355.788V268.907H359.147V256.975Z" fill="url(#paint79_linear_1_2)"/>
<path d="M374.473 256.975H371.114V268.907H374.473V256.975Z" fill="url(#paint80_linear_1_2)"/>
<path d="M366.64 290.821H363.281V302.752H366.64V290.821Z" fill="url(#paint81_linear_1_2)"/>
<path d="M359.147 290.821H355.788V302.752H359.147V290.821Z" fill="url(#paint82_linear_1_2)"/>
<path d="M374.473 290.821H371.114V302.752H374.473V290.821Z" fill="url(#paint83_linear_1_2)"/>
<path d="M366.64 223.341H363.281V235.272H366.64V223.341Z" fill="url(#paint84_linear_1_2)"/>
<path d="M374.332 223.341H370.973V235.272H374.332V223.341Z" fill="url(#paint85_linear_1_2)"/>
<path d="M359.006 223.341H355.648V235.272H359.006V223.341Z" fill="url(#paint86_linear_1_2)"/>
<path d="M342.424 107.757L350.457 134.827H342.447H334.426L342.424 107.757Z" fill="white"/>
<path d="M387.438 107.71L395.459 134.792L387.45 134.804H379.441L387.438 107.71Z" fill="white"/>
<path d="M342.424 107.757L350.457 134.827H342.447H334.426L342.424 107.757Z" fill="url(#paint87_linear_1_2)"/>
<path d="M387.438 107.71L395.459 134.792L387.45 134.804H379.441L387.438 107.71Z" fill="url(#paint88_linear_1_2)"/>
<path d="M353.123 122.825H349.341V135.332H353.123V122.825Z" fill="white"/>
<path d="M380.556 122.813H376.775V135.32H380.556V122.813Z" fill="white"/>
<path d="M370.01 223.164H375.354V235.413H370.01V223.164ZM373.827 224.691H371.537V233.898H373.886L373.827 224.691Z" fill="white"/>
<path d="M370.785 230.07L374.59 230.058V228.531L370.785 228.543V230.07Z" fill="white"/>
<path d="M354.626 223.176H359.969V235.437H354.626V223.176ZM358.454 224.703H356.106V233.898H358.454V224.703Z" fill="white"/>
<path d="M355.401 230.07H359.206L359.218 228.543H355.401V230.07Z" fill="white"/>
<path d="M361.743 221.814H368.155V236.799H361.754L361.743 221.814ZM366.628 223.329H363.281V235.272H366.64L366.628 223.329Z" fill="white"/>
<path d="M367.403 228.543H362.518V230.07H367.403V228.543Z" fill="white"/>
<path d="M369.975 146.277H375.318V158.526H369.975V146.277ZM373.792 147.804H371.443V156.999H373.721L373.792 147.804Z" fill="white"/>
<path d="M370.75 153.171H374.555V151.633L370.738 151.644L370.75 153.171Z" fill="white"/>
<path d="M354.591 146.289H359.934V158.526H354.591V146.289ZM358.407 147.816H356.059V157.011H358.407V147.816Z" fill="white"/>
<path d="M359.182 151.656H355.366V153.183H359.182V151.656Z" fill="white"/>
<path d="M361.707 144.915H368.096V159.888H361.696L361.707 144.915ZM366.593 146.442H363.234V158.374H366.593V146.442Z" fill="white"/>
<path d="M367.368 151.644H362.482V153.171H367.368V151.644Z" fill="white"/>
<path d="M369.999 179.195H375.342V191.444H369.999V179.195ZM373.804 180.722H371.525V189.929H373.804V180.722Z" fill="white"/>
<path d="M374.579 184.562H370.762V186.089H374.579V184.562Z" fill="white"/>
<path d="M354.614 179.195H359.958V191.456H354.614V179.195ZM358.431 180.722H356.082V189.929H358.431V180.722Z" fill="white"/>
<path d="M359.194 184.562H355.377V186.089H359.194V184.562Z" fill="white"/>
<path d="M361.731 177.845H368.096V192.818H361.696L361.731 177.845ZM366.616 179.36H363.258V191.292H366.616V179.36Z" fill="white"/>
<path d="M367.38 184.562H362.494V186.089H367.38V184.562Z" fill="white"/>
<path d="M370.034 256.799H375.377V269.048H370.045L370.034 256.799ZM373.85 258.325H371.619V267.509H373.909L373.85 258.325Z" fill="white"/>
<path d="M374.614 262.166H370.809V263.692H374.614V262.166Z" fill="white"/>
<path d="M354.649 256.81H359.993V269.059H354.649V256.81ZM358.466 258.337H356.176V267.509H358.525L358.466 258.337Z" fill="white"/>
<path d="M359.241 262.177H355.424V263.704H359.241V262.177Z" fill="white"/>
<path d="M361.778 255.448H368.178V270.433H361.79L361.778 255.448ZM366.651 256.963H363.293V268.895H366.64L366.651 256.963Z" fill="white"/>
<path d="M362.541 263.704L367.415 263.692V262.177H362.541V263.704Z" fill="white"/>
<path d="M370.057 290.868H375.401V303.128H370.069L370.057 290.868ZM373.862 292.394H371.619V301.566H373.909L373.862 292.394Z" fill="white"/>
<path d="M374.649 296.246H370.832V297.773H374.649V296.246Z" fill="white"/>
<path d="M354.673 290.879H360.016V303.14H354.661L354.673 290.879ZM358.49 292.406H356.141V301.566H358.431L358.49 292.406Z" fill="white"/>
<path d="M359.253 296.258H355.436V297.785H359.253V296.258Z" fill="white"/>
<path d="M361.79 289.505H368.19V304.49H361.778L361.79 289.505ZM366.675 291.032H363.316V302.952H366.663L366.675 291.032Z" fill="white"/>
<path d="M367.438 296.246H362.565V297.773H367.438V296.246Z" fill="white"/>
<path d="M395.471 166.324H334.45V171.621H395.471V166.324Z" fill="white"/>
<path d="M395.471 166.324H334.45V171.621H395.471V166.324Z" fill="url(#paint89_linear_1_2)"/>
<path d="M393.228 302.635H336.869V323.997H393.228V302.635Z" fill="white"/>
<path d="M393.228 302.635H336.869V323.997H393.228V302.635Z" fill="url(#paint90_linear_1_2)"/>
<path d="M398.242 319.029H331.89V355.388H398.242V319.029Z" fill="white"/>
<path d="M398.242 319.029H331.89V355.388H398.242V319.029Z" fill="url(#paint91_linear_1_2)"/>
<g clip-path="url(#clip2_1_2)">
<path d="M351.866 36.8998L350.969 39.815L350.072 42.7302L345.907 41.4482L347.072 47.0771L351.31 67.5346L346.575 70.1339L341.557 68.6081L334.533 68.1891L328.94 67.3306L304.489 58.4492L304.548 52.8803L309.45 50.2861L308.907 38.7214L318.083 35.4803L318.085 35.4741L319.742 31.4181L352.255 23.1954C353.532 22.8722 354.865 23.4645 355.481 24.6288L365.241 43.0692L351.866 36.8998Z" fill="#D64394"/>
<path d="M313.293 55.5715L318.195 52.9773L317.652 41.4125L326.828 38.1714L326.83 38.1653L328.487 34.1093L356.72 26.9693L355.481 24.6281C354.864 23.4636 353.532 22.8716 352.255 23.1946L319.741 31.4174L318.085 35.4734L318.083 35.4795L308.906 38.7206L309.449 50.2854L304.548 52.8796L304.488 58.4484L313.206 63.7716L313.293 55.5715Z" fill="#BC3987"/>
<path d="M345.907 41.448L344.623 35.2514L350.072 42.73" fill="#BC3987"/>
<path d="M351.866 36.8998L352.593 34.5405L354.193 37.974L351.866 36.8998Z" fill="#BC3987"/>
<path d="M340.113 74.3909C338.415 73.6948 336.535 72.9749 334.401 72.2267L334.659 64.3026L334.708 62.7723L345.599 64.9075L345.679 66.4409L346.225 77.138C344.401 76.2489 342.426 75.3421 340.113 74.3909Z" fill="#CCCCCC"/>
<path d="M351.31 67.5342L353.975 80.4042L350.644 79.3786C349.208 78.636 347.772 77.8951 346.224 77.1405L346.225 77.1384L345.679 66.4413L351.31 67.5342Z" fill="#F7B239"/>
<path d="M334.401 72.2271C332.536 71.5707 330.475 70.8907 328.172 70.1818C321.588 68.1551 316.776 67.0431 312.725 66.3271C309.666 65.7845 307.044 65.4675 304.418 65.1494L304.488 58.4487L312.467 59.9973L334.659 64.3031L334.401 72.2271Z" fill="#F7B239"/>
<path d="M312.725 66.3269C309.666 65.7843 307.044 65.4673 304.418 65.1492L304.489 58.4485L312.467 59.9971L312.725 66.3269Z" fill="#E09B2D"/>
<path d="M344.593 77.2218L344.034 66.2659L336.28 64.7457L336.035 72.2803L332.768 72.1738L333.075 62.7196C333.091 62.2406 333.316 61.7927 333.691 61.4941C334.066 61.1956 334.553 61.0767 335.023 61.1691L345.914 63.3042C346.65 63.4467 347.192 64.0745 347.231 64.8231L347.857 77.0553C347.867 77.2459 347.843 77.4366 347.786 77.6193L346.221 77.1388L344.593 77.2218Z" fill="#E09B2D"/>
<path d="M339.632 75.9528C338.958 75.7452 338.471 75.1135 338.48 74.3723L338.536 69.45C338.546 68.5474 339.286 67.8246 340.188 67.8348C341.09 67.8446 341.814 68.5851 341.804 69.4872L341.747 74.4095C341.737 75.3121 340.997 76.0349 340.095 76.0247C339.934 76.0232 339.778 75.9979 339.632 75.9528Z" fill="#666666"/>
<path d="M372.635 90.1371C360.939 86.5368 355.324 83.6358 349.894 80.8302C348.374 80.0441 346.996 79.3347 345.508 78.6093C345.483 78.597 345.458 78.5844 345.434 78.571C343.41 77.5853 341.52 76.7365 339.492 75.9023C337.684 75.1615 335.842 74.4633 333.861 73.769C331.953 73.0979 329.878 72.4163 327.691 71.7433C316.274 68.2289 310.42 67.5209 304.222 66.7713C298.154 66.0374 291.88 65.2785 280.184 61.6782C279.321 61.4127 278.837 60.4982 279.103 59.6358C279.368 58.7734 280.283 58.2893 281.145 58.5549C292.562 62.0693 298.416 62.7773 304.614 63.5269C310.682 64.2607 316.957 65.0196 328.653 68.6199C330.88 69.3056 332.997 70.0006 334.944 70.6855C336.977 71.3981 338.871 72.1156 340.733 72.879C342.854 73.7512 344.826 74.6378 346.941 75.67C346.966 75.6822 346.991 75.6949 347.015 75.7085C348.507 76.4368 349.882 77.1451 351.394 77.9273C356.94 80.7927 362.179 83.4994 373.596 87.0138C374.459 87.2793 374.943 88.1938 374.677 89.0562C374.412 89.9186 373.497 90.4027 372.635 90.1371Z" fill="#D64394"/>
</g>
</g>
</g>
<defs>
<linearGradient id="paint0_linear_1_2" x1="242.073" y1="139.478" x2="213.265" y2="239.582" gradientUnits="userSpaceOnUse">
<stop stop-color="#010101" stop-opacity="0"/>
<stop offset="0.95" stop-color="#010101"/>
</linearGradient>
<linearGradient id="paint1_linear_1_2" x1="223.846" y1="168.943" x2="222.496" y2="223.493" gradientUnits="userSpaceOnUse">
<stop stop-color="#010101" stop-opacity="0"/>
<stop offset="0.95" stop-color="#010101"/>
</linearGradient>
<linearGradient id="paint2_linear_1_2" x1="167.476" y1="206.159" x2="150.189" y2="521.588" gradientUnits="userSpaceOnUse">
<stop stop-color="#010101" stop-opacity="0"/>
<stop offset="0.95" stop-color="#010101"/>
</linearGradient>
<linearGradient id="paint3_linear_1_2" x1="168.662" y1="206.218" x2="151.375" y2="521.658" gradientUnits="userSpaceOnUse">
<stop stop-color="#010101" stop-opacity="0"/>
<stop offset="0.95" stop-color="#010101"/>
</linearGradient>
<linearGradient id="paint4_linear_1_2" x1="169.672" y1="206.277" x2="152.397" y2="521.716" gradientUnits="userSpaceOnUse">
<stop stop-color="#010101" stop-opacity="0"/>
<stop offset="0.95" stop-color="#010101"/>
</linearGradient>
<linearGradient id="paint5_linear_1_2" x1="112.056" y1="203.116" x2="94.7689" y2="518.56" gradientUnits="userSpaceOnUse">
<stop stop-color="#010101" stop-opacity="0"/>
<stop offset="0.95" stop-color="#010101"/>
</linearGradient>
<linearGradient id="paint6_linear_1_2" x1="118.727" y1="203.493" x2="101.44" y2="518.922" gradientUnits="userSpaceOnUse">
<stop stop-color="#010101" stop-opacity="0"/>
<stop offset="0.95" stop-color="#010101"/>
</linearGradient>
<linearGradient id="paint7_linear_1_2" x1="125.397" y1="203.857" x2="108.11" y2="519.287" gradientUnits="userSpaceOnUse">
<stop stop-color="#010101" stop-opacity="0"/>
<stop offset="0.95" stop-color="#010101"/>
</linearGradient>
<linearGradient id="paint8_linear_1_2" x1="132.068" y1="204.221" x2="114.781" y2="519.651" gradientUnits="userSpaceOnUse">
<stop stop-color="#010101" stop-opacity="0"/>
<stop offset="0.95" stop-color="#010101"/>
</linearGradient>
<linearGradient id="paint9_linear_1_2" x1="138.739" y1="204.584" x2="121.451" y2="520.029" gradientUnits="userSpaceOnUse">
<stop stop-color="#010101" stop-opacity="0"/>
<stop offset="0.95" stop-color="#010101"/>
</linearGradient>
<linearGradient id="paint10_linear_1_2" x1="145.401" y1="204.945" x2="128.113" y2="520.374" gradientUnits="userSpaceOnUse">
<stop stop-color="#010101" stop-opacity="0"/>
<stop offset="0.95" stop-color="#010101"/>
</linearGradient>
<linearGradient id="paint11_linear_1_2" x1="152.08" y1="205.314" x2="134.804" y2="520.753" gradientUnits="userSpaceOnUse">
<stop stop-color="#010101" stop-opacity="0"/>
<stop offset="0.95" stop-color="#010101"/>
</linearGradient>
<linearGradient id="paint12_linear_1_2" x1="158.751" y1="205.683" x2="141.464" y2="521.11" gradientUnits="userSpaceOnUse">
<stop stop-color="#010101" stop-opacity="0"/>
<stop offset="0.95" stop-color="#010101"/>
</linearGradient>
<linearGradient id="paint13_linear_1_2" x1="165.421" y1="206.042" x2="148.133" y2="521.482" gradientUnits="userSpaceOnUse">
<stop stop-color="#010101" stop-opacity="0"/>
<stop offset="0.95" stop-color="#010101"/>
</linearGradient>
<linearGradient id="paint14_linear_1_2" x1="172.091" y1="206.418" x2="154.816" y2="521.846" gradientUnits="userSpaceOnUse">
<stop stop-color="#010101" stop-opacity="0"/>
<stop offset="0.95" stop-color="#010101"/>
</linearGradient>
<linearGradient id="paint15_linear_1_2" x1="178.762" y1="206.781" x2="161.474" y2="522.211" gradientUnits="userSpaceOnUse">
<stop stop-color="#010101" stop-opacity="0"/>
<stop offset="0.95" stop-color="#010101"/>
</linearGradient>
<linearGradient id="paint16_linear_1_2" x1="185.432" y1="207.146" x2="168.145" y2="522.574" gradientUnits="userSpaceOnUse">
<stop stop-color="#010101" stop-opacity="0"/>
<stop offset="0.95" stop-color="#010101"/>
</linearGradient>
<linearGradient id="paint17_linear_1_2" x1="192.114" y1="207.51" x2="174.828" y2="522.949" gradientUnits="userSpaceOnUse">
<stop stop-color="#010101" stop-opacity="0"/>
<stop offset="0.95" stop-color="#010101"/>
</linearGradient>
<linearGradient id="paint18_linear_1_2" x1="198.773" y1="207.873" x2="181.486" y2="523.315" gradientUnits="userSpaceOnUse">
<stop stop-color="#010101" stop-opacity="0"/>
<stop offset="0.95" stop-color="#010101"/>
</linearGradient>
<linearGradient id="paint19_linear_1_2" x1="205.447" y1="208.246" x2="188.161" y2="523.671" gradientUnits="userSpaceOnUse">
<stop stop-color="#010101" stop-opacity="0"/>
<stop offset="0.95" stop-color="#010101"/>
</linearGradient>
<linearGradient id="paint20_linear_1_2" x1="212.126" y1="208.602" x2="194.839" y2="524.041" gradientUnits="userSpaceOnUse">
<stop stop-color="#010101" stop-opacity="0"/>
<stop offset="0.95" stop-color="#010101"/>
</linearGradient>
<linearGradient id="paint21_linear_1_2" x1="218.785" y1="208.966" x2="201.498" y2="524.406" gradientUnits="userSpaceOnUse">
<stop stop-color="#010101" stop-opacity="0"/>
<stop offset="0.95" stop-color="#010101"/>
</linearGradient>
<linearGradient id="paint22_linear_1_2" x1="225.468" y1="209.341" x2="208.195" y2="524.782" gradientUnits="userSpaceOnUse">
<stop stop-color="#010101" stop-opacity="0"/>
<stop offset="0.95" stop-color="#010101"/>
</linearGradient>
<linearGradient id="paint23_linear_1_2" x1="315.202" y1="214.251" x2="297.915" y2="529.679" gradientUnits="userSpaceOnUse">
<stop stop-color="#010101" stop-opacity="0"/>
<stop offset="0.95" stop-color="#010101"/>
</linearGradient>
<linearGradient id="paint24_linear_1_2" x1="314.497" y1="214.216" x2="297.222" y2="529.644" gradientUnits="userSpaceOnUse">
<stop stop-color="#010101" stop-opacity="0"/>
<stop offset="0.95" stop-color="#010101"/>
</linearGradient>
<linearGradient id="paint25_linear_1_2" x1="314.074" y1="214.192" x2="296.799" y2="529.632" gradientUnits="userSpaceOnUse">
<stop stop-color="#010101" stop-opacity="0"/>
<stop offset="0.95" stop-color="#010101"/>
</linearGradient>
<linearGradient id="paint26_linear_1_2" x1="371.913" y1="217.362" x2="354.625" y2="532.804" gradientUnits="userSpaceOnUse">
<stop stop-color="#010101" stop-opacity="0"/>
<stop offset="0.95" stop-color="#010101"/>
</linearGradient>
<linearGradient id="paint27_linear_1_2" x1="365.09" y1="216.987" x2="347.803" y2="532.427" gradientUnits="userSpaceOnUse">
<stop stop-color="#010101" stop-opacity="0"/>
<stop offset="0.95" stop-color="#010101"/>
</linearGradient>
<linearGradient id="paint28_linear_1_2" x1="358.255" y1="216.613" x2="340.968" y2="532.049" gradientUnits="userSpaceOnUse">
<stop stop-color="#010101" stop-opacity="0"/>
<stop offset="0.95" stop-color="#010101"/>
</linearGradient>
<linearGradient id="paint29_linear_1_2" x1="351.431" y1="216.235" x2="334.156" y2="531.677" gradientUnits="userSpaceOnUse">
<stop stop-color="#010101" stop-opacity="0"/>
<stop offset="0.95" stop-color="#010101"/>
</linearGradient>
<linearGradient id="paint30_linear_1_2" x1="344.608" y1="215.871" x2="327.321" y2="531.301" gradientUnits="userSpaceOnUse">
<stop stop-color="#010101" stop-opacity="0"/>
<stop offset="0.95" stop-color="#010101"/>
</linearGradient>
<linearGradient id="paint31_linear_1_2" x1="337.83" y1="215.492" x2="320.543" y2="530.932" gradientUnits="userSpaceOnUse">
<stop stop-color="#010101" stop-opacity="0"/>
<stop offset="0.95" stop-color="#010101"/>
</linearGradient>
<linearGradient id="paint32_linear_1_2" x1="330.95" y1="215.119" x2="313.675" y2="530.549" gradientUnits="userSpaceOnUse">
<stop stop-color="#010101" stop-opacity="0"/>
<stop offset="0.95" stop-color="#010101"/>
</linearGradient>
<linearGradient id="paint33_linear_1_2" x1="324.133" y1="214.733" x2="306.847" y2="530.171" gradientUnits="userSpaceOnUse">
<stop stop-color="#010101" stop-opacity="0"/>
<stop offset="0.95" stop-color="#010101"/>
</linearGradient>
<linearGradient id="paint34_linear_1_2" x1="317.304" y1="214.369" x2="300.017" y2="529.807" gradientUnits="userSpaceOnUse">
<stop stop-color="#010101" stop-opacity="0"/>
<stop offset="0.95" stop-color="#010101"/>
</linearGradient>
<linearGradient id="paint35_linear_1_2" x1="310.481" y1="213.992" x2="293.193" y2="529.434" gradientUnits="userSpaceOnUse">
<stop stop-color="#010101" stop-opacity="0"/>
<stop offset="0.95" stop-color="#010101"/>
</linearGradient>
<linearGradient id="paint36_linear_1_2" x1="303.657" y1="213.616" x2="286.37" y2="529.059" gradientUnits="userSpaceOnUse">
<stop stop-color="#010101" stop-opacity="0"/>
<stop offset="0.95" stop-color="#010101"/>
</linearGradient>
<linearGradient id="paint37_linear_1_2" x1="296.834" y1="213.253" x2="279.548" y2="528.68" gradientUnits="userSpaceOnUse">
<stop stop-color="#010101" stop-opacity="0"/>
<stop offset="0.95" stop-color="#010101"/>
</linearGradient>
<linearGradient id="paint38_linear_1_2" x1="289.988" y1="212.876" x2="272.712" y2="528.306" gradientUnits="userSpaceOnUse">
<stop stop-color="#010101" stop-opacity="0"/>
<stop offset="0.95" stop-color="#010101"/>
</linearGradient>
<linearGradient id="paint39_linear_1_2" x1="283.176" y1="212.501" x2="265.889" y2="527.928" gradientUnits="userSpaceOnUse">
<stop stop-color="#010101" stop-opacity="0"/>
<stop offset="0.95" stop-color="#010101"/>
</linearGradient>
<linearGradient id="paint40_linear_1_2" x1="276.376" y1="212.139" x2="259.102" y2="527.566" gradientUnits="userSpaceOnUse">
<stop stop-color="#010101" stop-opacity="0"/>
<stop offset="0.95" stop-color="#010101"/>
</linearGradient>
<linearGradient id="paint41_linear_1_2" x1="269.518" y1="211.75" x2="252.231" y2="527.188" gradientUnits="userSpaceOnUse">
<stop stop-color="#010101" stop-opacity="0"/>
<stop offset="0.95" stop-color="#010101"/>
</linearGradient>
<linearGradient id="paint42_linear_1_2" x1="262.695" y1="211.373" x2="245.407" y2="526.814" gradientUnits="userSpaceOnUse">
<stop stop-color="#010101" stop-opacity="0"/>
<stop offset="0.95" stop-color="#010101"/>
</linearGradient>
<linearGradient id="paint43_linear_1_2" x1="255.839" y1="210.991" x2="238.565" y2="526.433" gradientUnits="userSpaceOnUse">
<stop stop-color="#010101" stop-opacity="0"/>
<stop offset="0.95" stop-color="#010101"/>
</linearGradient>
<linearGradient id="paint44_linear_1_2" x1="102.368" y1="74.0879" x2="84.0004" y2="263.14" gradientUnits="userSpaceOnUse">
<stop stop-color="#010101" stop-opacity="0"/>
<stop offset="0.95" stop-color="#010101"/>
</linearGradient>
<linearGradient id="paint45_linear_1_2" x1="97.0126" y1="245.842" x2="94.8517" y2="134.58" gradientUnits="userSpaceOnUse">
<stop stop-color="#010101" stop-opacity="0"/>
<stop offset="0.95" stop-color="#010101"/>
</linearGradient>
<linearGradient id="paint46_linear_1_2" x1="96.625" y1="96.9414" x2="94.4642" y2="549.021" gradientUnits="userSpaceOnUse">
<stop stop-color="#010101" stop-opacity="0"/>
<stop offset="0.95" stop-color="#010101"/>
</linearGradient>
<linearGradient id="paint47_linear_1_2" x1="84.1061" y1="146.007" x2="113.959" y2="161.674" gradientUnits="userSpaceOnUse">
<stop stop-color="#010101" stop-opacity="0"/>
<stop offset="0.95" stop-color="#010101"/>
</linearGradient>
<linearGradient id="paint48_linear_1_2" x1="76.6135" y1="146.007" x2="106.455" y2="161.674" gradientUnits="userSpaceOnUse">
<stop stop-color="#010101" stop-opacity="0"/>
<stop offset="0.95" stop-color="#010101"/>
</linearGradient>
<linearGradient id="paint49_linear_1_2" x1="91.9392" y1="146.007" x2="121.78" y2="161.674" gradientUnits="userSpaceOnUse">
<stop stop-color="#010101" stop-opacity="0"/>
<stop offset="0.95" stop-color="#010101"/>
</linearGradient>
<linearGradient id="paint50_linear_1_2" x1="83.8477" y1="178.843" x2="113.701" y2="194.509" gradientUnits="userSpaceOnUse">
<stop stop-color="#010101" stop-opacity="0"/>
<stop offset="0.95" stop-color="#010101"/>
</linearGradient>
<linearGradient id="paint51_linear_1_2" x1="76.355" y1="178.843" x2="106.196" y2="194.509" gradientUnits="userSpaceOnUse">
<stop stop-color="#010101" stop-opacity="0"/>
<stop offset="0.95" stop-color="#010101"/>
</linearGradient>
<linearGradient id="paint52_linear_1_2" x1="91.6808" y1="178.843" x2="121.522" y2="194.509" gradientUnits="userSpaceOnUse">
<stop stop-color="#010101" stop-opacity="0"/>
<stop offset="0.95" stop-color="#010101"/>
</linearGradient>
<linearGradient id="paint53_linear_1_2" x1="46.5492" y1="242.366" x2="224.069" y2="303.575" gradientUnits="userSpaceOnUse">
<stop stop-color="#010101" stop-opacity="0"/>
<stop offset="0.95" stop-color="#010101"/>
</linearGradient>
<linearGradient id="paint54_linear_1_2" x1="84.0122" y1="256.493" x2="113.853" y2="272.16" gradientUnits="userSpaceOnUse">
<stop stop-color="#010101" stop-opacity="0"/>
<stop offset="0.95" stop-color="#010101"/>
</linearGradient>
<linearGradient id="paint55_linear_1_2" x1="76.5195" y1="256.493" x2="106.361" y2="272.16" gradientUnits="userSpaceOnUse">
<stop stop-color="#010101" stop-opacity="0"/>
<stop offset="0.95" stop-color="#010101"/>
</linearGradient>
<linearGradient id="paint56_linear_1_2" x1="91.8453" y1="256.493" x2="121.686" y2="272.16" gradientUnits="userSpaceOnUse">
<stop stop-color="#010101" stop-opacity="0"/>
<stop offset="0.95" stop-color="#010101"/>
</linearGradient>
<linearGradient id="paint57_linear_1_2" x1="84.0122" y1="290.339" x2="113.853" y2="306.006" gradientUnits="userSpaceOnUse">
<stop stop-color="#010101" stop-opacity="0"/>
<stop offset="0.95" stop-color="#010101"/>
</linearGradient>
<linearGradient id="paint58_linear_1_2" x1="76.5195" y1="290.339" x2="106.361" y2="306.006" gradientUnits="userSpaceOnUse">
<stop stop-color="#010101" stop-opacity="0"/>
<stop offset="0.95" stop-color="#010101"/>
</linearGradient>
<linearGradient id="paint59_linear_1_2" x1="91.8453" y1="290.339" x2="121.686" y2="306.006" gradientUnits="userSpaceOnUse">
<stop stop-color="#010101" stop-opacity="0"/>
<stop offset="0.95" stop-color="#010101"/>
</linearGradient>
<linearGradient id="paint60_linear_1_2" x1="84.0004" y1="222.859" x2="113.853" y2="238.525" gradientUnits="userSpaceOnUse">
<stop stop-color="#010101" stop-opacity="0"/>
<stop offset="0.95" stop-color="#010101"/>
</linearGradient>
<linearGradient id="paint61_linear_1_2" x1="91.7044" y1="222.859" x2="121.545" y2="238.525" gradientUnits="userSpaceOnUse">
<stop stop-color="#010101" stop-opacity="0"/>
<stop offset="0.95" stop-color="#010101"/>
</linearGradient>
<linearGradient id="paint62_linear_1_2" x1="76.3785" y1="222.859" x2="106.22" y2="238.525" gradientUnits="userSpaceOnUse">
<stop stop-color="#010101" stop-opacity="0"/>
<stop offset="0.95" stop-color="#010101"/>
</linearGradient>
<linearGradient id="paint63_linear_1_2" x1="79.8665" y1="71.9035" x2="61.5109" y2="260.956" gradientUnits="userSpaceOnUse">
<stop stop-color="#010101" stop-opacity="0"/>
<stop offset="0.95" stop-color="#010101"/>
</linearGradient>
<linearGradient id="paint64_linear_1_2" x1="124.458" y1="76.2369" x2="106.091" y2="265.29" gradientUnits="userSpaceOnUse">
<stop stop-color="#010101" stop-opacity="0"/>
<stop offset="0.95" stop-color="#010101"/>
</linearGradient>
<linearGradient id="paint65_linear_1_2" x1="98.4218" y1="152.549" x2="88.6979" y2="227.357" gradientUnits="userSpaceOnUse">
<stop stop-color="#010101" stop-opacity="0"/>
<stop offset="0.95" stop-color="#010101"/>
</linearGradient>
<linearGradient id="paint66_linear_1_2" x1="96.7542" y1="253.921" x2="95.6738" y2="421.366" gradientUnits="userSpaceOnUse">
<stop stop-color="#010101" stop-opacity="0"/>
<stop offset="0.95" stop-color="#010101"/>
</linearGradient>
<linearGradient id="paint67_linear_1_2" x1="47.7471" y1="313.04" x2="233.558" y2="405.394" gradientUnits="userSpaceOnUse">
<stop stop-color="#010101" stop-opacity="0"/>
<stop offset="0.95" stop-color="#010101"/>
</linearGradient>
<linearGradient id="paint68_linear_1_2" x1="371.044" y1="74.0879" x2="352.676" y2="263.14" gradientUnits="userSpaceOnUse">
<stop stop-color="#010101" stop-opacity="0"/>
<stop offset="0.95" stop-color="#010101"/>
</linearGradient>
<linearGradient id="paint69_linear_1_2" x1="365.689" y1="245.842" x2="363.528" y2="134.58" gradientUnits="userSpaceOnUse">
<stop stop-color="#010101" stop-opacity="0"/>
<stop offset="0.95" stop-color="#010101"/>
</linearGradient>
<linearGradient id="paint70_linear_1_2" x1="365.313" y1="96.9414" x2="363.152" y2="549.021" gradientUnits="userSpaceOnUse">
<stop stop-color="#010101" stop-opacity="0"/>
<stop offset="0.95" stop-color="#010101"/>
</linearGradient>
<linearGradient id="paint71_linear_1_2" x1="352.794" y1="146.007" x2="382.635" y2="161.673" gradientUnits="userSpaceOnUse">
<stop stop-color="#010101" stop-opacity="0"/>
<stop offset="0.95" stop-color="#010101"/>
</linearGradient>
<linearGradient id="paint72_linear_1_2" x1="345.301" y1="146.007" x2="375.142" y2="161.673" gradientUnits="userSpaceOnUse">
<stop stop-color="#010101" stop-opacity="0"/>
<stop offset="0.95" stop-color="#010101"/>
</linearGradient>
<linearGradient id="paint73_linear_1_2" x1="360.627" y1="146.007" x2="390.468" y2="161.673" gradientUnits="userSpaceOnUse">
<stop stop-color="#010101" stop-opacity="0"/>
<stop offset="0.95" stop-color="#010101"/>
</linearGradient>
<linearGradient id="paint74_linear_1_2" x1="352.535" y1="178.843" x2="382.377" y2="194.509" gradientUnits="userSpaceOnUse">
<stop stop-color="#010101" stop-opacity="0"/>
<stop offset="0.95" stop-color="#010101"/>
</linearGradient>
<linearGradient id="paint75_linear_1_2" x1="345.043" y1="178.843" x2="374.884" y2="194.509" gradientUnits="userSpaceOnUse">
<stop stop-color="#010101" stop-opacity="0"/>
<stop offset="0.95" stop-color="#010101"/>
</linearGradient>
<linearGradient id="paint76_linear_1_2" x1="360.369" y1="178.843" x2="390.21" y2="194.509" gradientUnits="userSpaceOnUse">
<stop stop-color="#010101" stop-opacity="0"/>
<stop offset="0.95" stop-color="#010101"/>
</linearGradient>
<linearGradient id="paint77_linear_1_2" x1="315.225" y1="242.366" x2="492.745" y2="303.575" gradientUnits="userSpaceOnUse">
<stop stop-color="#010101" stop-opacity="0"/>
<stop offset="0.95" stop-color="#010101"/>
</linearGradient>
<linearGradient id="paint78_linear_1_2" x1="352.688" y1="256.493" x2="382.529" y2="272.16" gradientUnits="userSpaceOnUse">
<stop stop-color="#010101" stop-opacity="0"/>
<stop offset="0.95" stop-color="#010101"/>
</linearGradient>
<linearGradient id="paint79_linear_1_2" x1="345.195" y1="256.493" x2="375.037" y2="272.16" gradientUnits="userSpaceOnUse">
<stop stop-color="#010101" stop-opacity="0"/>
<stop offset="0.95" stop-color="#010101"/>
</linearGradient>
<linearGradient id="paint80_linear_1_2" x1="360.521" y1="256.493" x2="390.362" y2="272.16" gradientUnits="userSpaceOnUse">
<stop stop-color="#010101" stop-opacity="0"/>
<stop offset="0.95" stop-color="#010101"/>
</linearGradient>
<linearGradient id="paint81_linear_1_2" x1="352.688" y1="290.339" x2="382.529" y2="306.006" gradientUnits="userSpaceOnUse">
<stop stop-color="#010101" stop-opacity="0"/>
<stop offset="0.95" stop-color="#010101"/>
</linearGradient>
<linearGradient id="paint82_linear_1_2" x1="345.195" y1="290.339" x2="375.037" y2="306.006" gradientUnits="userSpaceOnUse">
<stop stop-color="#010101" stop-opacity="0"/>
<stop offset="0.95" stop-color="#010101"/>
</linearGradient>
<linearGradient id="paint83_linear_1_2" x1="360.521" y1="290.339" x2="390.362" y2="306.006" gradientUnits="userSpaceOnUse">
<stop stop-color="#010101" stop-opacity="0"/>
<stop offset="0.95" stop-color="#010101"/>
</linearGradient>
<linearGradient id="paint84_linear_1_2" x1="352.688" y1="222.859" x2="382.529" y2="238.525" gradientUnits="userSpaceOnUse">
<stop stop-color="#010101" stop-opacity="0"/>
<stop offset="0.95" stop-color="#010101"/>
</linearGradient>
<linearGradient id="paint85_linear_1_2" x1="360.38" y1="222.859" x2="390.221" y2="238.525" gradientUnits="userSpaceOnUse">
<stop stop-color="#010101" stop-opacity="0"/>
<stop offset="0.95" stop-color="#010101"/>
</linearGradient>
<linearGradient id="paint86_linear_1_2" x1="345.055" y1="222.859" x2="374.896" y2="238.525" gradientUnits="userSpaceOnUse">
<stop stop-color="#010101" stop-opacity="0"/>
<stop offset="0.95" stop-color="#010101"/>
</linearGradient>
<linearGradient id="paint87_linear_1_2" x1="348.554" y1="71.9035" x2="330.187" y2="260.956" gradientUnits="userSpaceOnUse">
<stop stop-color="#010101" stop-opacity="0"/>
<stop offset="0.95" stop-color="#010101"/>
</linearGradient>
<linearGradient id="paint88_linear_1_2" x1="393.146" y1="76.2369" x2="374.778" y2="265.29" gradientUnits="userSpaceOnUse">
<stop stop-color="#010101" stop-opacity="0"/>
<stop offset="0.95" stop-color="#010101"/>
</linearGradient>
<linearGradient id="paint89_linear_1_2" x1="367.098" y1="152.549" x2="357.374" y2="227.357" gradientUnits="userSpaceOnUse">
<stop stop-color="#010101" stop-opacity="0"/>
<stop offset="0.95" stop-color="#010101"/>
</linearGradient>
<linearGradient id="paint90_linear_1_2" x1="365.43" y1="253.921" x2="364.35" y2="421.366" gradientUnits="userSpaceOnUse">
<stop stop-color="#010101" stop-opacity="0"/>
<stop offset="0.95" stop-color="#010101"/>
</linearGradient>
<linearGradient id="paint91_linear_1_2" x1="316.435" y1="313.04" x2="502.234" y2="405.394" gradientUnits="userSpaceOnUse">
<stop stop-color="#010101" stop-opacity="0"/>
<stop offset="0.95" stop-color="#010101"/>
</linearGradient>
<clipPath id="clip0_1_2">
<rect width="470" height="360" fill="white"/>
</clipPath>
<clipPath id="clip1_1_2">
<rect width="630" height="474.828" fill="white" transform="translate(-85 -115)"/>
</clipPath>
<clipPath id="clip2_1_2">
<rect width="100" height="100" fill="white" transform="translate(301.923 -14.4973) rotate(17.1098)"/>
</clipPath>
</defs>
</svg>
