<svg width="500" height="360" viewBox="0 0 500 360" fill="none" xmlns="http://www.w3.org/2000/svg">
<path d="M421.72 89.8781H37.7525V305.496H421.72V89.8781Z" fill="#E6E6E6"/>
<path d="M421.72 53.8456H37.7525V89.8781H421.72V53.8456Z" fill="#C9C9C9"/>
<path opacity="0.08" d="M393.755 114.536H309.212V164.603H393.755V114.536Z" fill="black"/>
<path opacity="0.08" d="M393.755 172.828H309.212V222.896H393.755V172.828Z" fill="black"/>
<path opacity="0.08" d="M393.755 231.138H309.212V281.206H393.755V231.138Z" fill="black"/>
<path d="M288.808 113.381H70.7225V280.348H288.808V113.381Z" fill="white"/>
<path d="M288.808 263.058H70.7225V280.348H288.808V263.058Z" fill="#24285B"/>
<path opacity="0.46" d="M277.642 270.566H81.8875V272.858H277.642V270.566Z" fill="white"/>
<path d="M127.037 278.353C130.71 278.353 133.687 275.376 133.687 271.703C133.687 268.03 130.71 265.053 127.037 265.053C123.365 265.053 120.387 268.03 120.387 271.703C120.387 275.376 123.365 278.353 127.037 278.353Z" fill="#FFD200"/>
<path opacity="0.44" d="M157.365 235.706V150.463L222.063 193.076L157.365 235.706Z" fill="white"/>
<path d="M60.7125 78.2056C63.8536 78.2056 66.4 75.6592 66.4 72.5181C66.4 69.377 63.8536 66.8306 60.7125 66.8306C57.5714 66.8306 55.025 69.377 55.025 72.5181C55.025 75.6592 57.5714 78.2056 60.7125 78.2056Z" fill="#24285B"/>
<path d="M79.6475 78.2056C82.7886 78.2056 85.335 75.6592 85.335 72.5181C85.335 69.377 82.7886 66.8306 79.6475 66.8306C76.5064 66.8306 73.96 69.377 73.96 72.5181C73.96 75.6592 76.5064 78.2056 79.6475 78.2056Z" fill="#FFD200"/>
<path d="M98.5825 78.2056C101.724 78.2056 104.27 75.6592 104.27 72.5181C104.27 69.377 101.724 66.8306 98.5825 66.8306C95.4414 66.8306 92.895 69.377 92.895 72.5181C92.895 75.6592 95.4414 78.2056 98.5825 78.2056Z" fill="white"/>
<path opacity="0.08" d="M421.72 53.7931V144.233C409.016 153.788 393.369 158.597 377.491 157.829C361.614 157.061 346.505 150.764 334.782 140.028C323.059 129.291 315.46 114.793 313.303 99.0437C311.145 83.2945 314.564 67.2866 322.967 53.7931H421.72Z" fill="black"/>
<path opacity="0.08" d="M421.737 182.698H320.867V305.321H421.737V182.698Z" fill="black"/>
<path d="M478.998 189.401H336.355V319.426H478.998V189.401Z" fill="#F4F4F4"/>
<path d="M389.222 230.123H371.25C369.569 230.121 367.903 230.45 366.349 231.092C364.795 231.734 363.383 232.676 362.193 233.864C361.003 235.052 360.059 236.463 359.415 238.016C358.771 239.569 358.44 241.234 358.44 242.916V254.711C358.44 258.108 359.79 261.366 362.192 263.769C364.594 266.171 367.853 267.521 371.25 267.521H373L379.02 295.783L388.593 293.753L383.01 267.503H389.275L445.887 282.098V215.528L389.222 230.123Z" fill="white"/>
<path d="M453.832 213.043H452.03C450.29 213.043 448.88 214.453 448.88 216.193V281.451C448.88 283.19 450.29 284.601 452.03 284.601H453.832C455.572 284.601 456.982 283.19 456.982 281.451V216.193C456.982 214.453 455.572 213.043 453.832 213.043Z" fill="white"/>
<path opacity="0.08" d="M388.4 235.741H370.375V240.308H388.4V235.741Z" fill="black"/>
<path opacity="0.08" d="M142.193 236.021H37.7525V305.076H142.193V236.021Z" fill="black"/>
<path d="M134.79 241.586H13.165V325.918H134.79V241.586Z" fill="#F4F4F4"/>
<path d="M55.6025 290.236H41.9175V307.736H55.6025V290.236Z" fill="#C1C1C1"/>
<path d="M81.1875 276.761H67.5025V307.736H81.1875V276.761Z" fill="#FFD200"/>
<path d="M106.283 263.041H92.5975V307.736H106.283V263.041Z" fill="white"/>
<path d="M457.893 84.3831C457.892 87.0146 457.74 89.644 457.437 92.2581C455.409 109.849 446.624 125.963 432.936 137.196C419.249 148.43 401.731 153.905 384.083 152.464C366.434 151.023 350.037 142.779 338.353 129.474C326.669 116.169 320.614 98.8433 321.466 81.1566C322.318 63.4699 330.01 46.8067 342.919 34.6859C355.827 22.5652 372.942 15.9358 390.647 16.1979C408.352 16.4599 425.262 23.5929 437.807 36.0904C450.351 48.5878 457.547 65.4714 457.875 83.1756C457.892 83.5431 457.893 83.9806 457.893 84.3831Z" fill="#E6E6E6"/>
<path d="M389.782 132.473C416.342 132.473 437.872 110.942 437.872 84.3831C437.872 57.8237 416.342 36.2931 389.782 36.2931C363.223 36.2931 341.692 57.8237 341.692 84.3831C341.692 110.942 363.223 132.473 389.782 132.473Z" fill="white"/>
<path d="M389.782 113.696C405.971 113.696 419.095 100.572 419.095 84.3831C419.095 68.1943 405.971 55.0706 389.782 55.0706C373.594 55.0706 360.47 68.1943 360.47 84.3831C360.47 100.572 373.594 113.696 389.782 113.696Z" fill="#E6E6E6"/>
<path d="M389.782 98.5231C397.592 98.5231 403.922 92.1924 403.922 84.3831C403.922 76.5738 397.592 70.2431 389.782 70.2431C381.973 70.2431 375.643 76.5738 375.643 84.3831C375.643 92.1924 381.973 98.5231 389.782 98.5231Z" fill="white"/>
<path d="M462.53 41.7881L440.725 52.4981L441.793 39.4781L463.597 28.7681L462.53 41.7881Z" fill="#FFD200"/>
<path d="M465.155 47.1256L443.35 57.8356L454.305 64.9581L476.11 54.2306L465.155 47.1256Z" fill="#FFD200"/>
<path d="M465.914 40.1597L387.116 78.8817L389.741 84.2218L468.538 45.4998L465.914 40.1597Z" fill="#24285B"/>
<path opacity="0.27" d="M465.914 40.1597L387.116 78.8817L389.741 84.2218L468.538 45.4998L465.914 40.1597Z" fill="white"/>
<path opacity="0.08" d="M115.557 108.043H37.7525V170.746H115.557V108.043Z" fill="black"/>
<path d="M109.73 101.743H19.2725V164.446H109.73V101.743Z" fill="#F4F4F4"/>
<path d="M74.0475 152.318C70.6191 154.072 66.8016 154.927 62.9525 154.803C52.75 154.803 44 147.313 44 135.343C44 122.481 52.925 111.368 66.75 111.368C77.6 111.368 84.8975 118.981 84.8975 129.411C84.8975 138.773 79.6475 144.268 73.8025 144.268C71.3 144.268 68.99 142.518 69.1825 138.773H68.92C68.1197 140.414 66.876 141.799 65.3297 142.77C63.7833 143.741 61.996 144.26 60.17 144.268C56.5475 144.268 53.415 141.328 53.415 136.393C53.4104 134.448 53.7903 132.522 54.5329 130.725C55.2755 128.927 56.3661 127.295 57.7421 125.92C59.118 124.546 60.7521 123.457 62.5503 122.717C64.3485 121.976 66.2753 121.599 68.22 121.606C70.51 121.57 72.7818 122.017 74.8875 122.918L72.805 134.293C71.8775 139.036 72.6125 141.293 74.6775 141.293C77.8625 141.293 81.415 137.111 81.415 129.866C81.415 120.818 75.99 114.326 66.3125 114.326C56.145 114.326 47.5875 122.376 47.5875 135.046C47.5875 145.546 54.395 151.898 63.635 151.898C66.9075 151.973 70.1459 151.221 73.05 149.711L74.0475 152.318ZM70.5475 125.351C69.537 125.049 68.4869 124.902 67.4325 124.913C61.9375 124.913 57.51 130.163 57.51 136.148C57.51 138.896 58.875 140.891 61.6225 140.891C65.245 140.891 68.6225 136.271 69.235 132.403L70.5475 125.351Z" fill="#C1C1C1"/>
<path d="M236.838 212.743L236.591 212.676C232.984 211.705 231.763 210.772 230.155 210.161C224.46 207.994 222.977 206.426 222.599 205.688C222.583 205.663 222.574 205.633 222.562 205.608L222.513 198.986L209 198.833L195.487 198.986L195.44 205.608C195.428 205.633 195.417 205.663 195.403 205.687C195.024 206.426 193.541 207.994 187.844 210.161C186.237 210.771 185.016 211.705 181.409 212.676L181.16 212.743C177.877 213.83 175.667 216.875 175.667 220.317V229.876H209H242.331V220.317C242.331 216.875 240.122 213.83 236.838 212.743Z" fill="#5D9CEC"/>
<path d="M227.75 186.181C227.75 198.363 216.135 209.575 209 209.575C201.864 209.575 190.249 198.363 190.249 186.181C190.249 174 198.644 165.961 209 165.961C219.358 165.961 227.75 174 227.75 186.181Z" fill="#EAC6BB"/>
<path d="M254.831 215.288C254.831 216.442 253.9 217.376 252.75 217.376C251.6 217.376 250.669 216.442 250.669 215.288C250.669 214.141 251.6 213.207 252.75 213.207C253.901 213.207 254.831 214.141 254.831 215.288Z" fill="#EC87C0"/>
<path d="M238.169 152.79C238.169 153.941 237.235 154.874 236.081 154.874C234.934 154.874 234 153.94 234 152.79C234 151.64 234.934 150.706 236.081 150.706C237.235 150.705 238.169 151.64 238.169 152.79Z" fill="#FFCE54"/>
<path d="M175.667 190.289C175.667 191.442 174.734 192.376 173.583 192.376C172.433 192.376 171.5 191.442 171.5 190.289C171.5 189.141 172.433 188.207 173.583 188.207C174.734 188.207 175.667 189.141 175.667 190.289Z" fill="#FC6E51"/>
<path d="M163.167 169.419C163.167 170.57 162.233 171.5 161.083 171.5C159.932 171.5 159 170.57 159 169.419C159 168.269 159.932 167.335 161.083 167.335C162.233 167.335 163.167 168.269 163.167 169.419Z" fill="#48CFAD"/>
<path d="M167.333 215.288C167.333 216.442 166.401 217.376 165.25 217.376C164.1 217.376 163.167 216.442 163.167 215.288C163.167 214.141 164.099 213.207 165.25 213.207C166.401 213.207 167.333 214.141 167.333 215.288Z" fill="#AC92EB"/>
<path d="M255.436 140.29C255.436 141.44 254.502 142.374 253.355 142.374C252.201 142.374 251.267 141.44 251.267 140.29C251.267 139.139 252.201 138.206 253.355 138.206C254.502 138.206 255.436 139.14 255.436 140.29Z" fill="#A0D468"/>
<path d="M181.917 140.29V138.206C181.917 137.055 180.983 136.124 179.833 136.124C178.682 136.124 177.75 137.055 177.75 138.206V140.29C176.599 140.29 175.667 141.224 175.667 142.374C175.667 143.525 176.599 144.456 177.75 144.456V146.54C177.75 147.691 178.682 148.624 179.833 148.624C180.983 148.624 181.917 147.691 181.917 146.54V144.456C183.068 144.456 184 143.525 184 142.374C184 141.224 183.068 140.29 181.917 140.29Z" fill="#ED5564"/>
<path d="M256.919 169.456V167.374C256.919 166.224 255.985 165.29 254.831 165.29C253.684 165.29 252.75 166.224 252.75 167.374V169.456C251.6 169.456 250.669 170.389 250.669 171.54C250.669 172.69 251.6 173.624 252.75 173.624V175.706C252.75 176.856 253.684 177.79 254.831 177.79C255.985 177.79 256.919 176.856 256.919 175.706V173.624C258.066 173.624 259 172.69 259 171.54C259 170.39 258.066 169.456 256.919 169.456Z" fill="#48CFAD"/>
<path d="M240.562 173.426C238.734 172.614 236.176 171.894 232.956 171.29C226.535 170.081 218.027 169.419 209 169.419C199.972 169.419 191.463 170.081 185.045 171.29C181.824 171.894 179.267 172.614 177.44 173.426C174.881 174.564 173.583 176.026 173.583 177.772C173.583 179.514 174.881 180.976 177.44 182.115C179.267 182.926 181.824 183.646 185.045 184.251C191.463 185.459 199.971 186.125 209 186.125C218.027 186.125 226.535 185.459 232.956 184.251C236.176 183.646 238.733 182.926 240.562 182.115C243.119 180.976 244.419 179.514 244.419 177.772C244.419 176.026 243.119 174.564 240.562 173.426Z" fill="#967ADC"/>
<path d="M223.453 175.318C223.438 175.236 221.842 166.831 219.773 158.536C218.546 153.623 217.392 149.695 216.343 146.858C214.887 142.914 213.431 140.29 211.083 140.29C206.485 140.29 202.543 146.052 198.679 158.418C196.068 166.773 194.518 174.976 194.453 175.321L194.286 176.212L194.823 176.942C195.629 178.037 198.543 179.874 209 179.874C213.504 179.874 221.326 179.487 223.121 176.893L223.618 176.176L223.453 175.318Z" fill="#AC92EB"/>
<path d="M217.539 196.532C215.461 195.134 212.668 194.457 209 194.457C205.333 194.457 202.54 195.134 200.46 196.532C197.82 198.302 196.482 201.11 196.482 204.876C196.482 208.605 197.796 214.629 199.677 219.524C202.315 226.397 205.452 229.876 209 229.876C212.546 229.876 215.683 226.397 218.323 219.524C220.206 214.629 221.518 208.605 221.518 204.876C221.519 201.11 220.182 198.302 217.539 196.532Z" fill="#E6E9ED"/>
<path d="M211.083 202.788H206.917C205.767 202.788 204.833 201.855 204.833 200.707C204.833 199.554 205.767 198.626 206.917 198.626H211.083C212.235 198.626 213.169 199.554 213.169 200.707C213.169 201.854 212.235 202.788 211.083 202.788Z" fill="#434A54"/>
<path opacity="0.1" d="M222.275 169.495C222.257 169.498 222.239 169.501 222.22 169.507C220.78 169.941 216.468 170.807 213.895 169.611C212.851 169.126 211.612 169.581 211.127 170.621C210.642 171.665 211.095 172.904 212.137 173.389C213.566 174.054 215.287 174.387 217.274 174.387C218.018 174.387 218.796 174.341 219.614 174.247C221.219 174.063 222.535 173.74 223.115 173.584C222.913 172.568 222.626 171.159 222.275 169.495Z" fill="#080808"/>
<path d="M225.669 229.876C225.455 229.876 225.235 229.839 225.022 229.772C223.929 229.418 223.331 228.24 223.685 227.148C223.713 227.062 226.49 218.511 229.59 209.581C235.294 193.163 237.107 189.696 237.974 188.524C239.768 186.09 243.284 185.813 245.975 186.364C249.454 187.072 251.993 189.11 252.604 191.686C253.404 195.049 250.828 197.917 248.527 199.73C246.964 200.963 244.968 201.079 243.314 200.035C241.526 198.906 240.586 196.721 241.038 194.725C241.294 193.602 242.408 192.9 243.531 193.157C244.651 193.407 245.356 194.524 245.103 195.647C245.042 195.915 245.249 196.33 245.539 196.507C245.67 196.593 245.737 196.623 245.948 196.459C247.8 195 248.771 193.578 248.551 192.65C248.335 191.728 246.9 190.801 245.142 190.447C243.29 190.062 241.746 190.429 241.325 190.996C239.335 193.694 231.882 215.392 227.646 228.435C227.363 229.315 226.548 229.876 225.669 229.876Z" fill="#965353"/>
</svg>
