<svg xmlns="http://www.w3.org/2000/svg" xmlns:xlink="http://www.w3.org/1999/xlink" viewBox="0 0 256 256" fill="none" xmlns:v="https://vecta.io/nano"><g fill="#481a72"><path d="M256 66.666H0V221.334H256V66.666Z"/><path d="M256 34.666H0v32.04h256v-32.04z"/></g><use xlink:href="#B" fill="#e21b1b"/><use xlink:href="#B" x="13.388" opacity=".49" fill="#fff"/><g fill="#666"><use xlink:href="#B" x="26.772"/><path d="M221.76 58.53H77.98l9.56-15.672h143.788L221.76 58.53z"/></g><path d="M97.6 47.198l.928 3.564.524 2.228h.048c.156-.708.4-1.46.62-2.212l1.148-3.58h1.072l1.084 3.504.624 2.288h.044a22.06 22.06 0 0 1 .54-2.272l1.004-3.52h1.26l-2.26 7.008h-1.156l-1.072-3.344-.624-2.308h-.028c-.168.784-.38 1.56-.64 2.32l-1.132 3.332h-1.156l-2.112-7.008H97.6h0zm10.828 0l.928 3.564.524 2.228h.044c.16-.708.4-1.46.624-2.212l1.14-3.58h1.072l1.088 3.504.62 2.288h.048c.136-.768.316-1.528.54-2.272l1.004-3.52h1.26l-2.26 7.008h-1.164l-1.072-3.344a21.81 21.81 0 0 1-.62-2.308h-.032c-.164.784-.376 1.56-.636 2.32l-1.132 3.332h-1.164l-2.116-7.008h1.304 0zm10.816 0l.928 3.564.524 2.228h.044c.16-.708.4-1.46.624-2.212l1.14-3.58h1.072l1.088 3.504.62 2.288h.048c.136-.768.316-1.528.54-2.272l1.004-3.52h1.26l-2.26 7.008h-1.164l-1.076-3.344a21.81 21.81 0 0 1-.62-2.308h-.032c-.164.784-.376 1.56-.636 2.32l-1.132 3.332h-1.164l-2.116-7.008h1.308 0z" fill="#fff"/><path d="M0 205.79h41.428l15.544 15.54H0v-15.54zm256 0h-41.428l-15.544 15.54H256v-15.54z" fill="#666"/><path d="M212.224 162.514H43.776v-59.376h168.448v59.376h0zm-166.448-2h164.448v-55.376H45.776v55.376z" fill="#e21b1b"/><g fill="#fff"><path d="M94.964 148.53h-6.496l-.704-22.836L76.4 148.53h-6.64l-1.172-31.232h6.284l.276 21.856 10.716-21.856h6.968l.724 21.62 10.288-21.62h6.224L94.964 148.53z"/><path d="M136.148 148.53h-6.496l-.704-22.836-11.38 22.836h-6.624l-1.172-31.232h6.284l.276 21.856 10.716-21.856H134l.724 21.62 10.288-21.62h6.224l-15.088 31.232z"/><path d="M177.332 148.53h-6.496l-.704-22.836-11.38 22.836h-6.624l-1.172-31.232h6.284l.276 21.856 10.716-21.856h6.968l.724 21.62 10.288-21.62h6.224l-15.104 31.232z"/></g><defs ><path id="B" d="M22.096 55.154c2.465 0 4.464-1.999 4.464-4.464s-1.999-4.464-4.464-4.464-4.464 1.999-4.464 4.464 1.999 4.464 4.464 4.464z"/></defs></svg>