<svg xmlns="http://www.w3.org/2000/svg" xmlns:xlink="http://www.w3.org/1999/xlink" width="406" height="306" fill="none" xmlns:v="https://vecta.io/nano"><style><![CDATA[.B{fill:#fff}.C{fill:#481a72}.D{opacity:.46}.E{fill:#000}.F{fill:#24285b}.G{fill:#ffd200}.H{fill:#f4a28c}]]></style><g clip-path="url(#A)"><path opacity=".3" d="M89.863 42.236c-43.912 10.5-78.85 36.038-85 83.838-5.225 40.262.15 111.587 73.625 124.262 142.974 24.675 249.775 24.825 303.5-36.537 33.138-37.875 32.575-152.875-47.512-170.088C277.825 31.499 184 19.736 89.863 42.236z" fill="#e6e6e6"/><path d="M325.287 39.349v231.85h-185.85c-4.442 0-8.702-1.765-11.844-4.906a16.75 16.75 0 0 1-4.905-11.844V40.924c-.001-4.31-1.713-8.443-4.76-11.49a16.25 16.25 0 0 0-11.49-4.76h204.199a14.67 14.67 0 0 1 10.365 4.303 14.66 14.66 0 0 1 3.174 4.76c.736 1.78 1.113 3.686 1.111 5.612z" class="C"/><g class="F"><use xlink:href="#B"/><use xlink:href="#B"/></g><use xlink:href="#C" class="C"/><use xlink:href="#C" opacity=".5" class="B"/><g opacity=".12" class="E"><path opacity=".12" d="M174.712 186.911h-24.55v43.075h24.55v-43.075zm40.025-15.75h-24.549v58.825h24.549v-58.825zm40.026-25.237h-24.55v84.062h24.55v-84.062zm40.024-22.963h-24.55v107.025h24.55V122.961z"/></g><g class="B"><path d="M213.262 131.386h-39.287v6.613h39.287v-6.613zm0 17.438h-39.287v6.612h39.287v-6.612z" class="D"/></g><path opacity=".1" d="M161.75 131.386h-11.588v6.613h11.588v-6.613z" class="E"/><path d="M161.75 148.824h-11.588v6.612h11.588v-6.612z" class="G"/><path d="M200.837 80.986c-.001 7.213-2.772 14.15-7.741 19.379s-11.757 8.349-18.961 8.717-14.273-2.045-19.749-6.74a28.14 28.14 0 0 1-3.957-38.557c4.408-5.709 10.841-9.507 17.969-10.61a28.14 28.14 0 0 1 20.336 4.684c5.927 4.11 10.05 10.34 11.516 17.403h0c.137.75.275 1.525.375 2.275a26.01 26.01 0 0 1 .212 3.45h0z" class="B D"/><path d="M172.7 52.849v28.138l27.5-5.725s-3.788-22.6-27.5-22.412z" class="G"/><path opacity=".1" d="M200.838 80.986a28.14 28.14 0 0 1-4.009 14.453c-2.619 4.366-6.374 7.94-10.864 10.34s-9.548 3.538-14.633 3.29-10.009-1.87-14.244-4.695l15.637-23.388 27.5-5.725a47.27 47.27 0 0 1 .375 2.275c.155 1.143.235 2.296.238 3.45h0z" class="E"/><g class="B"><path d="M212.85 60.211h96.8v-6.613h-96.8v6.613zm0 14.438h96.8v-6.613h-96.8v6.613zm0 14.437h96.8v-6.612h-96.8v6.612zm0 14.438h55.588v-6.613H212.85v6.613z" class="D"/></g><path opacity=".1" d="M325.012 122.961H258.45v81.538h66.562v-81.538z" class="E"/><path d="M356 124.886h-90.887v70.45H356v-70.45z" class="F"/><path d="M356 115.536h-90.887v9.338H356v-9.338z" class="G"/><path d="M337.625 158.986a26.79 26.79 0 0 0-4.8-15.375l-.788-1.037c-2.519-3.323-5.776-6.014-9.514-7.862s-7.853-2.803-12.023-2.788a27.18 27.18 0 0 0-5.45.537 29.12 29.12 0 0 0-2.988.788l-.737.25c-4.898 1.759-9.18 4.903-12.325 9.05l-.8 1.037a27.1 27.1 0 0 0-4.788 15.381c0 5.494 1.67 10.858 4.788 15.382h0l.8 1.037a26.85 26.85 0 0 0 9.497 7.852c3.731 1.846 7.84 2.8 12.003 2.786a27.83 27.83 0 0 0 4.7-.4c.512-.088 1.025-.2 1.525-.313.75-.175 1.5-.387 2.225-.625a20.63 20.63 0 0 0 1.25-.45l.487-.187c1.046-.424 2.065-.913 3.05-1.463l.2-.112a26.44 26.44 0 0 0 5.463-4.138 17.25 17.25 0 0 0 .862-.9c.6-.637 1.175-1.325 1.725-2.037l.788-1.038c3.153-4.507 4.846-9.874 4.85-15.375h0zm-8.375 15.988c-.275.3-.538.612-.825.9l-.1.112a25.47 25.47 0 0 1-.838.838l-.125.112a16.98 16.98 0 0 1-.862.775l-.138.113-.9.725-.137.112-.95.675-.125.075a17.04 17.04 0 0 1-1 .638h-.088c-.35.2-.712.412-1.075.6a18.37 18.37 0 0 1-1.112.562c-.375.175-.75.325-1.125.488h-.1c-.375.15-.738.275-1.113.4h-.15c2.504-2.854 4.337-6.233 5.363-9.888 1.938.622 3.8 1.461 5.55 2.5l-.15.263zm-26.638 7.2c-.375-.125-.75-.25-1.112-.4h-.1c-.388-.163-.763-.313-1.125-.488-.375-.175-.75-.362-1.125-.562-.363-.188-.713-.4-1.063-.6h-.1a22.84 22.84 0 0 1-1-.638l-.125-.075c-.312-.225-.637-.45-.937-.687l-.138-.1-.912-.725-.125-.113a24.82 24.82 0 0 1-.875-.775l-.113-.112c-.287-.275-.575-.55-.85-.838l-.087-.1c-.288-.3-.563-.612-.838-.925a27.54 27.54 0 0 1 5.563-2.5 25.39 25.39 0 0 0 5.35 9.888h0l-.288-.25zm-10.687-39.213a28.1 28.1 0 0 1 .812-.912c.031-.037.064-.07.1-.1.275-.288.55-.575.838-.838l.125-.125c.287-.262.575-.525.875-.775l.137-.112c.288-.25.588-.488.9-.725l.138-.1.937-.675.138-.088c.325-.225.65-.437.987-.637h.1l1.063-.613c.375-.2.75-.375 1.125-.55.362-.162.737-.325 1.125-.475h.1l1.112-.4h.15c-2.499 2.855-4.328 6.233-5.35 9.888a27.26 27.26 0 0 1-5.562-2.5l.15-.263zm26.575-7.262l1.112.4h.1l1.125.475c.375.175.75.35 1.113.55l1.075.612h.087c.338.2.675.413 1 .638l.125.087c.325.213.638.438.95.675l.138.1.9.725.137.113c.3.25.588.512.863.775.045.038.087.08.125.125.287.262.562.55.837.837.04.027.074.061.1.1.288.3.563.6.825.913-1.75 1.039-3.611 1.877-5.55 2.5-1.026-3.656-2.858-7.034-5.362-9.888h0l.3.263zm7 22.025c-.065-3.282-.484-6.547-1.25-9.738 2.257-.72 4.418-1.711 6.437-2.95 2.603 3.739 4.098 8.137 4.313 12.688h-9.5zm-13.75-23.15c3.912.812 7.35 5.35 9.362 11.712a42.67 42.67 0 0 1-9.362 1.25v-12.962zm-2.5 0v12.975c-3.157-.071-6.297-.49-9.363-1.25 2.05-6.375 5.5-10.913 9.363-11.725zm-10 14.137a45.85 45.85 0 0 0 10 1.363v7.65H298a43.44 43.44 0 0 1 1.25-9.013h0zm10 11.538v7.662a45.17 45.17 0 0 0-10 1.35 43.39 43.39 0 0 1-1.175-9.012h11.175zm0 10.187v12.988c-3.9-.813-7.35-5.338-9.363-11.7a42.04 42.04 0 0 1 9.363-1.288h0zm2.5 0c3.158.063 6.299.483 9.362 1.25-2.012 6.363-5.45 10.888-9.362 11.7v-12.95zm10-1.175a45.05 45.05 0 0 0-10-1.35v-7.662H323c-.067 3.036-.452 6.057-1.15 9.012h-.1zm-10-11.537v-7.65a45 45 0 0 0 10-1.363c.705 2.955 1.099 5.976 1.175 9.013H311.75zm-15-9.738a47.2 47.2 0 0 0-1.25 9.738h-9.513a24.33 24.33 0 0 1 4.325-12.688 29.29 29.29 0 0 0 6.438 2.95h0zm-1.25 12.263a47.19 47.19 0 0 0 1.25 9.737c-2.251.726-4.408 1.716-6.425 2.95A24.29 24.29 0 0 1 286 160.249h9.5zm28.75 9.737c.766-3.191 1.185-6.456 1.25-9.737h9.512c-.213 4.551-1.708 8.949-4.312 12.687-2.006-1.23-4.15-2.22-6.388-2.95h-.062z" class="B D"/><use xlink:href="#D" class="C"/><use xlink:href="#D" class="B D"/><g class="H"><path d="M96.938 130.786a29.01 29.01 0 0 1 2.675 7.188 2.31 2.31 0 0 1-.036.906c-.072.296-.201.576-.381.822s-.407.455-.668.613a2.32 2.32 0 0 1-.852.309c-.964.207-1.967.133-2.889-.216a5.12 5.12 0 0 1-2.311-1.747l-2.862-3.162a4.14 4.14 0 0 1-.8-2.382c-.014-.858.24-1.699.725-2.406 1.65-2.75 6.188-2.475 7.4.075z"/><path d="M91.738 136.086l-3.625 14.7 8.238 1.425-.65-10.987-3.963-5.138zm6.437-2.662l1.888 1.125c.105.066.193.158.253.267a.74.74 0 0 1 .093.358.73.73 0 0 1-.093.357c-.06.109-.148.201-.253.268l-1.501 1-.388-3.375z"/></g><path opacity=".31" d="M95.738 140.649c-1.417-.283-2.769-.825-3.987-1.6 0 0 .287 6.875 4.313 7.775l-.325-6.175z" fill="#ce8172"/><path d="M93.375 135.924s-.737-1.625-1.9-.975-.137 3 1.625 2.5l.275-1.525z" class="H"/><path d="M87.338 135.136c.242.319.563.57.931.728s.771.217 1.169.172c1.325-.1 1.9-1.1 2.737-1.925s1.875-1.35 2.4-2.5l1.563-1.25c.355-.294.643-.662.844-1.077s.309-.87.319-1.331a3.21 3.21 0 0 0-.264-1.343 3.2 3.2 0 0 0-.799-1.111c-.815-.806-1.916-1.256-3.062-1.25-2.5.112-4.9 2.625-6 4.675-.775 1.412-1.05 4.637.163 6.212z" class="G"/><path d="M90.388 134.674s-2.5-.8-2.9 1.125 2.325 2.737 3.75 1.25c-.556-.666-.857-1.508-.85-2.375h0z" class="H"/><path d="M56.65 271.549h53.512v-38.238H56.65v38.238z" fill="#e6e6e6"/><path opacity=".08" d="M96.038 271.549l2.575-33.675 10.725 1.637 3.2 12.913-2.375 19.125H96.038z" class="E"/><g class="C"><path d="M97.375 267.174s1.15 3.187 4.038 3.425 3.624 3.062 1.037 3.75-9.263-2.6-9.263-2.6l.188-4.15 4-.425zm-.325-115.138l-8.237-1.412s-27.4 0-32.2 9.425-3.75 44.312 12.063 72.987l32.5.938s-1.8-21.063 4.25-32.5 24.8-35.863-8.375-49.438z"/></g><path d="M68.675 233.036l15.875-2.387a15.18 15.18 0 0 1 6.83.534 15.19 15.19 0 0 1 5.902 3.479c1.677 1.593 2.968 3.549 3.775 5.717s1.108 4.492.881 6.795l-2.076 20.175h-7.787l.662-18.888c.039-1.056-.156-2.108-.572-3.079a7.14 7.14 0 0 0-1.834-2.539c-.791-.701-1.728-1.217-2.743-1.512a7.15 7.15 0 0 0-3.126-.195c-6.75 1.138-15.125.675-15.788-8.1z" class="F"/><path d="M113.538 267.174s1.15 3.187 4.025 3.425 3.637 3.062 1.05 3.75-9.275-2.6-9.275-2.6l.187-4.15 4.013-.425z" class="C"/><path opacity=".08" d="M71.463 163.424s8.987 7.887 7.188 16.6l-.9 5c-1.174 7.224-.737 14.618 1.279 21.654a49.69 49.69 0 0 0 10.383 19.046l5.675 6.475-26.413.887-2.263-4.425-12.325-20.487 17.375-44.75z" class="E"/><path d="M84.838 233.036l15.875-2.387c2.287-.345 4.622-.163 6.829.533a15.18 15.18 0 0 1 5.9 3.48 15.2 15.2 0 0 1 3.771 5.718c.805 2.168 1.104 4.492.875 6.794l-2.075 20.175h-7.788l.675-18.888a7.15 7.15 0 0 0-.572-3.079c-.416-.972-1.043-1.839-1.834-2.539a7.14 7.14 0 0 0-2.743-1.512 7.15 7.15 0 0 0-3.126-.195c-6.75 1.138-15.125.675-15.787-8.1z" class="F"/><use xlink:href="#E" class="C"/><use xlink:href="#E" class="B D"/><path d="M90.5 224.349s10-.263 8.638 5-8.638 1.137-8.638 1.137v-6.137z" class="H"/><path d="M124.013 232.361l4.062-22.975H99.263l-2.5 19.588-13.213.187v3.2h40.463z" class="G"/><path d="M112.538 223.286a2.89 2.89 0 0 0 2.887-2.887 2.89 2.89 0 0 0-2.887-2.888 2.89 2.89 0 0 0-2.888 2.888 2.89 2.89 0 0 0 2.888 2.887z" class="B"/><use xlink:href="#F" class="C"/><use xlink:href="#F" class="B D"/><g class="C"><path opacity=".58" d="M338.812 105.536s-7.887-2.15-9.612-9.5c0 0 12.225-2.5 12.575 10.15l-2.963-.65z"/><path opacity=".73" d="M339.775 104.749s-5.513-8.75-.663-16.863c0 0 9.3 5.912 5.175 16.888l-4.512-.025z"/><path d="M341.2 104.761s2.912-9.2 11.712-10.95c0 0 1.65 5.975-5.7 10.975l-6.012-.025z"/></g><path d="M335.475 104.549l1.6 10.95 10.075.037 1.487-10.925-13.162-.062z" class="F"/></g><defs><clipPath id="A"><path d="M0 0h406v306H0z" class="B"/></clipPath><path id="B" d="M122.688 40.924v177.85H90.188V40.924a16.25 16.25 0 0 1 16.251-16.25 16.25 16.25 0 0 1 16.25 16.25h0z"/><path id="C" d="M156.2 248.824v8.5c0 5.112-7.65 13.137-15.237 13.75v.062h195a22.38 22.38 0 0 0 8.565-1.704c2.715-1.125 5.183-2.775 7.26-4.854a22.38 22.38 0 0 0 6.55-15.829H156.2v.075z"/><path id="D" d="M115.563 169.274a45.81 45.81 0 0 1 .6 32.975c-6.513 18.15 7.675 27.325-19.813 29.75s19.213-62.725 19.213-62.725z"/><path id="E" d="M56.15 160.924c-6.012 8.462-11.35 27.15-6.712 53.475.696 3.889 2.674 7.432 5.62 10.065s6.688 4.203 10.63 4.46l24.813 1.55v-8.088l-18.825-2.712c-1.03-.151-2.016-.523-2.889-1.09a7.23 7.23 0 0 1-3.232-5.095c-.141-1.032-.057-2.081.246-3.078 3.313-10.937 8.45-30.737 7.2-44.862a9.29 9.29 0 0 0-2.1-5.19 9.28 9.28 0 0 0-4.701-3.04c-1.842-.506-3.796-.431-5.594.214s-3.354 1.829-4.455 3.391h0z"/><path id="F" d="M81.75 150.924s-3.475-3.663 5.938-4.063 18.825.738 16.6 8.75-22.537-4.687-22.537-4.687z"/></defs></svg>