<svg xmlns="http://www.w3.org/2000/svg" xmlns:xlink="http://www.w3.org/1999/xlink" width="580" height="371" fill="none" xmlns:v="https://vecta.io/nano"><g clip-path="url(#A)"><path opacity=".3" d="M441.483 48.84c54.919 18.524 96.645 68.196 106.275 129.41 8.175 51.585-8.976 114.45-100.602 141.837-93.522 27.974-332.248 58.189-399.577-47.415-51.666-81.145-33.419-191.099 66.43-226.824 69.994-25.163 220.251-33.19 327.474 2.992z" fill="#e6e6e6"/><use xlink:href="#B" fill="#fff"/><use xlink:href="#B" opacity=".08" fill="#000"/><path d="M427.095 195.696c.016 21.47-5.089 42.635-14.89 61.738s-24.018 35.593-41.469 48.101l-48.886-69.242c8.195-6.023 14.379-14.383 17.74-23.982s3.743-19.99 1.095-29.81h0l81.75-22.203c3.113 11.541 4.68 23.444 4.66 35.398h0z" fill="#24285b"/><g fill="#fff"><use xlink:href="#C"/><use xlink:href="#C" opacity=".46"/><path d="M261.42 235.835l-95.059 125.078s-58.287-42.412-73.934-112.815 2.91-112.815 2.91-112.815l148.36 45.632c-3.019 9.873-2.938 20.435.231 30.26a50.49 50.49 0 0 0 17.492 24.693v-.033z"/></g><path d="M288.104 145.42c-9.421.712-18.452 4.056-26.066 9.649a50.45 50.45 0 0 0-17 21.988l-58.043-19.048a111.47 111.47 0 0 1 101.01-73.706l.099 61.117z" fill="#24285b"/><path d="M291.929 234.38c-7.622 0-15.072-2.26-21.41-6.495s-11.276-10.253-14.193-17.295a38.53 38.53 0 0 1-2.193-22.265c1.487-7.476 5.157-14.342 10.547-19.732a38.54 38.54 0 0 1 19.731-10.547 38.55 38.55 0 0 1 39.561 16.387 38.54 38.54 0 0 1 6.494 21.41c-.013 10.217-4.077 20.011-11.301 27.235s-17.019 11.289-27.236 11.302zm0-66.708a28.17 28.17 0 0 0-26.038 17.379 28.17 28.17 0 0 0-1.61 16.278c1.085 5.466 3.767 10.487 7.706 14.428s8.959 6.626 14.424 7.714 11.13.532 16.279-1.6 9.549-5.742 12.645-10.375 4.749-10.081 4.749-15.653c-.009-7.466-2.977-14.624-8.255-19.905a28.21 28.21 0 0 0-19.9-8.266h0z" fill="#c9c9c9"/><path d="M291.929 234.38c-9.425.005-18.525-3.451-25.571-9.712l6.883-7.766c5.139 4.6 11.791 7.149 18.688 7.161v10.317z" fill="#e6e6e6"/><path d="M330.466 195.843h-10.382a28.2 28.2 0 0 0-8.255-19.905c-5.277-5.28-12.434-8.253-19.9-8.266v-10.366c10.217.013 20.012 4.077 27.236 11.302s11.288 17.018 11.301 27.235h0z" fill="#24285b"/><path d="M291.929 234.38v-10.317a28.2 28.2 0 0 0 28.155-28.155h10.382a38.6 38.6 0 0 1-38.537 38.472z" fill="#ffd200"/><g opacity=".08"><path opacity=".08" d="M292.78 183.368c.67 0 .882.245.882.916v1.471a6.54 6.54 0 0 1 3.325 1.292c.968.731 1.713 1.715 2.153 2.845.359.703.212 1.095-.589 1.455l-1.471.654c-.671.327-.998.18-1.39-.54a3.72 3.72 0 0 0-3.81-2.289c-2.534 0-3.695.736-3.695 2.436 0 1.096 1.014 1.783 2.06 1.995a15.83 15.83 0 0 0 2.142.327c1.35.061 2.683.32 3.957.769.637.212 1.23.539 1.749.964a5.71 5.71 0 0 1 1.241 1.91 5.7 5.7 0 0 1 .394 2.243c0 3.27-2.174 5.445-6.017 6.017v1.635c0 .687-.212.915-.882.915h-1.635c-.671 0-.916-.228-.916-.915v-1.521c-1.332-.092-2.608-.576-3.667-1.39a6.79 6.79 0 0 1-2.284-3.188.95.95 0 0 1-.099-.428c0-.149.035-.296.102-.429s.162-.248.281-.338.256-.15.402-.178l1.455-.54c.753-.261 1.08-.081 1.407.654a3.87 3.87 0 0 0 1.577 1.932c.725.452 1.578.653 2.428.57 2.747 0 4.104-.867 4.104-2.616a1.81 1.81 0 0 0-.318-1.145c-.231-.335-.568-.582-.957-.703-.949-.33-1.94-.523-2.943-.572-1.365-.08-2.71-.367-3.99-.85-.595-.236-1.147-.567-1.635-.981-.538-.526-.962-1.158-1.243-1.856s-.415-1.447-.392-2.199c0-3.27 2.028-5.346 5.837-5.853v-1.472c0-.67.246-.915.916-.915l1.521-.082z" fill="#000"/></g><g fill="#e6e6e6"><path d="M196.609 56.149H124.08v9.074h72.529v-9.074zm-4.316 17.216H124.08v9.074h68.213v-9.074zm-14.846 19.587H124.08v9.075h53.367v-9.075zm284.31 186.587h-44.636v9.074h44.636v-9.074zm-9.712 19.587h-34.924v9.074h34.924v-9.074zm41.807-191.23H360.354v83.99h133.498v-83.99z"/></g><g fill="#fff"><path opacity=".46" d="M373.205 183.352v-19.735l18.819-16.693 15.107 15.63 19.964-22.595 16.268 22.219 37.621-33.779v54.953H373.205zm37.752-66.937h-37.752v5.101h37.752v-5.101zm-5.493 11.984h-32.259v5.101h32.259v-5.101z"/></g></g><defs><clipPath id="A"><path fill="#fff" transform="translate(0 .7)" d="M0 0h580v370H0z"/></clipPath><path id="B" d="M466.58 138.782l-126.892 40.58a50.49 50.49 0 0 0-47.792-34.171V12.004A183.73 183.73 0 0 1 466.58 138.782h0z"/><path id="C" d="M381.233 334.687a165.13 165.13 0 0 1-183.12-2.959l67.362-93.113a50.41 50.41 0 0 0 26.771 7.503 50.4 50.4 0 0 0 26.677-7.83l62.31 96.399z"/></defs></svg>