<svg xmlns="http://www.w3.org/2000/svg" width="131" height="55" fill="none" xmlns:v="https://vecta.io/nano"><g clip-path="url(#A)"><g fill="#fff"><path d="M2.427 52.778V32.31h8.86c1.832 0 3.411.302 4.737.906 1.326.585 2.349 1.433 3.07 2.544s1.082 2.437 1.082 3.977c0 1.52-.361 2.836-1.082 3.947-.721 1.092-1.745 1.93-3.07 2.515s-2.904.877-4.737.877H5.059L7.164 45v7.778H2.427zm13.012 0l-5.117-7.427h5.059l5.176 7.427h-5.117zm-8.275-7.251l-2.105-2.222h5.965c1.462 0 2.554-.312 3.275-.936.721-.643 1.082-1.52 1.082-2.632 0-1.131-.361-2.008-1.082-2.632s-1.813-.936-3.275-.936H5.059l2.105-2.251v11.608zm23.929 7.485c-1.676 0-3.168-.351-4.474-1.053-1.287-.702-2.31-1.657-3.07-2.866-.741-1.228-1.111-2.622-1.111-4.181 0-1.579.37-2.973 1.111-4.181.76-1.228 1.784-2.183 3.07-2.866 1.306-.702 2.797-1.053 4.474-1.053 1.657 0 3.138.351 4.444 1.053 1.306.682 2.33 1.628 3.07 2.836s1.111 2.612 1.111 4.211c0 1.559-.37 2.953-1.111 4.181-.741 1.209-1.764 2.164-3.07 2.866s-2.788 1.053-4.444 1.053zm0-3.743c.76 0 1.442-.175 2.047-.526s1.082-.848 1.433-1.491c.351-.663.526-1.443.526-2.339 0-.916-.175-1.696-.526-2.339s-.828-1.14-1.433-1.491-1.287-.526-2.047-.526-1.443.175-2.047.526a3.98 3.98 0 0 0-1.462 1.491c-.351.643-.526 1.423-.526 2.339 0 .897.175 1.676.526 2.339a3.98 3.98 0 0 0 1.462 1.491c.604.351 1.287.526 2.047.526zm20.973 3.743c-1.384 0-2.573-.292-3.567-.877s-1.754-1.472-2.281-2.661c-.526-1.209-.789-2.729-.789-4.561 0-1.852.273-3.372.819-4.561.565-1.189 1.345-2.076 2.339-2.661s2.154-.877 3.48-.877c1.481 0 2.807.331 3.977.994 1.189.663 2.125 1.599 2.807 2.807.702 1.209 1.053 2.641 1.053 4.298 0 1.637-.351 3.06-1.053 4.269-.682 1.209-1.618 2.154-2.807 2.836-1.17.663-2.495.994-3.977.994zm-9.298-.234V31.082h4.561v9.152l-.292 4.649.088 4.678v3.216h-4.357zm8.509-3.509c.76 0 1.433-.175 2.017-.526.604-.351 1.082-.848 1.433-1.491.37-.663.555-1.443.555-2.339 0-.916-.185-1.696-.555-2.339-.351-.643-.828-1.14-1.433-1.491-.585-.351-1.257-.526-2.017-.526s-1.443.175-2.047.526-1.082.848-1.433 1.491-.526 1.423-.526 2.339c0 .897.175 1.676.526 2.339.351.643.829 1.14 1.433 1.491s1.287.526 2.047.526zm15.451.292l.117-5.556 7.339-6.959h5.439l-7.047 7.164-2.368 1.93-3.48 3.421zm-3.772 3.216V31.082h4.561v21.696h-4.561zm11.725 0l-5.322-6.608 2.865-3.538 7.983 10.146h-5.526zm14.728.234c-1.793 0-3.372-.351-4.737-1.053-1.345-.702-2.388-1.657-3.129-2.866-.741-1.228-1.111-2.622-1.111-4.181 0-1.579.361-2.973 1.082-4.181a7.74 7.74 0 0 1 3.012-2.866c1.267-.702 2.7-1.053 4.298-1.053 1.54 0 2.924.331 4.152.994 1.248.643 2.232 1.579 2.953 2.807.721 1.209 1.082 2.661 1.082 4.357l-.029.614-.059.614H84.146v-2.661h10.38l-1.754.79c0-.819-.166-1.53-.497-2.135s-.79-1.072-1.374-1.403c-.585-.351-1.267-.526-2.047-.526s-1.472.175-2.076.526c-.585.331-1.043.809-1.374 1.433-.331.604-.497 1.326-.497 2.164v.702c0 .858.185 1.618.556 2.281.39.643.926 1.14 1.608 1.491.702.331 1.52.497 2.456.497.838 0 1.569-.127 2.193-.38.643-.253 1.228-.633 1.754-1.14l2.427 2.632c-.721.819-1.628 1.452-2.719 1.901-1.092.429-2.349.643-3.772.643zm-.672-18.129c-.721 0-1.316-.234-1.784-.702-.448-.468-.672-1.062-.672-1.784 0-.702.224-1.287.672-1.754.468-.468 1.062-.702 1.784-.702.702 0 1.287.234 1.754.702s.702 1.053.702 1.754c0 .721-.234 1.316-.702 1.784s-1.053.702-1.754.702z"/><path d="M2.427 25V4.532h9.298c2.222 0 4.181.429 5.877 1.287 1.696.838 3.021 2.018 3.977 3.538s1.433 3.324 1.433 5.409c0 2.066-.478 3.869-1.433 5.409-.955 1.521-2.281 2.71-3.977 3.567-1.696.838-3.655 1.257-5.877 1.257H2.427zm4.737-3.889h4.328c1.364 0 2.544-.253 3.538-.76 1.014-.526 1.793-1.267 2.339-2.222.565-.955.848-2.076.848-3.363 0-1.306-.283-2.427-.848-3.363-.546-.955-1.326-1.686-2.339-2.193-.994-.526-2.174-.789-3.538-.789H7.164v12.69zM26.263 25V9.269h4.562V25h-4.562zm2.281-17.924c-.838 0-1.52-.244-2.047-.731a2.37 2.37 0 0 1-.789-1.813 2.37 2.37 0 0 1 .789-1.813c.526-.487 1.209-.731 2.047-.731s1.52.234 2.047.702c.526.448.789 1.033.789 1.754 0 .76-.263 1.394-.789 1.901-.507.487-1.189.731-2.047.731zm13.912 23.831c-1.481 0-2.914-.185-4.298-.556-1.364-.351-2.505-.887-3.421-1.608l1.813-3.275c.663.546 1.501.975 2.515 1.287 1.033.331 2.047.497 3.041.497 1.618 0 2.788-.361 3.509-1.082.741-.721 1.111-1.793 1.111-3.216v-2.368l.292-3.947-.059-3.977V9.269h4.328v13.1c0 2.924-.76 5.078-2.281 6.462s-3.704 2.076-6.55 2.076zm-.702-6.667c-1.462 0-2.788-.312-3.977-.936a7.74 7.74 0 0 1-2.836-2.661c-.702-1.15-1.053-2.485-1.053-4.006 0-1.54.351-2.875 1.053-4.006a7.43 7.43 0 0 1 2.836-2.661c1.189-.624 2.515-.936 3.977-.936 1.325 0 2.495.273 3.509.819 1.014.526 1.803 1.355 2.368 2.485.565 1.111.848 2.544.848 4.298 0 1.735-.283 3.168-.848 4.298-.565 1.111-1.355 1.94-2.368 2.485s-2.183.819-3.509.819zm.906-3.743c.799 0 1.511-.156 2.135-.468.624-.331 1.111-.79 1.462-1.374s.526-1.257.526-2.018c0-.78-.175-1.452-.526-2.017-.351-.585-.838-1.033-1.462-1.345-.624-.331-1.335-.497-2.135-.497s-1.511.166-2.135.497a3.68 3.68 0 0 0-1.491 1.345c-.351.565-.526 1.238-.526 2.018 0 .76.175 1.433.526 2.018.37.585.867 1.043 1.491 1.374.624.312 1.335.468 2.135.468zM55.531 25V9.269h4.561V25h-4.561zm2.281-17.924c-.838 0-1.52-.244-2.047-.731a2.37 2.37 0 0 1-.789-1.813 2.37 2.37 0 0 1 .789-1.813c.526-.487 1.209-.731 2.047-.731s1.521.234 2.047.702c.526.448.789 1.033.789 1.754 0 .76-.263 1.394-.789 1.901-.507.487-1.189.731-2.047.731zm12.947 18.158c-1.852 0-3.294-.468-4.328-1.403-1.033-.955-1.55-2.369-1.55-4.24V5.789h4.562v13.743c0 .663.175 1.179.526 1.55.351.351.828.526 1.433.526.721 0 1.335-.195 1.842-.585l1.228 3.217c-.468.331-1.033.585-1.696.76-.643.156-1.316.234-2.017.234zm-8.304-12.105V9.62h10.907v3.509H62.455zM86.682 25v-3.07l-.292-.672V15.76c0-.975-.302-1.735-.906-2.281-.585-.546-1.491-.819-2.719-.819-.838 0-1.667.136-2.485.409-.799.253-1.481.604-2.047 1.053l-1.638-3.187c.858-.604 1.891-1.072 3.1-1.404a13.87 13.87 0 0 1 3.684-.497c2.398 0 4.259.565 5.585 1.696s1.988 2.895 1.988 5.292V25h-4.269zm-4.795.234c-1.228 0-2.281-.205-3.158-.614-.877-.429-1.55-1.004-2.017-1.725s-.702-1.53-.702-2.427c0-.936.224-1.754.672-2.456.468-.702 1.199-1.248 2.193-1.637.994-.409 2.29-.614 3.889-.614h4.181v2.661h-3.684c-1.072 0-1.813.175-2.222.526-.39.351-.585.79-.585 1.316a1.69 1.69 0 0 0 .672 1.403c.468.331 1.101.497 1.901.497.76 0 1.443-.175 2.047-.526.604-.37 1.043-.907 1.316-1.608l.702 2.105c-.331 1.014-.936 1.784-1.813 2.31s-2.008.789-3.392.789zM95.08 25V3.304h4.561V25H95.08z"/></g><g clip-path="url(#B)"><path d="M129.619 31.112c2.191 5.106-.172 11.021-5.278 13.212l-2.239.96c-5.106 2.191-11.021-.172-13.212-5.278l-6.05-14.101c-2.191-5.106.172-11.021 5.278-13.212l2.239-.96c5.106-2.191 11.021.172 13.212 5.278l6.05 14.101z" fill="#6d6d6d"/><path d="M110.721 20.686a1.98 1.98 0 0 1 1.038-2.596c1.003-.431 2.165.034 2.596 1.037l1.608 3.749c.431 1.003-.033 2.166-1.037 2.596s-2.165-.034-2.596-1.037l-1.609-3.749z" fill="#ffa317"/><g fill="#fff"><path d="M110.142 11.234l-2.238.96a10.62 10.62 0 0 0-5.563 13.925l6.05 14.101a10.62 10.62 0 0 0 13.925 5.563l2.239-.961a10.62 10.62 0 0 0 5.563-13.925l-6.051-14.101a10.62 10.62 0 0 0-13.925-5.563zm4.57 13.739c-.726.312-1.571-.026-1.883-.752l-1.609-3.749c-.311-.727.026-1.572.753-1.883s1.571.026 1.883.752l1.609 3.749c.311.727-.026 1.572-.753 1.883zm14.408 6.353a9.53 9.53 0 0 1-4.993 12.499l-2.239.96a9.53 9.53 0 0 1-12.499-4.993l-6.05-14.101a9.53 9.53 0 0 1 4.993-12.499l.621-.266 2.116 4.933c-.939.674-1.321 1.935-.846 3.04l1.608 3.749c.475 1.105 1.651 1.698 2.787 1.481l.951 2.217.998-.428-.951-2.217c.939-.674 1.321-1.935.846-3.04l-1.608-3.749c-.475-1.105-1.651-1.698-2.787-1.481l-2.117-4.933.621-.266a9.53 9.53 0 0 1 12.499 4.993l6.05 14.101zm-5.85 10.504l.429.998c4.272-1.833 6.257-6.801 4.423-11.074l-.997.428a7.36 7.36 0 0 1-3.855 9.648zm-6.132-12.581l-.998.428.856 1.996.998-.428-.856-1.996z"/></g></g></g><defs><clipPath id="A"><path fill="#fff" d="M0 0h131v55H0z"/></clipPath><clipPath id="B"><path fill="#fff" transform="matrix(.918976 -.394312 .394312 .918976 92.229 18.9208)" d="M0 0h36.55v36.55H0z"/></clipPath></defs></svg>