<svg xmlns="http://www.w3.org/2000/svg" width="184" height="78" fill="none" xmlns:v="https://vecta.io/nano"><g clip-path="url(#A)"><path d="M3.32 72V44h12.12c2.507 0 4.667.413 6.48 1.24 1.813.8 3.213 1.96 4.2 3.48s1.48 3.333 1.48 5.44c0 2.08-.493 3.88-1.48 5.4-.987 1.493-2.387 2.64-4.2 3.44s-3.973 1.2-6.48 1.2H6.92l2.88-2.84V72H3.32zm17.8 0l-7-10.16h6.92L28.12 72h-7zM9.8 62.08l-2.88-3.04h8.16c2 0 3.493-.427 4.48-1.28.987-.88 1.48-2.08 1.48-3.6 0-1.547-.493-2.747-1.48-3.6s-2.48-1.28-4.48-1.28H6.92L9.8 46.2v15.88zm32.734 10.24c-2.293 0-4.333-.48-6.12-1.44-1.76-.96-3.16-2.267-4.2-3.92-1.013-1.68-1.52-3.587-1.52-5.72 0-2.16.507-4.067 1.52-5.72a10.8 10.8 0 0 1 4.2-3.92c1.787-.96 3.827-1.44 6.12-1.44 2.267 0 4.293.48 6.08 1.44 1.787.933 3.187 2.227 4.2 3.88s1.52 3.573 1.52 5.76c0 2.133-.507 4.04-1.52 5.72-1.013 1.653-2.413 2.96-4.2 3.92s-3.813 1.44-6.08 1.44zm0-5.12c1.04 0 1.973-.24 2.8-.72s1.48-1.16 1.96-2.04c.48-.907.72-1.973.72-3.2 0-1.253-.24-2.32-.72-3.2s-1.133-1.56-1.96-2.04-1.76-.72-2.8-.72-1.973.24-2.8.72-1.493 1.16-2 2.04c-.48.88-.72 1.947-.72 3.2 0 1.227.24 2.293.72 3.2.507.88 1.173 1.56 2 2.04s1.76.72 2.8.72zm28.691 5.12c-1.893 0-3.52-.4-4.88-1.2s-2.4-2.013-3.12-3.64c-.72-1.653-1.08-3.733-1.08-6.24 0-2.533.373-4.613 1.12-6.24.773-1.627 1.84-2.84 3.2-3.64s2.947-1.2 4.76-1.2c2.027 0 3.84.453 5.44 1.36 1.627.907 2.907 2.187 3.84 3.84.96 1.653 1.44 3.613 1.44 5.88 0 2.24-.48 4.187-1.44 5.84-.933 1.653-2.213 2.947-3.84 3.88-1.6.907-3.413 1.36-5.44 1.36zM58.505 72V42.32h6.24v12.52l-.4 6.36.12 6.4V72h-5.96zm11.64-4.8c1.04 0 1.96-.24 2.76-.72.827-.48 1.48-1.16 1.96-2.04.507-.907.76-1.973.76-3.2 0-1.253-.253-2.32-.76-3.2-.48-.88-1.133-1.56-1.96-2.04-.8-.48-1.72-.72-2.76-.72s-1.973.24-2.8.72-1.48 1.16-1.96 2.04-.72 1.947-.72 3.2c0 1.227.24 2.293.72 3.2.48.88 1.133 1.56 1.96 2.04s1.76.72 2.8.72zm21.137.4l.16-7.6 10.04-9.52h7.44l-9.64 9.8-3.24 2.64-4.76 4.68zm-5.16 4.4V42.32h6.24V72h-6.24zm16.04 0l-7.28-9.04 3.92-4.84L109.722 72h-7.56zm20.148.32c-2.453 0-4.613-.48-6.48-1.44-1.84-.96-3.267-2.267-4.28-3.92-1.013-1.68-1.52-3.587-1.52-5.72 0-2.16.493-4.067 1.48-5.72 1.013-1.68 2.387-2.987 4.12-3.92 1.733-.96 3.693-1.44 5.88-1.44 2.107 0 4 .453 5.68 1.36 1.707.88 3.053 2.16 4.04 3.84.987 1.653 1.48 3.64 1.48 5.96l-.04.84-.08.84h-17.48v-3.64h14.2l-2.4 1.08c0-1.12-.227-2.093-.68-2.92s-1.08-1.467-1.88-1.92c-.8-.48-1.733-.72-2.8-.72s-2.013.24-2.84.72a4.76 4.76 0 0 0-1.88 1.96c-.453.827-.68 1.813-.68 2.96v.96c0 1.173.253 2.213.76 3.12.533.88 1.267 1.56 2.2 2.04.96.453 2.08.68 3.36.68 1.147 0 2.147-.173 3-.52.88-.347 1.68-.867 2.4-1.56l3.32 3.6c-.987 1.12-2.227 1.987-3.72 2.6-1.493.587-3.213.88-5.16.88zm-.92-24.8c-.987 0-1.8-.32-2.44-.96-.613-.64-.92-1.453-.92-2.44 0-.96.307-1.76.92-2.4.64-.64 1.453-.96 2.44-.96.96 0 1.76.32 2.4.96s.96 1.44.96 2.4c0 .987-.32 1.8-.96 2.44s-1.44.96-2.4.96z" fill="#481a72"/><path d="M3.32 34V6h12.72c3.04 0 5.72.587 8.04 1.76 2.32 1.147 4.133 2.76 5.44 4.84s1.96 4.547 1.96 7.4c0 2.827-.653 5.293-1.96 7.4-1.307 2.08-3.12 3.707-5.44 4.88-2.32 1.147-5 1.72-8.04 1.72H3.32zm6.48-5.32h5.92c1.867 0 3.48-.347 4.84-1.04 1.387-.72 2.453-1.733 3.2-3.04.773-1.307 1.16-2.84 1.16-4.6 0-1.787-.387-3.32-1.16-4.6-.747-1.307-1.813-2.307-3.2-3-1.36-.72-2.973-1.08-4.84-1.08H9.8v17.36zM35.927 34V12.48h6.24V34h-6.24zm3.12-24.52c-1.147 0-2.08-.333-2.8-1A3.24 3.24 0 0 1 35.167 6a3.24 3.24 0 0 1 1.08-2.48c.72-.667 1.653-1 2.8-1s2.08.32 2.8.96c.72.613 1.08 1.413 1.08 2.4 0 1.04-.36 1.907-1.08 2.6-.693.667-1.627 1-2.8 1zm19.031 32.6c-2.027 0-3.987-.253-5.88-.76-1.867-.48-3.427-1.213-4.68-2.2l2.48-4.48c.907.747 2.053 1.333 3.44 1.76 1.413.453 2.8.68 4.16.68 2.213 0 3.813-.493 4.8-1.48 1.013-.987 1.52-2.453 1.52-4.4v-3.24l.4-5.4-.08-5.44v-4.64h5.92V30.4c0 4-1.04 6.947-3.12 8.84s-5.067 2.84-8.96 2.84zm-.96-9.12c-2 0-3.813-.427-5.44-1.28-1.6-.88-2.893-2.093-3.88-3.64-.96-1.573-1.44-3.4-1.44-5.48 0-2.107.48-3.933 1.44-5.48.987-1.573 2.28-2.787 3.88-3.64 1.627-.853 3.44-1.28 5.44-1.28 1.813 0 3.413.373 4.8 1.12 1.387.72 2.467 1.853 3.24 3.4.773 1.52 1.16 3.48 1.16 5.88 0 2.373-.387 4.333-1.16 5.88-.773 1.52-1.853 2.653-3.24 3.4s-2.987 1.12-4.8 1.12zm1.24-5.12c1.093 0 2.067-.213 2.92-.64.853-.453 1.52-1.08 2-1.88s.72-1.72.72-2.76c0-1.067-.24-1.987-.72-2.76-.48-.8-1.147-1.413-2-1.84-.853-.453-1.827-.68-2.92-.68s-2.067.227-2.92.68c-.853.427-1.533 1.04-2.04 1.84-.48.773-.72 1.693-.72 2.76 0 1.04.24 1.96.72 2.76a5.33 5.33 0 0 0 2.04 1.88c.853.427 1.827.64 2.92.64zM75.966 34V12.48h6.24V34h-6.24zm3.12-24.52c-1.147 0-2.08-.333-2.8-1A3.24 3.24 0 0 1 75.206 6a3.24 3.24 0 0 1 1.08-2.48c.72-.667 1.653-1 2.8-1s2.08.32 2.8.96c.72.613 1.08 1.413 1.08 2.4 0 1.04-.36 1.907-1.08 2.6-.693.667-1.627 1-2.8 1zm17.711 24.84c-2.533 0-4.507-.64-5.92-1.92-1.413-1.307-2.12-3.24-2.12-5.8V7.72h6.24v18.8c0 .907.24 1.613.72 2.12.48.48 1.133.72 1.96.72.987 0 1.827-.267 2.52-.8l1.68 4.4c-.64.453-1.413.8-2.32 1.04-.88.213-1.8.32-2.76.32zm-11.36-16.56v-4.8h14.92v4.8h-14.92zM118.58 34v-4.2l-.4-.92v-7.52c0-1.333-.413-2.373-1.24-3.12-.8-.747-2.04-1.12-3.72-1.12-1.147 0-2.28.187-3.4.56-1.093.347-2.027.827-2.8 1.44l-2.24-4.36c1.173-.827 2.587-1.467 4.24-1.92s3.333-.68 5.04-.68c3.28 0 5.827.773 7.64 2.32s2.72 3.96 2.72 7.24V34h-5.84zm-6.56.32c-1.68 0-3.12-.28-4.32-.84-1.2-.587-2.12-1.373-2.76-2.36s-.96-2.093-.96-3.32c0-1.28.307-2.4.92-3.36.64-.96 1.64-1.707 3-2.24 1.36-.56 3.133-.84 5.32-.84h5.72V25h-5.04c-1.467 0-2.48.24-3.04.72a2.32 2.32 0 0 0-.8 1.8c0 .8.307 1.44.92 1.92.64.453 1.507.68 2.6.68 1.04 0 1.973-.24 2.8-.72.827-.507 1.427-1.24 1.8-2.2l.96 2.88c-.453 1.387-1.28 2.44-2.48 3.16s-2.747 1.08-4.64 1.08zm18.048-.32V4.32h6.24V34h-6.24z" fill="#6d6d6d"/><g clip-path="url(#B)"><path d="M177.317 42.561c2.997 6.985-.236 15.077-7.221 18.074l-3.062 1.314c-6.985 2.997-15.077-.236-18.074-7.221l-8.277-19.289c-2.997-6.985.236-15.077 7.221-18.074l3.062-1.314c6.985-2.997 15.077.236 18.074 7.221l8.277 19.289z" fill="#6d6d6d"/><path d="M151.465 28.298c-.589-1.372.047-2.963 1.419-3.551s2.963.046 3.552 1.419l2.2 5.129c.589 1.373-.046 2.962-1.419 3.551s-2.962-.046-3.551-1.419l-2.201-5.129z" fill="#ffa317"/><g fill="#214245"><path d="M150.673 15.369l-3.062 1.314c-7.35 3.154-10.764 11.699-7.61 19.049l8.277 19.289c3.153 7.35 11.699 10.764 19.049 7.61l3.062-1.314c7.35-3.154 10.764-11.699 7.61-19.049l-8.277-19.289c-3.153-7.35-11.699-10.764-19.049-7.61zm6.252 18.794c-.994.427-2.15-.035-2.577-1.029l-2.2-5.129c-.427-.994.035-2.15 1.029-2.576s2.15.035 2.576 1.029l2.201 5.129c.426.994-.035 2.15-1.029 2.576zm19.709 8.691c2.831 6.597-.233 14.268-6.831 17.099l-3.062 1.314a13.04 13.04 0 0 1-17.099-6.831l-8.276-19.289c-2.831-6.597.233-14.268 6.831-17.099l.848-.364 2.896 6.748c-1.285.922-1.807 2.647-1.158 4.159l2.2 5.129c.649 1.512 2.259 2.322 3.813 2.026l1.301 3.032 1.365-.586-1.302-3.032c1.286-.922 1.807-2.647 1.159-4.159l-2.201-5.129a3.45 3.45 0 0 0-3.812-2.026l-2.896-6.748.849-.364a13.04 13.04 0 0 1 17.099 6.831l8.276 19.29zm-8.002 14.369l.586 1.365a11.55 11.55 0 0 0 6.051-15.148l-1.364.586c2.185 5.092-.181 11.013-5.273 13.198zm-8.39-17.211l-1.364.586 1.171 2.73 1.365-.586-1.172-2.73z"/></g></g></g><defs><clipPath id="A"><path fill="#fff" d="M0 0h184v78H0z"/></clipPath><clipPath id="B"><path fill="#fff" transform="matrix(.918976 -.394312 .394312 .918976 126.168 25.8834)" d="M0 0h50v50H0z"/></clipPath></defs></svg>