<svg width="184" height="78" viewBox="0 0 184 78" fill="none" xmlns="http://www.w3.org/2000/svg">
<path fill-rule="evenodd" clip-rule="evenodd" d="M67.275 18C66.0188 18 65 19.0188 65 20.275V23.6H105V20.275C105 19.0188 103.981 18 102.725 18H67.275ZM65 25.2V52.4C65 52.8438 65.3594 53.2 65.8 53.2H104.2C104.644 53.2 105 52.8438 105 52.4V25.2H65ZM77.075 31.575C77.2813 31.5781 77.4719 31.6406 77.625 31.8L82.925 37.25L77.5 42.55C77.3438 42.7 77.1531 42.775 76.95 42.775C76.7406 42.775 76.5313 42.6844 76.375 42.525C76.0656 42.2094 76.0594 41.7094 76.375 41.4L80.675 37.225L76.5 32.925C76.1906 32.6094 76.1844 32.1094 76.5 31.8C76.6594 31.6438 76.8688 31.5719 77.075 31.575ZM83.4 41.2H93.8C94.2438 41.2 94.6 41.5563 94.6 42C94.6 42.4438 94.2438 42.8 93.8 42.8H83.4C82.9594 42.8 82.6 42.4438 82.6 42C82.6 41.5563 82.9594 41.2 83.4 41.2Z" fill="#481A72"/>
<path d="M117.106 43H114.294L114.312 40.7852H117.106C117.745 40.7852 118.284 40.6387 118.724 40.3457C119.163 40.0469 119.497 39.6074 119.726 39.0273C119.954 38.4414 120.068 37.7295 120.068 36.8916V36.3027C120.068 35.6699 120.004 35.1133 119.875 34.6328C119.746 34.1465 119.556 33.7393 119.304 33.4111C119.052 33.083 118.738 32.8369 118.363 32.6729C117.994 32.5088 117.569 32.4268 117.089 32.4268H114.241V30.2031H117.089C117.956 30.2031 118.747 30.3496 119.462 30.6426C120.183 30.9355 120.804 31.3545 121.325 31.8994C121.853 32.4443 122.26 33.0889 122.547 33.833C122.834 34.5771 122.978 35.4062 122.978 36.3203V36.8916C122.978 37.7998 122.834 38.6289 122.547 39.3789C122.26 40.123 121.853 40.7676 121.325 41.3125C120.804 41.8516 120.186 42.2676 119.471 42.5605C118.756 42.8535 117.968 43 117.106 43ZM115.92 30.2031V43H113.055V30.2031H115.92ZM129.209 30.2031H134.122C135.101 30.2031 135.947 30.3496 136.662 30.6426C137.383 30.9355 137.937 31.3691 138.323 31.9434C138.71 32.5176 138.903 33.2266 138.903 34.0703C138.903 34.7734 138.789 35.3711 138.561 35.8633C138.332 36.3555 138.01 36.7627 137.594 37.085C137.184 37.4072 136.703 37.668 136.152 37.8672L135.221 38.377H131.037L131.02 36.1533H134.131C134.559 36.1533 134.913 36.0771 135.194 35.9248C135.476 35.7725 135.687 35.5586 135.827 35.2832C135.974 35.002 136.047 34.6738 136.047 34.2988C136.047 33.9121 135.974 33.5781 135.827 33.2969C135.681 33.0156 135.464 32.8018 135.177 32.6553C134.896 32.5029 134.544 32.4268 134.122 32.4268H132.074V43H129.209V30.2031ZM136.293 43L133.419 37.3135L136.442 37.3047L139.36 42.8682V43H136.293Z" fill="#481A72"/>
<path d="M92.5 4.2698L21.4134 29.65L20 28.885L92.5 3L165 28.885L163.587 29.65L92.5 4.2698ZM92.5 73.7297L163.587 48.35L165 49.115L92.5 75L20 49.115L21.4134 48.35L92.5 73.7297Z" fill="#481A72"/>
</svg>
