<svg xmlns="http://www.w3.org/2000/svg" xmlns:xlink="http://www.w3.org/1999/xlink" width="212" height="78" fill="none" xmlns:v="https://vecta.io/nano"><g clip-path="url(#A)"><path d="M176.066 38.293v21.953c0 3.8 5.501 5.789 10.934 5.789s10.934-1.988 10.934-5.789V38.293h-21.868z" fill="#4e565a"/><path d="M187 38.293h-10.934v18.549a11.43 11.43 0 0 0 2.192 1.336c2.083.986 4.72 1.584 7.527 1.718.682.033 1.215.602 1.215 1.284v4.855c5.433 0 10.934-1.988 10.934-5.789v-3.405-18.548H187z" fill="#3e474c"/><path d="M176.066 51.242c0 3.8 5.501 5.789 10.934 5.789s10.934-1.988 10.934-5.789v-2.658h-21.868v2.658z" fill="#ada999"/><path d="M187 48.584v8.447c5.433 0 10.934-1.988 10.934-5.789v-2.658H187h0z" fill="#848075"/><path d="M166.74 43.846c0 4.795 9.071 8.683 20.26 8.683s20.26-3.887 20.26-8.683-9.071-8.683-20.26-8.683-20.26 3.888-20.26 8.683zm11.256-.965c0-2.131 4.031-3.859 9.004-3.859s9.004 1.728 9.004 3.859-4.031 3.859-9.004 3.859-9.004-1.728-9.004-3.859z" fill="#4e565a"/><path d="M172.343 47.31c3.573 1.258 8.153 2.078 12.588 2.277l.544.018c.696.017 1.057-.825.564-1.317l-1.722-1.722c-3.662-.489-6.321-1.954-6.321-3.685 0-2.131 4.031-3.859 9.004-3.859v-3.859c-11.189 0-20.259 3.887-20.26 8.682.015.251 1.048 1.861 5.603 3.465z" fill="#5f6568"/><path d="M188.589 40.051c.472-.475.842-.95 1.18-1.426s.637-.951.903-1.427a16.74 16.74 0 0 0 1.259-2.856c.641-1.905.917-3.812.927-5.72s-.259-3.817-.89-5.728c-.312-.955-.724-1.911-1.249-2.868-.264-.478-.564-.957-.901-1.435l-.014-.019a1.44 1.44 0 0 0-2.342-.007 15.57 15.57 0 0 0-.918 1.443 16.6 16.6 0 0 0-1.261 2.856c-.639 1.905-.912 3.812-.915 5.72a18.11 18.11 0 0 0 .903 5.728 16.83 16.83 0 0 0 1.247 2.868 15.47 15.47 0 0 0 .897 1.435c.335.478.703.957 1.174 1.436z" fill="#d5d2bd"/><path d="M187.681 24.985c.104-.433.492-.738.937-.738s.835.307.939.741a15.26 15.26 0 0 1 .407 3.618c-.007 1.259-.144 2.426-.418 3.568-.104.434-.492.74-.938.74s-.836-.308-.939-.743c-.272-1.15-.405-2.321-.406-3.583a15.15 15.15 0 0 1 .418-3.602z" fill="#bd7155"/><path d="M189.573 36.449l-.45.016c-1.257.087-2.445-.567-3.005-1.696l-.056-.114c-.903-1.804-2.063-3.348-3.409-4.704s-2.89-2.511-4.687-3.409a16.53 16.53 0 0 0-2.908-1.132 15.39 15.39 0 0 0-1.649-.369l-.017-.003c-.976-.164-1.82.685-1.652 1.659l.005.03a15.73 15.73 0 0 0 .377 1.657 16.82 16.82 0 0 0 1.143 2.92c.905 1.803 2.066 3.345 3.418 4.695s2.897 2.503 4.695 3.4a16.3 16.3 0 0 0 1.672.727.65.65 0 0 1 .391.808 6.41 6.41 0 0 0-.3 1.945 6.4 6.4 0 0 0 1.159 3.682c.853.115 1.759.177 2.7.177 4.973 0 9.004-1.728 9.004-3.859 0-1.776.18-4.027-.983-5.191s-3.672-1.241-5.448-1.241z" fill="#e7e4cd"/><path d="M196.013 41.337c-.005-.659-.039-1.323-.163-1.929h-2.257-.193c-.533 0-.965.432-.965.965s.432.965.965.965h.193v.014a2.31 2.31 0 0 1-1.493 2.164c-1.138.427-2.863.812-5.1.812-1.494 0-2.76-.172-3.776-.413a6.4 6.4 0 0 0 1.077 2.648 20.29 20.29 0 0 0 2.699.177c4.973 0 9.004-1.728 9.004-3.859l.009-1.544z" fill="#c1bdab"/><path d="M177.771 29.749a.96.96 0 0 0-1.183.142.97.97 0 0 0-.14 1.191c.626 1.022 1.367 1.955 2.268 2.855.894.888 1.815 1.619 2.815 2.235a.96.96 0 0 0 1.185-.141.97.97 0 0 0 .139-1.193c-.621-1.009-1.354-1.934-2.244-2.83-.897-.899-1.826-1.638-2.84-2.259z" fill="#ce9276"/><use xlink:href="#B" fill="#47423f"/><g fill="#000"><path d="M170.791 26.875l.003.017c.105.606.24 1.198.401 1.761a17.86 17.86 0 0 0 1.208 3.084c.914 1.823 2.091 3.441 3.6 4.947 1.514 1.504 3.131 2.674 4.941 3.577l1.493.664c-.173.633-.261 1.287-.261 1.954 0 .812.132 1.607.387 2.361-2.277-.601-3.603-1.594-3.603-2.361 0-.268.155-.556.461-.855.38-.373.386-.984.013-1.364s-.984-.386-1.364-.013c-.68.666-1.039 1.439-1.039 2.233 0 2.622 3.896 4.627 9.184 4.809l.117.004.668.011c5.683 0 9.969-2.074 9.969-4.824l.005-.625c.02-1.752.045-3.933-1.271-5.249-.784-.783-1.931-1.17-3.228-1.357.135-.333.259-.667.37-1.001.646-1.921.966-3.891.978-6.025.006-2.128-.302-4.101-.938-6.03-.335-1.026-.779-2.046-1.322-3.035-.281-.509-.603-1.021-.952-1.518l-.019-.027c-.447-.633-1.177-1.012-1.955-1.015a2.4 2.4 0 0 0-1.953.995l-.018.025a16.36 16.36 0 0 0-.965 1.518c-.546.981-.995 1.998-1.333 3.019-.646 1.927-.962 3.898-.965 6.028.001.259.008.516.017.772l-.084-.087c-1.506-1.507-3.121-2.682-4.935-3.589-.963-.486-1.998-.889-3.08-1.198a16.44 16.44 0 0 0-1.748-.392l-.022-.003h0c-.764-.127-1.547.124-2.095.674s-.798 1.335-.667 2.1zm14.542 1.71c.003-1.917.286-3.688.866-5.418.301-.909.701-1.815 1.187-2.689.25-.447.536-.897.851-1.338l-.786-.56.796.545c.122-.17.292-.196.384-.196s.264.026.38.191l.018.026a14.82 14.82 0 0 1 .844 1.344c.484.882.88 1.791 1.179 2.706.571 1.732.847 3.506.841 5.421-.01 1.923-.297 3.695-.878 5.421-.07.211-.147.421-.227.631-.433-.719-.921-1.723-1.235-2.958-.237-.933-.355-1.952-.361-3.113a13.33 13.33 0 0 1 .354-3.161c.124-.518-.196-1.039-.714-1.162s-1.039.196-1.162.714c-.278 1.163-.411 2.346-.408 3.617.008 1.322.145 2.493.421 3.58.344 1.354.869 2.475 1.359 3.317-.874.056-1.681-.4-2.06-1.163l-.058-.116a18.45 18.45 0 0 0-1.243-2.121c-.228-1.126-.346-2.309-.348-3.517zm-12.51-2.461a.46.46 0 0 1 .41-.133c.55.093 1.07.209 1.559.348.963.276 1.885.634 2.743 1.067a16.82 16.82 0 0 1 4.433 3.226c1.357 1.366 2.414 2.823 3.233 4.46l.053.106a3.9 3.9 0 0 0 .165.298h-.443a1.83 1.83 0 0 1-.171-.008c-.162-.015-.318-.05-.463-.103a10.97 10.97 0 0 1-1.813-.866c-.825-.493-1.629-1.133-2.453-1.952-.791-.789-1.439-1.605-1.983-2.494-.279-.455-.873-.598-1.327-.32s-.598.872-.319 1.326c.625 1.022 1.366 1.955 2.267 2.855.939.933 1.864 1.666 2.826 2.241.672.401 1.39.744 2.134 1.019.302.112.623.184.952.214.116.011.234.016.35.016h3.589c.206.016.414.018.625.003a5.57 5.57 0 0 1 .383-.013c1.139 0 3.808 0 4.766.958.253.253.416.614.522 1.036H193.4c-.533 0-.965.432-.965.965s.432.965.965.965h1.648l-.003.897-.005.647c0 1.18-3.132 2.894-8.04 2.894-.171 0-.342-.003-.512-.007l-.107-.004-.421-.017-.083-.005-.48-.032-.532-.051a5.43 5.43 0 0 1-.316-4.938c.107-.249.104-.531-.007-.778a.96.96 0 0 0-.579-.52 15.59 15.59 0 0 1-2.154-.887c-1.627-.811-3.081-1.865-4.445-3.22-1.358-1.356-2.416-2.81-3.238-4.448a15.96 15.96 0 0 1-1.077-2.751 14.75 14.75 0 0 1-.354-1.555l-.005-.028c-.035-.207.068-.347.133-.412z"/><use xlink:href="#B"/><path d="M197.195 35.347c-.519-.126-1.04.192-1.166.71s.193 1.039.711 1.165c5.804 1.409 9.555 4.008 9.555 6.624 0 1.881-1.95 3.796-5.349 5.253-3.709 1.59-8.662 2.465-13.946 2.465s-10.237-.876-13.946-2.465c-3.399-1.457-5.349-3.371-5.349-5.253 0-2.068 2.39-4.187 6.393-5.669.5-.185.755-.74.57-1.24s-.739-.755-1.239-.57c-4.935 1.827-7.654 4.483-7.654 7.478 0 2.729 2.315 5.225 6.519 7.026.876.375 1.816.713 2.807 1.012v8.362c0 2.133 1.414 3.976 3.982 5.191C181.211 66.445 184.023 67 187 67s5.789-.555 7.917-1.562c2.568-1.215 3.982-3.059 3.982-5.191v-8.363a26.73 26.73 0 0 0 2.807-1.012c4.204-1.802 6.519-4.297 6.519-7.026 0-3.646-4.124-6.823-11.03-8.499zM187 65.07c-4.833 0-9.969-1.691-9.969-4.824v-5.108c.494.421 1.081.806 1.757 1.151a.96.96 0 0 0 .437.105c.351 0 .69-.193.86-.528.242-.475.053-1.056-.422-1.297-.871-.444-1.864-1.131-2.343-2.103 2.954.671 6.256 1.027 9.68 1.027s6.729-.356 9.685-1.028c-1.14 2.348-5.525 3.6-9.685 3.6a20.44 20.44 0 0 1-3.646-.32c-.525-.096-1.026.252-1.122.777s.253 1.026.777 1.122c1.282.233 2.625.351 3.991.351 2.977 0 5.788-.555 7.917-1.562.798-.378 1.485-.816 2.052-1.305v5.118c0 3.133-5.136 4.824-9.969 4.824z"/></g></g><path d="M45.64 44l-9.16 28h-6.96l-6.16-18.96L17 72h-6.92L.88 44H7.6l6.32 19.68L20.52 44h6l6.4 19.84L39.44 44h6.2zm3.568 6.48h6.24V72h-6.24V50.48zm3.12-3c-1.147 0-2.08-.333-2.8-1a3.24 3.24 0 0 1-1.08-2.48 3.24 3.24 0 0 1 1.08-2.48c.72-.667 1.653-1 2.8-1s2.08.32 2.8.96 1.08 1.44 1.08 2.4c0 1.04-.36 1.907-1.08 2.6-.72.667-1.653 1-2.8 1zM78.959 67.2V72h-19.2v-3.76l10.96-12.96h-10.68v-4.8h18.56v3.76L67.639 67.2h11.32zm12.679-17.04c3.333 0 5.893.8 7.68 2.4 1.787 1.573 2.68 3.96 2.68 7.16V72h-5.84v-2.68c-1.173 2-3.36 3-6.56 3-1.653 0-3.093-.28-4.32-.84-1.2-.56-2.12-1.333-2.76-2.32s-.96-2.107-.96-3.36c0-2 .747-3.573 2.24-4.72 1.52-1.147 3.853-1.72 7-1.72h4.96c0-1.36-.413-2.4-1.24-3.12-.827-.747-2.067-1.12-3.72-1.12a10.69 10.69 0 0 0-3.4.56c-1.093.347-2.027.827-2.8 1.44l-2.24-4.36c1.173-.827 2.573-1.467 4.2-1.92 1.653-.453 3.347-.68 5.08-.68zm-.48 17.96c1.067 0 2.013-.24 2.84-.72.827-.507 1.413-1.24 1.76-2.2V63h-4.28c-2.56 0-3.84.84-3.84 2.52 0 .8.307 1.44.92 1.92.64.453 1.507.68 2.6.68zm22.448-14.8c.746-1.04 1.746-1.827 3-2.36 1.28-.533 2.746-.8 4.4-.8v5.76l-1.4-.08c-1.787 0-3.187.507-4.2 1.52-1.014.987-1.52 2.48-1.52 4.48V72h-6.24V50.48h5.96v2.84zm32.835-11V72h-5.96v-2.48c-1.547 1.867-3.787 2.8-6.72 2.8-2.027 0-3.867-.453-5.52-1.36-1.627-.907-2.907-2.2-3.84-3.88s-1.4-3.627-1.4-5.84.466-4.16 1.4-5.84 2.213-2.973 3.84-3.88c1.653-.907 3.493-1.36 5.52-1.36 2.746 0 4.893.867 6.44 2.6V42.32h6.24zm-11.6 24.88c1.573 0 2.88-.533 3.92-1.6 1.04-1.093 1.56-2.547 1.56-4.36s-.52-3.253-1.56-4.32c-1.04-1.093-2.347-1.64-3.92-1.64-1.6 0-2.92.547-3.96 1.64-1.04 1.067-1.56 2.507-1.56 4.32s.52 3.267 1.56 4.36c1.04 1.067 2.36 1.6 3.96 1.6zm24.615 5.12a21.52 21.52 0 0 1-5.24-.64c-1.707-.453-3.067-1.013-4.08-1.68l2.08-4.48c.96.613 2.12 1.12 3.48 1.52a15.07 15.07 0 0 0 4 .56c2.64 0 3.96-.653 3.96-1.96 0-.613-.36-1.053-1.08-1.32s-1.827-.493-3.32-.68c-1.76-.267-3.213-.573-4.36-.92a6.9 6.9 0 0 1-3-1.84c-.827-.88-1.24-2.133-1.24-3.76 0-1.36.387-2.56 1.16-3.6.8-1.067 1.947-1.893 3.44-2.48 1.52-.587 3.307-.88 5.36-.88a19.92 19.92 0 0 1 4.52.52c1.52.32 2.773.773 3.76 1.36l-2.08 4.44c-1.893-1.067-3.96-1.6-6.2-1.6-1.333 0-2.333.187-3 .56s-1 .853-1 1.44c0 .667.36 1.133 1.08 1.4s1.867.52 3.44.76c1.76.293 3.2.613 4.32.96 1.12.32 2.093.92 2.92 1.8s1.24 2.107 1.24 3.68a5.68 5.68 0 0 1-1.2 3.56c-.8 1.04-1.973 1.853-3.52 2.44-1.52.56-3.333.84-5.44.84z" fill="#481a72"/><path d="M45.64 6l-9.16 28h-6.96l-6.16-18.96L17 34h-6.92L.88 6H7.6l6.32 19.68L20.52 6h6l6.4 19.84L39.44 6h6.2zm22.656 17.32c0 .08-.04.64-.12 1.68h-16.28c.293 1.333.987 2.387 2.08 3.16s2.453 1.16 4.08 1.16c1.12 0 2.107-.16 2.96-.48.88-.347 1.693-.88 2.44-1.6l3.32 3.6c-2.027 2.32-4.987 3.48-8.88 3.48-2.427 0-4.573-.467-6.44-1.4-1.867-.96-3.307-2.28-4.32-3.96s-1.52-3.587-1.52-5.72c0-2.107.493-4 1.48-5.68a10.5 10.5 0 0 1 4.12-3.96c1.76-.96 3.72-1.44 5.88-1.44 2.107 0 4.013.453 5.72 1.36a9.76 9.76 0 0 1 4 3.92c.987 1.68 1.48 3.64 1.48 5.88zm-11.16-6.44c-1.413 0-2.6.4-3.56 1.2s-1.547 1.893-1.76 3.28h10.6c-.213-1.36-.8-2.44-1.76-3.24-.96-.827-2.133-1.24-3.52-1.24zm28.034-4.72c2 0 3.813.467 5.44 1.4a9.7 9.7 0 0 1 3.88 3.88c.933 1.653 1.4 3.587 1.4 5.8s-.467 4.16-1.4 5.84c-.933 1.653-2.227 2.947-3.88 3.88-1.627.907-3.44 1.36-5.44 1.36-2.96 0-5.213-.933-6.76-2.8V34h-5.96V4.32h6.24v10.44c1.573-1.733 3.733-2.6 6.48-2.6zM84.09 29.2c1.6 0 2.907-.533 3.92-1.6 1.04-1.093 1.56-2.547 1.56-4.36s-.52-3.253-1.56-4.32c-1.013-1.093-2.32-1.64-3.92-1.64s-2.92.547-3.96 1.64c-1.013 1.067-1.52 2.507-1.52 4.32s.507 3.267 1.52 4.36c1.04 1.067 2.36 1.6 3.96 1.6zm23.218 5.12c-1.787 0-3.534-.213-5.24-.64-1.707-.453-3.067-1.013-4.081-1.68l2.081-4.48c.96.613 2.12 1.12 3.48 1.52a15.07 15.07 0 0 0 4 .56c2.64 0 3.96-.653 3.96-1.96 0-.613-.36-1.053-1.08-1.32s-1.827-.493-3.32-.68c-1.76-.267-3.214-.573-4.36-.92s-2.147-.96-3.001-1.84c-.827-.88-1.24-2.133-1.24-3.76 0-1.36.387-2.56 1.16-3.6.8-1.067 1.947-1.893 3.441-2.48 1.52-.587 3.306-.88 5.36-.88 1.52 0 3.026.173 4.52.52 1.52.32 2.773.773 3.76 1.36l-2.08 4.44c-1.894-1.067-3.96-1.6-6.2-1.6-1.334 0-2.334.187-3 .56s-1 .853-1 1.44c0 .667.36 1.133 1.08 1.4s1.866.52 3.44.76c1.76.293 3.2.613 4.32.96 1.12.32 2.093.92 2.92 1.8s1.24 2.107 1.24 3.68a5.68 5.68 0 0 1-1.2 3.56c-.8 1.04-1.974 1.853-3.52 2.44-1.52.56-3.334.84-5.44.84zm14.01-21.84h6.24V34h-6.24V12.48zm3.12-3c-1.147 0-2.08-.333-2.8-1a3.24 3.24 0 0 1-1.08-2.48 3.24 3.24 0 0 1 1.08-2.48c.72-.667 1.653-1 2.8-1s2.08.32 2.8.96 1.08 1.44 1.08 2.4c0 1.04-.36 1.907-1.08 2.6-.72.667-1.654 1-2.8 1zm22.791 23.48c-.614.453-1.374.8-2.28 1.04-.88.213-1.814.32-2.8.32-2.56 0-4.547-.653-5.96-1.96-1.387-1.307-2.08-3.227-2.08-5.76v-8.84h-3.32v-4.8h3.32V7.72h6.24v5.24h5.36v4.8h-5.36v8.76c0 .907.226 1.613.68 2.12.48.48 1.146.72 2 .72.986 0 1.826-.267 2.52-.8l1.68 4.4zm23.919-9.64c0 .08-.04.64-.12 1.68h-16.28c.293 1.333.986 2.387 2.08 3.16s2.453 1.16 4.08 1.16c1.12 0 2.106-.16 2.96-.48.88-.347 1.693-.88 2.44-1.6l3.32 3.6c-2.027 2.32-4.987 3.48-8.88 3.48-2.427 0-4.574-.467-6.44-1.4-1.867-.96-3.307-2.28-4.32-3.96s-1.52-3.587-1.52-5.72c0-2.107.493-4 1.48-5.68 1.013-1.707 2.386-3.027 4.12-3.96 1.76-.96 3.72-1.44 5.88-1.44 2.106 0 4.013.453 5.72 1.36s3.04 2.213 4 3.92c.986 1.68 1.48 3.64 1.48 5.88zm-11.16-6.44c-1.414 0-2.6.4-3.56 1.2s-1.547 1.893-1.76 3.28h10.6c-.214-1.36-.8-2.44-1.76-3.24-.96-.827-2.134-1.24-3.52-1.24z" fill="#6d6d6d"/><defs><clipPath id="A"><path fill="#fff" transform="translate(162 17)" d="M0 0h50v50H0z"/></clipPath><path id="B" d="M188.286 41.338c.533 0 .965-.432.965-.965s-.432-.965-.965-.965-.964.432-.964.965.432.965.964.965z"/></defs></svg>