<svg width="139" height="59" viewBox="0 0 139 59" fill="none" xmlns="http://www.w3.org/2000/svg">
<path fill-rule="evenodd" clip-rule="evenodd" d="M50.8219 13.5978C49.8729 13.5978 49.1033 14.3674 49.1033 15.3164V17.8283H79.3207V15.3164C79.3207 14.3674 78.5511 13.5978 77.602 13.5978H50.8219ZM49.1033 19.037V39.5848C49.1033 39.92 49.3748 40.1891 49.7076 40.1891H78.7163C79.0515 40.1891 79.3207 39.92 79.3207 39.5848V19.037H49.1033ZM58.2251 23.8529C58.381 23.8552 58.525 23.9024 58.6406 24.0228L62.6444 28.1399L58.5462 32.1437C58.4282 32.2571 58.2842 32.3137 58.1307 32.3137C57.9725 32.3137 57.8144 32.2453 57.6963 32.1249C57.4626 31.8864 57.4579 31.5087 57.6963 31.275L60.9447 28.1211L57.7908 24.8727C57.5571 24.6343 57.5523 24.2565 57.7908 24.0228C57.9112 23.9048 58.0693 23.8505 58.2251 23.8529ZM63.0033 31.1239H70.8598C71.195 31.1239 71.4641 31.393 71.4641 31.7283C71.4641 32.0635 71.195 32.3326 70.8598 32.3326H63.0033C62.6704 32.3326 62.3989 32.0635 62.3989 31.7283C62.3989 31.393 62.6704 31.1239 63.0033 31.1239Z" fill="white"/>
<path d="M88.4663 32.6413H86.3416L86.3549 30.9681H88.4663C88.9488 30.9681 89.356 30.8575 89.688 30.6361C90.0199 30.4104 90.2723 30.0784 90.4449 29.6402C90.6175 29.1976 90.7038 28.6598 90.7038 28.0268V27.5819C90.7038 27.1039 90.6551 26.6834 90.5578 26.3204C90.4604 25.953 90.3165 25.6454 90.1262 25.3975C89.9358 25.1497 89.699 24.9637 89.4157 24.8398C89.1369 24.7159 88.816 24.6539 88.453 24.6539H86.3018V22.9741H88.453C89.1081 22.9741 89.7057 23.0848 90.2457 23.3061C90.7901 23.5274 91.2593 23.8439 91.6533 24.2555C92.0517 24.6672 92.3593 25.1541 92.5762 25.7162C92.7931 26.2784 92.9015 26.9047 92.9015 27.5952V28.0268C92.9015 28.7129 92.7931 29.3392 92.5762 29.9058C92.3593 30.4679 92.0517 30.9548 91.6533 31.3665C91.2593 31.7737 90.7924 32.088 90.2523 32.3093C89.7123 32.5306 89.117 32.6413 88.4663 32.6413ZM87.5699 22.9741V32.6413H85.4055V22.9741H87.5699ZM97.609 22.9741H101.32C102.06 22.9741 102.699 23.0848 103.239 23.3061C103.784 23.5274 104.202 23.8549 104.494 24.2887C104.786 24.7225 104.932 25.2581 104.932 25.8955C104.932 26.4267 104.846 26.8782 104.673 27.25C104.501 27.6218 104.257 27.9294 103.943 28.1729C103.633 28.4163 103.27 28.6133 102.854 28.7638L102.15 29.1489H98.99L98.9767 27.4691H101.327C101.65 27.4691 101.918 27.4115 102.131 27.2964C102.343 27.1814 102.502 27.0198 102.609 26.8118C102.719 26.5993 102.775 26.3514 102.775 26.0681C102.775 25.776 102.719 25.5237 102.609 25.3112C102.498 25.0988 102.334 24.9372 102.117 24.8265C101.905 24.7114 101.639 24.6539 101.32 24.6539H99.7735V32.6413H97.609V22.9741ZM102.96 32.6413L100.789 28.3455L103.073 28.3389L105.278 32.5417V32.6413H102.96Z" fill="white"/>
<path d="M69.8777 3.22556L16.1765 22.3987L15.1087 21.8207L69.8777 2.26631L124.647 21.8207L123.579 22.3987L69.8777 3.22556ZM69.8777 55.698L123.579 36.5253L124.647 37.1032L69.8777 56.6576L15.1087 37.1032L16.1765 36.5253L69.8777 55.698Z" fill="white"/>
</svg>
