<svg xmlns="http://www.w3.org/2000/svg" viewBox="0 0 256 256" fill="none" xmlns:v="https://vecta.io/nano"><g clip-path="url(#B)"><path d="M157.013 86.4v139.947H98.987V86.4h58.026z" fill="#c4c8c4"/><path d="M128 86.4H98.987v139.947H128V86.4z" fill="#a5a9a6"/><g fill="#481a72"><path d="M237.116 169.6H18.884C8.455 169.6 0 161.145 0 150.716V31.471c0-10.429 8.455-18.884 18.884-18.884h218.232c10.429 0 18.884 8.455 18.884 18.884v119.245c0 10.429-8.455 18.884-18.884 18.884z"/><path d="M128 169.6H18.884C8.455 169.6 0 161.145 0 150.716V31.471c0-10.429 8.455-18.884 18.884-18.884H128V169.6z"/></g><g fill="#fef7ff"><path d="M233.813 35.685H22.187v110.818h211.626V35.685z"/><path d="M128 35.685H22.187v110.818H128V35.685z"/></g><g fill="#481a72"><path d="M186.88 243.413H69.12c-7.069 0-12.8-5.731-12.8-12.8s5.731-12.8 12.8-12.8h117.76c7.069 0 12.8 5.731 12.8 12.8s-5.731 12.8-12.8 12.8z"/><path d="M128 243.413H69.12c-7.069 0-12.8-5.731-12.8-12.8s5.731-12.8 12.8-12.8H128v25.6z"/></g><g fill="#a03774"><path d="M100.875 44.873s2.453 1.784 4.962 2.345c.359.08.525.495.313.796-.465.662-1.347 1.661-2.738 2.273-1.196.526-2.537-.386-2.537-1.693v-3.721h0z"/><path d="M96.188 41.706s1.075-.005 2.411.138a4.65 4.65 0 0 1 4.162 4.615v1.771c0 .598-.562 1.04-1.141.891-1.273-.328-3.418-.749-5.432-.524v-6.891h0z"/></g><path d="M97.163 41.708h-1.948v14.755h1.948V41.708z" fill="url(#A)"/><path d="M97.163 54.59h-1.948v1.873h1.948V54.59z" fill="#c76266"/><path d="M96.188 78.941h-13.77v24.503h13.77 13.771V78.941H96.188z" fill="#819fea"/><path d="M96.188 84.996c-2.226 0-4.032 1.805-4.032 4.032v3.418h4.032 4.032v-3.418c0-2.227-1.805-4.032-4.032-4.032z" fill="#3d63ad"/><path d="M82.418 78.227v4.148h27.541v-4.148H96.188h-13.77z" fill="#466dbc"/><path d="M99.362 55.124v1.337l-3.173.003-3.173-.003v-1.337c0-.56-.454-1.013-1.013-1.013h-2.6c-.56 0-1.013.454-1.013 1.013v20.143h7.8 7.8V55.124c0-.56-.454-1.013-1.013-1.013h-2.6c-.561 0-1.014.454-1.014 1.013z" fill="#819fea"/><path d="M96.188 60.671c-1.753 0-3.173 1.421-3.173 3.173v1.65h3.173 3.173v-1.65c0-1.753-1.421-3.173-3.173-3.173z" fill="#3d63ad"/><g fill="#c7daff"><path d="M110.426 69.744h-3.006c-.566 0-1.024.459-1.024 1.024v2.758h-6.128v-2.758c0-.566-.459-1.024-1.024-1.024h-3.056-3.055c-.566 0-1.024.459-1.024 1.024v2.758H85.98v-2.758c0-.566-.458-1.024-1.024-1.024H81.95h-3.006c-.566 0-1.024.459-1.024 1.024v2.758 5.965h18.267 18.267v-5.965-2.758c0-.566-.458-1.024-1.024-1.024h-3.005 0zm-14.238 34.434H68.351v30.117h27.837 27.837v-30.117H96.188z"/></g><g fill="#466dbc"><path d="M68.351 104.178v5.506h55.674v-5.506H96.188 68.351zm28.178 8.563a17.23 17.23 0 0 0-17.225 17.225v4.329h34.451v-4.329a17.23 17.23 0 0 0-17.226-17.225z"/></g><g fill="#c7daff"><path d="M109.994 119.229a17.29 17.29 0 0 0-2.495-2.543v10.897h-3.657V114.37a17.14 17.14 0 0 0-2.495-.941v14.154h-3.57v-14.792l-1.247-.05-1.248.05v14.792h-3.657v-14.129c-.862.255-1.696.574-2.495.955v13.174h-3.57v-10.897a17.31 17.31 0 0 0-2.495 2.543v8.354h-3.593a17.35 17.35 0 0 0-.168 2.383v.112h3.761v4.217h2.495v-4.217h3.57v4.217h2.495v-4.217h3.657v4.217h2.495v-4.217h3.57v4.217h2.495v-4.217h3.657v4.217h2.495v-4.217h3.761v-.112a17.51 17.51 0 0 0-.168-2.383h-3.593v-8.354h0zm9.392-20.323v2.828h-4.64v-2.828c0-.528-.428-.956-.956-.956h-3.683-3.683c-.528 0-.956.428-.956.956v2.828h-4.64v-2.828c0-.528-.428-.956-.956-.956h-3.683-3.683c-.528 0-.956.428-.956.956v2.828h-4.64v-2.828c0-.528-.428-.956-.956-.956h-3.683-3.683c-.528 0-.956.428-.956.956v2.828h-4.639v-2.828c0-.528-.428-.956-.956-.956h-3.683v3.785 4.411h27.837 27.836v-4.411-3.785h-3.683c-.528 0-.956.428-.956.956z"/></g><path d="M69.778 94.469l3.565 39.826H50.134l2.73-39.826h16.913z" fill="#819fea"/><path d="M67.717 85.269v2.761h-4.152v-2.761c0-.566-.459-1.024-1.024-1.024H59.95c-.566 0-1.024.458-1.024 1.024v2.761h-4.152v-2.761c0-.566-.458-1.024-1.024-1.024h-2.592c-.566 0-1.024.458-1.024 1.024v2.761 6.439h22.222V88.03v-2.761c0-.566-.459-1.024-1.024-1.024h-2.592c-.566 0-1.024.458-1.024 1.024z" fill="#c7daff"/><path d="M70.14 98.519l-.362-4.05H52.865l-.278 4.05H70.14z" fill="#466dbc"/><g fill="#3d63ad"><path d="M66.386 134.295v-6.361a4.57 4.57 0 0 0-4.568-4.568 4.57 4.57 0 0 0-4.568 4.568v6.361h9.136zm-1.732-20.191h-5.673v-3.792c0-1.567 1.27-2.836 2.836-2.836s2.836 1.27 2.836 2.836v3.792h0z"/></g><path d="M122.222 94.469l-3.564 39.826h23.208l-2.73-39.826h-16.914z" fill="#819fea"/><path d="M124.283 85.269v2.761h4.152v-2.761c0-.566.459-1.024 1.024-1.024h2.592c.565 0 1.024.458 1.024 1.024v2.761h4.152v-2.761c0-.566.458-1.024 1.023-1.024h2.592c.566 0 1.024.458 1.024 1.024v2.761 6.439h-22.222V88.03v-2.761c0-.566.458-1.024 1.024-1.024h2.591c.566 0 1.024.458 1.024 1.024z" fill="#c7daff"/><path d="M121.86 98.519l.362-4.05h16.914l.277 4.05H121.86z" fill="#466dbc"/><g fill="#3d63ad"><path d="M125.614 134.295v-6.361a4.57 4.57 0 0 1 4.568-4.568 4.57 4.57 0 0 1 4.569 4.568v6.361h-9.137zm1.732-20.191h5.673v-3.792c0-1.567-1.27-2.836-2.837-2.836s-2.836 1.27-2.836 2.836v3.792h0z"/></g><g fill="#481a72"><path d="M163 85.479l17.055-7.923v3.766l-12.898 5.649v.071l12.898 5.649v3.766L163 88.536V85.48zm19.689 12.402l7.604-25.762h3.589l-7.604 25.762h-3.589zM213 88.641l-17.055 7.818v-3.766l13.182-5.649v-.071l-13.182-5.649v-3.766L213 85.373v3.268z"/></g></g><defs><linearGradient id="A" x1="96.188" y1="43.523" x2="96.188" y2="55.736" gradientUnits="userSpaceOnUse"><stop offset=".005" stop-color="#ffc3b0"/><stop offset="1" stop-color="#e8897b"/></linearGradient><clipPath id="B"><path fill="#fff" d="M0 0h256v256H0z"/></clipPath></defs></svg>