<svg xmlns="http://www.w3.org/2000/svg" xmlns:xlink="http://www.w3.org/1999/xlink" width="406" height="306" fill="none" xmlns:v="https://vecta.io/nano"><g clip-path="url(#A)"><path opacity=".3" d="M325.59 36.741c44.693 14.446 79.345 55.063 88.36 105.871 7.579 42.806-5.007 95.447-78.442 119.88-74.954 24.953-284.549 36.937-323.524-32.45S-18.783 71.557 61.137 39.983c56.021-22.135 177.159-31.478 264.453-3.242z" fill="#e6e6e6"/><use xlink:href="#B" fill="#f4a28c"/><use xlink:href="#B" opacity=".1" fill="#000"/><g fill="#fff"><path d="M364.907 41.584H57.526v197.501h307.381V41.584z"/><path opacity=".46" d="M364.907 41.584H57.526v197.487h307.381V41.584z"/><path d="M339.913 59.204H82.506v159.073h257.407V59.204z"/></g><path opacity=".1" d="M108.293 194.433c-5.855 13.557-23.667 21.806-23.94 39.672v5.021H57.512v-7.538l41.396-59.823s15.239 9.083 9.385 22.668z" fill="#000"/><path d="M54.243 193.42s27.62-28.249 39.55-25.746c9.85 2.08 9.863 21.67-11.587 37.99a38.01 38.01 0 0 0-15.048 27.757c-.616 9.112-3.611 19.96-12.873 28.154-19.467 17.237-33.913 2.23-32.025-21.04s3.105-30.165 31.984-47.115z" fill="#f4a28c"/><path d="M70.891 287.239l1.518-21.026-52.737-15.979-11.067 37.005h62.286z" fill="#fff"/><g fill="#000"><path opacity=".1" d="M70.891 287.24l1.518-21.027-25.185-7.634-3.639 28.661h27.306zm-1.573-116.611c2.304 0 4.172-1.868 4.172-4.172s-1.868-4.173-4.172-4.173-4.172 1.868-4.172 4.173 1.868 4.172 4.172 4.172zm-1.436-59.167v41.246c0 .786.637 1.423 1.423 1.423h.944c.786 0 1.423-.637 1.423-1.423v-41.246c0-.786-.637-1.423-1.423-1.423h-.944c-.786 0-1.423.637-1.423 1.423zm285.958 35.035a6.17 6.17 0 0 0 6.169-6.169 6.17 6.17 0 0 0-6.169-6.17 6.17 6.17 0 0 0-6.17 6.17 6.17 6.17 0 0 0 6.17 6.169z"/></g><g fill="#e6e6e6"><path d="M239.678 183.393h-56.937a6.8 6.8 0 0 0-6.799 6.799v1.464a6.8 6.8 0 0 0 6.799 6.799h56.937a6.8 6.8 0 0 0 6.799-6.799v-1.464a6.8 6.8 0 0 0-6.799-6.799zm68.853-70.467h-179.8c-12.383 0-22.422 10.039-22.422 22.422s10.039 22.422 22.422 22.422h179.8c12.383 0 22.421-10.039 22.421-22.422s-10.038-22.422-22.421-22.422z"/></g><path d="M231.196 151.272c-3.119-2.34-6.211-4.706-9.083-7.333l-13.516 11.642-35.063-43.038-67.567 65.364 10.452 10.876 55.802-53.982 34.488 42.272 28.003-24.132c-1.281-.289-2.482-.859-3.516-1.669h0z" fill="#fff"/><path opacity=".12" d="M310.145 239.071l-41.588-.273c-6.84-17.511-4.104-28.332-8.441-45.884-8.454-34.05-31.793-5.39-51.629-38.934-7.319-12.312-7.743-28.195-1.601-42.148 3.147-7.141 3.585-7.634 11.642-10.425 2.406-.872 4.976-1.199 7.524-.957l-3.597 15.171c-1.368 5.828-2.736 11.724-2.654 17.702s1.915 12.162 6.115 16.417 10.602 6.21 16.717 6.84a20.84 20.84 0 0 0 11.259-1.368c6.99-3.379 11.56-10.192 13.68-17.511 1.598-6.019 2.016-12.291 1.231-18.468-.711-6.649-3.01-11.943-8.687-15.719-6.742-4.441-14.853-6.314-22.859-5.281.711-4.419 4.829-7.675 9.193-8.66 5.472-1.204 11.245.233 16.293 2.23 1.997.807 16.772 6.375 16.963 7.962l3.366 26.854a7.03 7.03 0 0 1-.104 3.608c-.348 1.173-.996 2.236-1.88 3.082l-17.182 22.49 14.61 33.311 31.629 49.96z" fill="#000"/><g fill="#fff"><path d="M218.036 136.47l1.135-.356v-1.628c0-.178-.301-.52-.342-.492-.697.287-1.053-.206-.971-.643s.752-.698 1.19-1.054c.082-.068.26 0 .479-.068l-.164-.848c1.19-1.122 1.655-1.957 1.368-2.408-.698-.971-2.189-1.56-2.859-1.136-1.04.684-1.04 1.218-.288 2.641l-2.982 4.104a1.27 1.27 0 0 0-.711.328c-.123.151.205.643.314.971l.466 1.259 5.472.862-2.107-1.532zm5.787-.89v-2.079c-.489-.422-.946-.879-1.368-1.368-.712-.821-1.464-.246-2.08 0s-.533.848.096 1.231c.109 0 .15.288.15.438 0 .52-.136 1.368.096 1.477.913.45 1.871.798 2.859 1.04.178 0 .466-.355.698-.547l-.451-.192zm64.42 42.396a3.29 3.29 0 0 0-4.173-1.369l-5.048 2.737 2.504.287c.547-.643.875-1.368 1.368-1.601.972-.534 2.034-.887 3.133-1.039.684-.083 1.395.574 2.216.985zm-9.029 2.749l-2.093.192 1.039-1.204c-1.983-.534-4.104.232-4.104 1.464 1.82-.151 3.571.766 5.158-.452zm6.046-52.135c.739 0 1.369.273 1.669 0 .739-.643 1.218-.123 1.861.096a7.62 7.62 0 0 0 2.079 0c-1.368-2.244-1.792-2.367-3.543-1.368l-.355.191-1.711 1.081z"/></g><path d="M272.415 190.76l11.2-4.775-13.906-32.619-11.2 4.775 13.906 32.619z" fill="#ffd200"/><path opacity=".08" d="M272.415 190.76l11.2-4.775-13.906-32.619-11.2 4.775 13.906 32.619z" fill="#000"/><path d="M283.255 224.958l17.24-7.35-17.866-41.906-17.24 7.351 17.866 41.905z" fill="#24285b"/><path d="M288.407 107.987l-.424-.943c-3.269-7.137-8.569-13.151-15.237-17.291a39.92 39.92 0 0 0-44.111 1.326c-6.408 4.533-11.337 10.855-14.171 18.175a39.92 39.92 0 0 0 9.469 43.103 39.93 39.93 0 0 0 20.485 10.561c7.717 1.43 15.686.553 22.908-2.522 1.517-.647 2.992-1.387 4.418-2.216 8.421-4.895 14.763-12.698 17.832-21.942a39.94 39.94 0 0 0-1.169-28.251h0zm-25.609 41.629c-6.129 2.599-12.978 2.953-19.342.998a28.27 28.27 0 0 1-15.447-11.682 27.48 27.48 0 0 1-2.244-4.213 28.25 28.25 0 0 1-.213-21.621c2.799-6.95 8.245-12.504 15.138-15.439a28.25 28.25 0 0 1 37.06 14.925c.363.84.683 1.699.958 2.572 2.104 6.694 1.64 13.932-1.301 20.302a28.24 28.24 0 0 1-14.609 14.158h0z" fill="#ffd200"/><path d="M340.406 243.654s-9.713-76.828-38.551-79.427-13.188 44.857-27.361 42.71-17.114 31.163 35.405 53.64l30.507-16.923z" fill="#f4a28c"/><g fill="#fff"><path d="M378.054 287.239L340.98 235.98l-25.418 14.131-16.608 9.235 9.7 27.893h69.4zM328.312 63.021l-12.052 38.018-9.166-10.465-19.152 16.417-9.412 8.112-39.276 33.845c-4.64-2.247-8.569-5.731-11.355-10.069l42.327-36.485 8.947-7.715 17.976-15.486-9.111-10.397 40.274-5.773z"/></g><path opacity=".12" d="M333.702 287.281l-18.14-37.129-16.608 9.235 9.7 27.894h25.048z" fill="#000"/><g fill="#e6e6e6"><path d="M112.835 88.644l3.461-.219a2.6 2.6 0 0 0 .451 1.286 1.94 1.94 0 0 0 .715.548 1.93 1.93 0 0 0 .886.163c.433.029.862-.102 1.204-.369a1.06 1.06 0 0 0 .31-.368 1.07 1.07 0 0 0 .114-.467 1.07 1.07 0 0 0-.397-.821 4.67 4.67 0 0 0-1.86-.684c-1.228-.18-2.395-.649-3.407-1.368a2.89 2.89 0 0 1-1.026-2.271 3.03 3.03 0 0 1 .52-1.71 3.62 3.62 0 0 1 1.573-1.272c.929-.338 1.914-.491 2.901-.451a5.92 5.92 0 0 1 3.433.835 3.66 3.66 0 0 1 1.368 2.736l-3.433.191a1.74 1.74 0 0 0-.575-1.149 1.78 1.78 0 0 0-1.204-.369 1.37 1.37 0 0 0-.944.274.82.82 0 0 0-.328.657.67.67 0 0 0 .075.281.69.69 0 0 0 .185.225c.371.227.786.372 1.217.424a15.72 15.72 0 0 1 3.42 1.04 3.55 3.55 0 0 1 1.492 1.368c.32.522.485 1.125.478 1.737.001.74-.218 1.463-.629 2.079a3.98 3.98 0 0 1-1.751 1.45c-.9.358-1.864.526-2.832.492a5.76 5.76 0 0 1-4.104-1.163c-.816-.831-1.286-1.941-1.313-3.105zm12.49-7.866h9.727v2.517h-6.088v1.861h5.65v2.394h-5.65v2.326h6.266v2.654h-9.905V80.778zm19.084 9.808h-4.104l-.575 1.943h-3.707l4.419-11.751h3.953l4.419 11.751h-3.803l-.602-1.943zm-.752-2.531l-1.245-4.227-1.286 4.227h2.531zm6.347 4.474V80.778h6.088c.867-.032 1.733.065 2.572.287.585.185 1.09.56 1.436 1.067.378.566.569 1.235.547 1.915a3.19 3.19 0 0 1-.424 1.683 3.14 3.14 0 0 1-1.135 1.149 4.33 4.33 0 0 1-1.286.465 3.75 3.75 0 0 1 .957.438 4.5 4.5 0 0 1 .575.616 4.2 4.2 0 0 1 .506.725l1.765 3.406h-4.104l-1.984-3.612a2.97 2.97 0 0 0-.656-.917 1.55 1.55 0 0 0-.89-.26h-.328v4.761l-3.639.027zm3.639-6.991h1.532c.328-.025.653-.08.971-.164a.96.96 0 0 0 .589-.356c.145-.198.222-.438.219-.684a1.06 1.06 0 0 0-.076-.479c-.062-.152-.158-.287-.28-.396a2.19 2.19 0 0 0-1.368-.301h-1.601l.014 2.38zm16.608 2.189l3.174.958a5.78 5.78 0 0 1-.999 2.23 4.44 4.44 0 0 1-1.71 1.368c-.828.339-1.719.498-2.613.465a7.52 7.52 0 0 1-3.119-.561c-.853-.423-1.566-1.083-2.052-1.902-.626-1.088-.929-2.331-.876-3.584-.052-.813.057-1.628.322-2.399a6.16 6.16 0 0 1 1.224-2.088 7.1 7.1 0 0 1 7.88-.67 5.27 5.27 0 0 1 1.888 2.736l-3.201.711c-.078-.281-.198-.548-.356-.793-.192-.267-.445-.483-.739-.629-.305-.154-.643-.234-.985-.233a2.12 2.12 0 0 0-1.086.241c-.335.176-.616.437-.815.758a4.24 4.24 0 0 0-.493 2.312 4.43 4.43 0 0 0 .589 2.736 2.34 2.34 0 0 0 3.242.137c.396-.522.647-1.141.725-1.792h0zm4.993-6.949h3.625v4.104h3.968v-4.104h3.652v11.751h-3.652v-4.747h-3.968v4.747h-3.625V80.778z"/></g></g><defs><clipPath id="A"><path fill="#fff" d="M0 0h406v306H0z"/></clipPath><path id="B" d="M26.198 218.277s14.227-66.923 50.015-66.923 54.83 105.201-32.231 116.637l-17.784-49.714z"/></defs></svg>