<svg width="406" height="306" viewBox="0 0 406 306" fill="none" xmlns="http://www.w3.org/2000/svg">
<g clip-path="url(#clip0_1_50)">
<path opacity="0.45" d="M202.256 294.559C309.472 294.559 396.387 289.19 396.387 282.566C396.387 275.943 309.472 270.574 202.256 270.574C95.0402 270.574 8.12476 275.943 8.12476 282.566C8.12476 289.19 95.0402 294.559 202.256 294.559Z" fill="#E6E6E6"/>
<path opacity="0.58" d="M359.964 263.053C359.964 263.053 347.68 259.699 344.999 248.253C344.999 248.253 364.055 244.441 364.589 264.056L359.964 263.053Z" fill="white"/>
<path opacity="0.73" d="M361.425 261.833C361.425 261.833 352.837 248.253 360.396 235.561C360.396 235.561 374.879 244.759 368.438 261.859L361.425 261.833Z" fill="white"/>
<path d="M363.636 261.846C363.636 261.846 368.171 247.503 381.892 244.797C381.892 244.797 384.432 254.096 372.999 261.884L363.636 261.846Z" fill="white"/>
<path d="M354.73 261.516L357.208 278.565L372.91 278.628L375.222 261.605L354.73 261.516Z" fill="#24285B"/>
<path d="M171.423 198.783L157.449 271.628H225.619L211.644 198.783H171.423Z" fill="#C9C9C9"/>
<path d="M234.512 264.425H148.124V279.124H234.512V264.425Z" fill="#E6E6E6"/>
<path d="M328.28 44.4282H62.1298V217.636H328.28V44.4282Z" fill="#E6E6E6"/>
<path opacity="0.56" d="M328.28 44.4282H62.1298V197.728H328.28V44.4282Z" fill="white"/>
<path d="M82.5707 49.4082C85.6649 49.4082 88.1732 46.8999 88.1732 43.8057C88.1732 40.7116 85.6649 38.2032 82.5707 38.2032C79.4765 38.2032 76.9682 40.7116 76.9682 43.8057C76.9682 46.8999 79.4765 49.4082 82.5707 49.4082Z" fill="#24285B"/>
<path d="M99.2258 49.4082C102.32 49.4082 104.828 46.8999 104.828 43.8057C104.828 40.7116 102.32 38.2032 99.2258 38.2032C96.1316 38.2032 93.6233 40.7116 93.6233 43.8057C93.6233 46.8999 96.1316 49.4082 99.2258 49.4082Z" fill="white"/>
<path d="M114.915 49.4082C118.009 49.4082 120.518 46.8999 120.518 43.8057C120.518 40.7116 118.009 38.2032 114.915 38.2032C111.821 38.2032 109.313 40.7116 109.313 43.8057C109.313 46.8999 111.821 49.4082 114.915 49.4082Z" fill="#FFD200"/>
<path d="M52.5764 281.842L64.2514 229.616H103.177L91.832 281.842H52.5764Z" fill="#FFD200"/>
<path d="M103.177 229.616L114.852 281.842H91.832L103.177 229.616Z" fill="#FFD200"/>
<path opacity="0.09" d="M103.177 229.616L114.852 281.842H91.832L103.177 229.616Z" fill="black"/>
<path opacity="0.03" d="M62.1298 76.8491V93.4533H328.28V63.2176L216.053 45.5081L91.832 60.1305L72.7759 63.9417L62.3077 75.2356L62.1298 76.8491Z" fill="black"/>
<path opacity="0.5" d="M69.1171 238.699L64.2514 260.436H89.0752L93.2803 238.699H69.1171Z" fill="white"/>
<path d="M327.912 24.5845H195.04H193.922H61.05L38.1445 64.7929H193.922H195.04H350.817L327.912 24.5845Z" fill="white"/>
<path d="M72.7759 64.8056H107.407V64.9453C107.407 69.4805 105.606 73.8298 102.399 77.0366C99.192 80.2435 94.8426 82.045 90.3075 82.045H89.8756C85.3404 82.045 80.9911 80.2435 77.7842 77.0366C74.5774 73.8298 72.7759 69.4805 72.7759 64.9453V64.8056V64.8056Z" fill="white"/>
<path d="M142.534 64.8056H177.165V64.9453C177.165 69.4805 175.364 73.8298 172.157 77.0366C168.95 80.2435 164.601 82.045 160.066 82.045H159.634C155.099 82.045 150.749 80.2435 147.542 77.0366C144.336 73.8298 142.534 69.4805 142.534 64.9453V64.8056V64.8056Z" fill="white"/>
<path d="M211.797 64.8056H246.428V64.9453C246.428 69.4805 244.626 73.8298 241.42 77.0366C238.213 80.2435 233.863 82.045 229.328 82.045H228.896C224.361 82.045 220.012 80.2435 216.805 77.0366C213.598 73.8298 211.797 69.4805 211.797 64.9453V64.8056V64.8056Z" fill="white"/>
<path d="M281.555 64.8056H316.186V64.9453C316.186 69.4805 314.385 73.8298 311.178 77.0366C307.971 80.2435 303.621 82.045 299.086 82.045H298.654C294.119 82.045 289.77 80.2435 286.563 77.0366C283.356 73.8298 281.555 69.4805 281.555 64.9453V64.8056V64.8056Z" fill="white"/>
<path d="M177.165 64.8056V64.9453C177.165 69.4805 178.967 73.8298 182.174 77.0366C185.381 80.2435 189.73 82.045 194.265 82.045H194.697C199.232 82.045 203.581 80.2435 206.788 77.0366C209.995 73.8298 211.797 69.4805 211.797 64.9453V24.5845H177.165V64.8056Z" fill="white"/>
<path d="M107.903 64.8056V64.9453C107.903 69.4805 109.704 73.8298 112.911 77.0366C116.118 80.2435 120.467 82.045 125.002 82.045H125.434C129.969 82.045 134.319 80.2435 137.526 77.0366C140.732 73.8298 142.534 69.4805 142.534 64.9453V64.8056L146.65 24.5845H116.16L107.903 64.8056Z" fill="white"/>
<path d="M38.1445 64.8056V64.9453C38.1445 67.1909 38.5868 69.4145 39.4462 71.4891C40.3055 73.5637 41.5651 75.4488 43.1529 77.0366C44.7408 78.6245 46.6258 79.8841 48.7004 80.7434C50.7751 81.6027 52.9986 82.045 55.2442 82.045H55.6762C60.2113 82.045 64.5607 80.2435 67.7675 77.0366C70.9743 73.8298 72.7759 69.4805 72.7759 64.9453V64.8056L88.1605 24.5845H61.05L38.1445 64.8056Z" fill="white"/>
<path d="M272.814 24.5845H242.325L246.428 64.8056H246.898V64.9453C246.898 69.4805 248.7 73.8298 251.906 77.0366C255.113 80.2435 259.463 82.045 263.998 82.045H264.43C268.965 82.045 273.314 80.2435 276.521 77.0366C279.728 73.8298 281.529 69.4805 281.529 64.9453V64.8056H281.034L272.814 24.5845Z" fill="white"/>
<path d="M327.912 24.5845H300.801L316.186 64.8056V64.9453C316.186 67.1909 316.628 69.4145 317.488 71.4891C318.347 73.5637 319.607 75.4488 321.194 77.0366C322.782 78.6245 324.667 79.8841 326.742 80.7434C328.817 81.6027 331.04 82.045 333.286 82.045H333.718C335.963 82.045 338.187 81.6027 340.262 80.7434C342.336 79.8841 344.221 78.6245 345.809 77.0366C347.397 75.4488 348.656 73.5637 349.516 71.4891C350.375 69.4145 350.817 67.1909 350.817 64.9453V64.8056L327.912 24.5845Z" fill="white"/>
<g opacity="0.75">
<path opacity="0.75" d="M177.165 64.8056V64.9453C177.165 69.4804 178.967 73.8298 182.174 77.0366C185.381 80.2434 189.73 82.045 194.265 82.045H194.697C199.232 82.045 203.581 80.2434 206.788 77.0366C209.995 73.8298 211.797 69.4804 211.797 64.9453V24.5844H177.165V64.8056Z" fill="white"/>
<path opacity="0.75" d="M107.903 64.8056V64.9453C107.903 69.4804 109.704 73.8298 112.911 77.0366C116.118 80.2434 120.467 82.045 125.002 82.045H125.434C129.969 82.045 134.319 80.2434 137.526 77.0366C140.732 73.8298 142.534 69.4804 142.534 64.9453V64.8056L146.65 24.5844H116.16L107.903 64.8056Z" fill="white"/>
<path opacity="0.75" d="M38.1445 64.8056V64.9453C38.1445 67.1909 38.5868 69.4145 39.4462 71.4891C40.3055 73.5637 41.5651 75.4488 43.1529 77.0366C44.7408 78.6245 46.6258 79.8841 48.7004 80.7434C50.7751 81.6027 52.9986 82.045 55.2442 82.045H55.6762C60.2113 82.045 64.5607 80.2435 67.7675 77.0366C70.9743 73.8298 72.7759 69.4805 72.7759 64.9453V64.8056L88.1605 24.5845H61.05L38.1445 64.8056Z" fill="white"/>
<path opacity="0.75" d="M272.814 24.5844H242.325L246.428 64.8056H246.898V64.9453C246.898 69.4804 248.7 73.8298 251.906 77.0366C255.113 80.2434 259.463 82.045 263.998 82.045H264.43C268.965 82.045 273.314 80.2434 276.521 77.0366C279.728 73.8298 281.529 69.4804 281.529 64.9453V64.8056H281.034L272.814 24.5844Z" fill="white"/>
<path opacity="0.75" d="M327.912 24.5844H300.801L316.186 64.8056V64.9453C316.186 67.1909 316.628 69.4145 317.488 71.4891C318.347 73.5637 319.607 75.4488 321.194 77.0366C322.782 78.6245 324.667 79.884 326.742 80.7434C328.817 81.6027 331.04 82.045 333.286 82.045H333.718C335.963 82.045 338.187 81.6027 340.262 80.7434C342.336 79.884 344.221 78.6245 345.809 77.0366C347.397 75.4488 348.656 73.5637 349.516 71.4891C350.375 69.4145 350.817 67.1909 350.817 64.9453V64.8056L327.912 24.5844Z" fill="white"/>
</g>
<path d="M328.28 9.70798H61.05V24.5845H328.28V9.70798Z" fill="white"/>
<path d="M259.843 117.629H131.723V173.298H259.843V117.629Z" fill="#24285B"/>
<path d="M177.165 127.589H142.534V162.221H177.165V127.589Z" fill="white"/>
<path d="M164.906 134.78C163.684 134.691 162.456 134.747 161.247 134.945C160.191 135.11 159.115 135.11 158.058 134.945C156.854 134.747 155.63 134.691 154.412 134.78C153.673 134.835 152.954 135.041 152.298 135.387C151.642 135.732 151.065 136.209 150.601 136.787L146.688 141.614L150.499 144.829L152.913 141.856V152.019H166.405V141.856L168.819 144.829L172.63 141.614L168.717 136.787C168.253 136.21 167.675 135.734 167.019 135.389C166.364 135.044 165.645 134.836 164.906 134.78V134.78Z" fill="white"/>
<path opacity="0.09" d="M156.94 134.805C156.94 134.805 156.204 138.921 159.418 138.883C162.632 138.845 162.022 134.843 162.022 134.843C160.334 135.048 158.626 135.035 156.94 134.805V134.805Z" fill="black"/>
<path d="M259.462 134.691C266.661 134.691 272.497 128.855 272.497 121.656C272.497 114.458 266.661 108.622 259.462 108.622C252.264 108.622 246.428 114.458 246.428 121.656C246.428 128.855 252.264 134.691 259.462 134.691Z" fill="#FFD200"/>
<path d="M234.524 133.611H187.951V141.614H234.524V133.611Z" fill="white"/>
<path opacity="0.28" d="M234.524 147.979H187.951V155.983H234.524V147.979Z" fill="white"/>
<path opacity="0.3" d="M120.505 112.065H74.6306V187.527H120.505V112.065Z" fill="#C9C9C9"/>
<path d="M322.881 119.332H310.126V171.444H322.881V119.332Z" fill="#C9C9C9"/>
</g>
<defs>
<clipPath id="clip0_1_50">
<rect width="406" height="306" fill="white"/>
</clipPath>
</defs>
</svg>
