<svg xmlns="http://www.w3.org/2000/svg" viewBox="0 0 512.001 512.001" xmlns:v="https://vecta.io/nano"><path d="M336.76 327.082l-8.182-47.699 59.308-57.809a9.23 9.23 0 0 0 2.336-9.464c-1.086-3.341-3.975-5.777-7.45-6.282L300.81 193.92l-36.654-74.269a9.23 9.23 0 0 0-16.553 0l-36.654 74.269-81.958 11.908c-3.476.506-6.366 2.941-7.451 6.282s-.18 7.011 2.336 9.464l59.308 57.809-14.002 81.627a9.23 9.23 0 0 0 13.395 9.731l73.306-38.538 73.306 38.538c1.35.711 2.825 1.06 4.296 1.06 1.912 0 3.817-.595 5.426-1.763 2.845-2.065 4.267-5.567 3.675-9.028l-5.826-33.928M180.09 43.24c-.481-1.481-1.762-2.561-3.301-2.783L140.48 35.18l-16.239-32.9C123.552.883 122.131 0 120.574 0s-2.978.883-3.667 2.28l-16.239 32.9-36.31 5.277a4.09 4.09 0 0 0-2.266 6.974l26.274 25.61-6.203 36.164a4.09 4.09 0 0 0 5.934 4.31l32.476-17.073 32.475 17.073c.598.314 1.253.47 1.904.47.847 0 1.691-.264 2.404-.781 1.258-.915 1.889-2.466 1.628-3.999L152.78 73.04l26.274-25.609a4.09 4.09 0 0 0 1.036-4.191zM300.467 459c-.36-1.109-1.32-1.917-2.473-2.085l-27.202-3.952-12.166-24.648a3.06 3.06 0 0 0-5.492 0l-12.164 24.648-27.202 3.952a3.07 3.07 0 0 0-2.475 2.085c-.36 1.109-.059 2.327.776 3.141l19.684 19.186-4.648 27.09a3.07 3.07 0 0 0 1.218 2.997c.944.686 2.195.775 3.227.233l24.328-12.792 24.331 12.792a3.06 3.06 0 0 0 1.424.35c.633 0 1.27-.196 1.8-.584.944-.686 1.416-1.848 1.222-2.997l-4.649-27.09 19.684-19.186a3.06 3.06 0 0 0 .777-3.14z" fill="#ffd960"/><g opacity=".1"><path d="M199.294 352.062l14.002-81.627-59.308-57.809c-2.516-2.453-3.421-6.123-2.336-9.464.075-.23.178-.444.27-.666l-22.933 3.333c-3.476.506-6.366 2.941-7.451 6.282s-.18 7.011 2.336 9.464l59.308 57.809-14.002 81.627a9.23 9.23 0 0 0 13.395 9.731l19.61-10.31c-2.308-2.104-3.426-5.248-2.891-8.37z" fill="#231f20"/></g><g opacity=".1"><path d="M112.279 100.257l6.203-36.164-26.274-25.61a4.08 4.08 0 0 1-1.104-1.912l-26.745 3.886a4.09 4.09 0 0 0-2.266 6.974l26.274 25.61-6.203 36.164a4.09 4.09 0 0 0 5.934 4.31l24.124-12.682c.005-.192.024-.384.057-.576z" fill="#231f20"/></g><g opacity=".1"><path d="M257.22 499.469l4.648-27.09-19.684-19.186c-.349-.34-.582-.76-.734-1.204l-.481.975-27.202 3.952a3.07 3.07 0 0 0-2.475 2.085c-.36 1.109-.059 2.327.776 3.141l19.684 19.186-4.648 27.09a3.07 3.07 0 0 0 1.218 2.997c.944.686 2.195.775 3.227.233l24.328-12.792 1.338.704c.007-.031 0-.061.005-.091z" fill="#231f20"/></g><g fill="#ffd960"><circle cx="450.892" cy="301.617" r="26.77"/><circle cx="61.109" cy="344.999" r="26.77"/></g><path d="M442.02 301.621c0-11.647 7.437-21.549 17.82-25.232a26.73 26.73 0 0 0-8.949-1.537c-14.786 0-26.77 11.984-26.77 26.77s11.984 26.77 26.77 26.77c3.14 0 6.15-.545 8.949-1.538-10.382-3.684-17.82-13.587-17.82-25.233zM52.237 344.994c0-11.645 7.437-21.549 17.82-25.232a26.71 26.71 0 0 0-8.949-1.538c-14.786 0-26.77 11.984-26.77 26.77s11.984 26.77 26.77 26.77a26.71 26.71 0 0 0 8.949-1.538c-10.381-3.683-17.82-13.586-17.82-25.232z" opacity=".1" fill="#231f20"/><g fill="#ffd960"><circle cx="382.396" cy="95.3" r="18.694"/><circle cx="424.123" cy="435.063" r="18.695"/></g></svg>